<?xml version="1.0" encoding="iso-8859-1"?>
<!-- Generator: Adobe Illustrator 22.0.0, SVG Export Plug-In . SVG Version: 6.00 Build 0)  -->
<svg version="1.1" id="Capa_1" xmlns="http://www.w3.org/2000/svg" xmlns:xlink="http://www.w3.org/1999/xlink" x="0px" y="0px"
	 viewBox="0 0 931.17 587.29" style="enable-background:new 0 0 931.17 587.29;" xml:space="preserve">
<g>
	<g id="Capa_2_1_">
		<path style="fill:#9EA9F0;" d="M709.04,337.07c-109.58,1.83-224.57-58.61-249-114c-2.6-5.89-8.89-22.42-25-37
			c-25.09-22.7-57.35-25.61-69-26c-54.16-1.83-106.1,35.74-124,81c-9.86,24.94-0.32,29.3-10,51c-18.85,42.27-63.64,45.08-123,79
			c-32.13,18.36-111.11,63.49-109,113c1.89,44.39,68.54,82.29,123,94c73.3,15.76,97-21.86,203-27c103.45-5,105,29.66,174,16
			c100.86-20,86.87-91.9,209-131c55.42-17.74,109.35-40.73,166-54c16.23-3.8,48.66-10.9,55-32c4.31-14.36-4.49-31.75-14-41
			C880.5,274.51,816.26,335.28,709.04,337.07z"/>
		<path style="fill:#F5F3FF;" d="M571.24,194.44c49.8-4.37,81.38-42.54,87.8-71.62c8.89-40.17-44.16-84.75-51.74-91.11
			c-67.49-56.7-167.42-21.15-187.5-15.87c-78.35,20.58-183.9,87.12-202.76,199.3c-24,143.08,104.41,292.66,198.62,284.41
			c42.2-3.69,79.91-20.5,94.53-72.09C525.86,372.16,378.47,211.17,571.24,194.44z"/>
		<path style="fill:#9EA9F0;" d="M345.04,313.07c-16.51-24.64-103.55,6.8-146,42c-9.28,7.69-19,17.7-21,32
			c-2.41,17.28,7.08,36.45,21,45c33.88,20.81,89.18-24.31,96-30C323.77,378.07,357.83,332.16,345.04,313.07z"/>
		<path style="fill:#CCC1FF;" d="M263.04,496.07c-6.55,35.9,108,81.49,179,90c11.14,1.34,43.16,4.39,51-10c4.91-9-3.5-17.82-3-44
			c0.35-18.59,4.72-21.06,3-29c-6.41-29.57-76.35-38-85-39C354.46,458.07,268.47,466.31,263.04,496.07z"/>
		<path style="fill:none;stroke:#CCC1FF;stroke-width:2;stroke-miterlimit:10;" d="M270.04,480.07c-6.55,35.9,108,81.49,179,90
			c11.14,1.34,43.16,4.39,51-10c4.91-9-3.5-17.82-3-44c0.35-18.59,4.72-21.06,3-29c-6.41-29.57-76.35-38-85-39
			C361.46,442.07,275.47,450.31,270.04,480.07z"/>
		<path style="fill:none;stroke:#ECEEFC;stroke-width:2;stroke-miterlimit:10;" d="M335.04,305.07c-16.51-24.64-103.55,6.8-146,42
			c-9.28,7.69-19,17.7-21,32c-2.41,17.28,7.08,36.45,21,45c33.88,20.81,89.18-24.31,96-30
			C313.77,370.07,347.83,324.16,335.04,305.07z"/>
		<path style="fill:none;stroke:#CCC1FF;stroke-width:2;stroke-miterlimit:10;" d="M256.04,401.07c-89.25-33-131.19-22.43-136-41
			c-7.34-28.31,82.77-81.46,164-109c41.68-14.13,39.07-7.3,110-25c123.81-30.9,147.13-55.57,225-58c52.39-1.64,107.62,7.47,109,21
			c2,19.65-113.17,14-178,94c-45,55.51-22,98.34-71,133c-52.09,36.87-125.26,21.83-139,19
			C306.92,428.26,306.47,419.75,256.04,401.07z"/>
	</g>
</g>
</svg>
