<svg id="campanil" data-name="Capa 2" xmlns="http://www.w3.org/2000/svg" xmlns:xlink="http://www.w3.org/1999/xlink" viewBox="0 0 254.88 575.24"><defs><linearGradient id="Degradado_sin_nombre_19" x1="225.44" y1="519.02" x2="138.84" y2="374.88" gradientUnits="userSpaceOnUse"><stop offset="0.16" stop-color="#ecf1ff" stop-opacity="0"/><stop offset="1" stop-color="#ecf1ff"/></linearGradient><linearGradient id="Degradado_sin_nombre_17" x1="30.72" y1="521.75" x2="108.72" y2="381.03" gradientUnits="userSpaceOnUse"><stop offset="0.14" stop-color="#a2b9fe" stop-opacity="0"/><stop offset="1" stop-color="#a2b9fe"/></linearGradient></defs><title>campanil</title><polygon points="242.4 327.83 242.4 508.83 127.4 575.23 127.4 394.03 127.5 394.09 127.5 381.69 127.62 381.75 127.62 394.09 242.4 327.83" style="fill:url(#Degradado_sin_nombre_19)"/><polygon points="242.4 160.67 242.4 327.83 127.62 394.09 127.62 381.75 127.5 381.69 127.5 394.09 127.4 394.03 127.4 384.23 127.3 384.28 127.22 384.33 127.22 227.17 127.31 227.12 127.32 227.11 242.4 160.67" style="fill:#ecf1ff"/><polygon points="127.22 393.93 127.22 575.24 12.22 508.84 12.22 327.54 127.22 393.93" style="fill:url(#Degradado_sin_nombre_17)"/><polyline points="127.22 381.5 127.22 393.93 12.22 327.54 12.22 160.66 127.31 227.11 127.32 227.11 127.4 227.16" style="fill:#a2b9fe"/><polygon points="254.49 168.84 127.62 242.09 127.62 229.65 254.49 156.4 254.49 168.84" style="fill:#b3bdf4"/><polygon points="127.49 242.09 0.62 168.84 0.62 156.4 127.49 229.65 127.49 242.09" style="fill:#7881b5"/><polygon points="254.5 308.4 254.5 320.84 242.4 327.83 127.62 394.09 127.62 381.65 242.4 315.39 254.4 308.46 254.5 308.4" style="fill:#b3bdf4"/><polygon points="127.5 381.65 127.5 394.09 127.4 394.03 127.22 393.93 12.22 327.54 0.62 320.84 0.62 308.4 12.22 315.1 117.27 375.74 127.22 381.49 127.4 381.59 127.5 381.65" style="fill:#7881b5"/><polygon points="128.43 369.3 117.65 375.52 0.24 307.73 11.01 301.51 128.43 369.3" style="fill:#a0acf1"/><polygon points="254.88 308.73 254.5 308.95 242.4 315.94 128.01 381.98 127.62 381.75 127.5 381.69 127.4 381.63 127.22 381.52 117.24 375.76 117.27 375.74 117.65 375.52 127.22 370 127.4 369.89 128.43 369.3 242.4 303.5 244.11 302.51 254.4 308.46 254.5 308.51 254.88 308.73" style="fill:#c9d6ff"/><polygon points="254.61 155.67 223.44 137.89 127.31 193.39 127.31 229.17 254.61 155.67" style="fill:#c2caf6"/><polygon points="0 155.67 31.18 137.89 127.31 193.39 127.31 229.17 0 155.67" style="fill:#939ac4"/><polygon points="239.81 142.21 212.26 126.5 127.31 175.55 127.31 207.17 239.81 142.21" style="fill:#ced5f8"/><polygon points="14.8 142.21 42.35 126.5 127.31 175.55 127.31 207.17 14.8 142.21" style="fill:#a9aed0"/><polygon points="227.81 127.14 203.2 113.11 127.31 156.92 127.31 185.17 227.81 127.14" style="fill:#d8ddf9"/><polygon points="26.8 127.14 51.41 113.11 127.31 156.92 127.31 185.17 26.8 127.14" style="fill:#cbcee3"/><polygon points="127.31 69.28 127.31 156.72 51.58 113 51.45 112.92 126.43 69.51 127.07 69.14 127.31 69.28" style="fill:#d5d8e9"/><polygon points="203.28 113.14 127.55 156.86 127.31 156.72 127.31 69.28 203.04 113 203.28 113.14" style="fill:#e0e4fa"/><ellipse cx="522.14" cy="304.58" rx="63.64" ry="36.74" transform="translate(-341.51 569.13) rotate(-59.69)" style="fill:#6a77c4"/><ellipse cx="524.86" cy="306" rx="63.64" ry="36.74" transform="translate(-341.4 572.18) rotate(-59.69)" style="fill:#b3bdf4"/><path d="M562.79,284.1c0,23.38-16.06,51.73-36.23,64.4-.56.36-1.13.7-1.7,1-20.95,12.1-37.93,2.42-37.93-21.63,0-22.33,14.65-49.2,33.53-62.6q2.16-1.53,4.4-2.83C545.81,250.37,562.79,260.06,562.79,284.1Z" transform="translate(-337.19 -32.5)" style="fill:#141414"/><path d="M560.1,285.9c0,22.33-14.65,49.19-33.54,62.6-.56.36-1.13.7-1.7,1-20.95,12.1-37.93,2.42-37.93-21.63,0-22.33,14.65-49.2,33.53-62.6.56-.36,1.13-.7,1.7-1C543.12,252.17,560.1,261.85,560.1,285.9Z" transform="translate(-337.19 -32.5)" style="fill:#ebe6ff"/><ellipse cx="403.86" cy="303.58" rx="36.74" ry="63.64" transform="translate(-435.2 212.81) rotate(-30.31)" style="fill:#431ea8"/><ellipse cx="401.14" cy="305" rx="36.74" ry="63.64" transform="translate(-436.29 211.63) rotate(-30.31)" style="fill:#7881b5"/><path d="M363.21,283.1c0,23.38,16.06,51.73,36.23,64.4.56.36,1.13.7,1.7,1,20.95,12.1,37.93,2.42,37.93-21.63,0-22.33-14.65-49.2-33.53-62.6-1.44-1-2.91-2-4.4-2.83C380.19,249.37,363.21,259.06,363.21,283.1Z" transform="translate(-337.19 -32.5)" style="fill:#141414"/><path d="M365.9,284.9c0,22.33,14.65,49.2,33.54,62.6.56.36,1.13.7,1.7,1,20.95,12.1,37.93,2.42,37.93-21.63,0-22.33-14.65-49.2-33.53-62.6-.56-.36-1.13-.7-1.7-1C382.88,251.17,365.9,260.85,365.9,284.9Z" transform="translate(-337.19 -32.5)" style="fill:#ccc1ff"/><line x1="127.31" y1="70.5" x2="127.31" y2="1.5" style="fill:none;stroke:#f9fafe;stroke-linecap:round;stroke-miterlimit:10;stroke-width:3px"/><path d="M511.23,315.14c.74-.24,1.47-.47,2.21-.74a10.54,10.54,0,0,0,1.17-.5,2.12,2.12,0,0,0,1-1.21,6,6,0,0,1,2.88-3.39c1.27-.65,2.2-.42,2.67.69.08.18.16.18.36,0l9.58-6.7c1.36-.94,2.71-1.9,4.06-2.82a2.6,2.6,0,0,1,.82-.34c2.72-.8,5.43-1.58,8.15-2.36.13,0,.35-.05.36,0,0,.24-.23.32-.36.44l-8.69,7.49a1.33,1.33,0,0,1-.36.24l-13.69,6.58a.57.57,0,0,0-.26.27,6.64,6.64,0,0,1-1.85,2.86c-1.14,1.11-2.19,1.52-3.09,1.11a1.18,1.18,0,0,1-.44-.42c-.28-.4-.66-.5-1.23-.05s-1.32,1.11-2,1.63-1.05.76-1.57,1.13c-.16.11-.25.05-.32-.06-.54-.79-.5-1.91,0-3.29C510.73,315.52,510.81,315.44,511.23,315.14Zm8.37-3c0-.84-.6-1.19-1.34-.77a3,3,0,0,0-1.35,2.31c0,.86.61,1.22,1.35.79A3,3,0,0,0,519.6,312.18Z" transform="translate(-337.19 -32.5)"/><path d="M527.81,298.06l-7,11.49c-.17.26-.18.4-.09.57.84,1.64-.26,4.76-2.22,6.28a3.13,3.13,0,0,1-1.8.8.47.47,0,0,0-.29.21c-.23.41-.46.83-.65,1.25-.41.94-.77,1.89-1.19,2.83a13.94,13.94,0,0,1-.73,1.37.59.59,0,0,1-.3.25,1.66,1.66,0,0,1-2.18-1.33.59.59,0,0,1,.1-.39c.43-.59.86-1.18,1.32-1.74s1-1.09,1.41-1.66a13.36,13.36,0,0,0,.77-1.14.61.61,0,0,0,.09-.61,3.65,3.65,0,0,1,.06-3,7.38,7.38,0,0,1,2.51-3.48,2.58,2.58,0,0,1,1.56-.5c.2,0,.33-.12.49-.4,4-7.24,7.94-14.48,11.87-21.73,1-1.82,2.13-3.5,3.27-5.2l7.17-10.61c.29-.44.59-.88.89-1.31a1.07,1.07,0,0,1,.19-.18,1.24,1.24,0,0,1,0,.27c-1.29,2.91-2.72,5.78-4.18,8.65-1.26,2.46-2.49,4.93-3.76,7.38-.45.87-1,1.69-1.51,2.53C531.64,291.81,529.72,294.94,527.81,298.06Zm-10.48,14.73c-.21.34-.41.69-.61,1-.28.51-.24,1,.09,1.25s.83,0,1.11-.5c.42-.7.83-1.41,1.23-2.12.28-.51.21-1-.13-1.21s-.82,0-1.12.55C517.7,312.12,517.52,312.46,517.33,312.79Z" transform="translate(-337.19 -32.5)"/><path d="M517,276.32l.52-.33,0-5.68-.53.44-.09-.32,2.08-1.83.13.17,0,6.35.51-.27v.37L517,276.68Z" transform="translate(-337.19 -32.5)"/><path d="M523.61,270.7l.29-.17v2.18L520,275l.08-1.53a14.2,14.2,0,0,0,2.11-2.52,4,4,0,0,0,.74-1.95c0-.3-.1-.48-.28-.54a.94.94,0,0,0-.74.17,4.76,4.76,0,0,0-.74.54,5.87,5.87,0,0,0-.69.72l0,.42-.29.22-.25-1.9a7.38,7.38,0,0,1,1.07-1.14,8.15,8.15,0,0,1,1.24-.93,1.84,1.84,0,0,1,1.39-.33c.35.12.53.46.53,1a4.8,4.8,0,0,1-.5,1.94,12.81,12.81,0,0,1-1.27,2.14,13,13,0,0,1-1.56,1.8l2.76-2Z" transform="translate(-337.19 -32.5)"/><path d="M554.17,290.38a.75.75,0,0,1,.61.27,1.29,1.29,0,0,1,.22.78,3.61,3.61,0,0,1-.34,1.4,5.66,5.66,0,0,1-.95,1.47,5.51,5.51,0,0,1-1.4,1.15,3.66,3.66,0,0,1-.73.34,2.49,2.49,0,0,1-.65.13l.41-1.53a6.57,6.57,0,0,0,2.3-.44,2.84,2.84,0,0,0,.09-.75c0-.57-.18-.88-.56-.94a3.38,3.38,0,0,0-1.82.67v-.32l2.1-3.54-2.1,1.64,0,.43-.28.16v-2.23l3.7-2.14V288l-2.25,3.21a5.14,5.14,0,0,1,.79-.58A1.85,1.85,0,0,1,554.17,290.38Z" transform="translate(-337.19 -32.5)"/><path d="M491,323.79a1,1,0,0,1,.79.54,2.64,2.64,0,0,1,.29,1.34,6.67,6.67,0,0,1-.49,2.39,9.62,9.62,0,0,1-1.34,2.37,8,8,0,0,1-1.86,1.79l-.07-.34a8.12,8.12,0,0,0,1.6-1.95,5.64,5.64,0,0,0,.72-2.11,5.18,5.18,0,0,1-1.39,1.26,1.6,1.6,0,0,1-.92.27.8.8,0,0,1-.63-.36,1.56,1.56,0,0,1-.24-.93,3.89,3.89,0,0,1,.32-1.44,5.29,5.29,0,0,1,.86-1.46,4.43,4.43,0,0,1,1.23-1.08A1.79,1.79,0,0,1,491,323.79Zm-1.72,3.62a1.76,1.76,0,0,0,1.39-.23,3.12,3.12,0,0,0-.23-1.24,1.18,1.18,0,0,0-.62-.64,1.14,1.14,0,0,0-.91.08,4.12,4.12,0,0,0-.14,1Q488.74,327.22,489.25,327.41Z" transform="translate(-337.19 -32.5)"/><path d="M523,342.82a.81.81,0,0,1,.64.31,1.4,1.4,0,0,1,.23.86,4,4,0,0,1-.3,1.43,5.56,5.56,0,0,1-.83,1.43,4.25,4.25,0,0,1-1.2,1.06,2,2,0,0,1-1.16.32,1.06,1.06,0,0,1-.82-.53,2.5,2.5,0,0,1-.3-1.33,6.46,6.46,0,0,1,.49-2.39,9.24,9.24,0,0,1,1.33-2.37,7.87,7.87,0,0,1,1.87-1.79l.06.34a8.15,8.15,0,0,0-1.62,2,5.33,5.33,0,0,0-.7,2.15,8.47,8.47,0,0,1,.67-.67,5.11,5.11,0,0,1,.71-.52A1.85,1.85,0,0,1,523,342.82Zm-2.1,3.29a1,1,0,0,0,1.52.55,3.72,3.72,0,0,0,.15-1c0-.55-.17-.89-.51-1a1.75,1.75,0,0,0-1.4.24A3.05,3.05,0,0,0,520.85,346.11Z" transform="translate(-337.19 -32.5)"/><path d="M391.6,300.42c.71.58,1.41,1.17,2.13,1.74a11.7,11.7,0,0,0,1.12.81c.42.27.73.25.94-.08.6-.9,1.58-.83,2.77-.06a6.25,6.25,0,0,1,2.58,3.64.54.54,0,0,0,.35.44q4.61,2.08,9.23,4.21c1.3.59,2.61,1.17,3.91,1.79a4,4,0,0,1,.79.58l7.86,6.8c.13.11.34.34.34.43s-.22.06-.35,0l-8.36-2.44a1.26,1.26,0,0,1-.35-.17l-13.2-8.9c-.08-.06-.23-.09-.25,0-.33.74-1,.84-1.79.7a4.71,4.71,0,0,1-3-2.38,5.57,5.57,0,0,1-.42-.89,2.19,2.19,0,0,0-1.18-1.41c-.64-.24-1.27-.4-1.92-.64-.5-.18-1-.44-1.52-.67a.66.66,0,0,1-.3-.41,3.37,3.37,0,0,1,0-3.15C391.11,300.22,391.19,300.23,391.6,300.42Zm8.07,6.46a2.87,2.87,0,0,0-1.29-2.23c-.71-.42-1.3-.09-1.31.71a2.87,2.87,0,0,0,1.3,2.26C399.08,308,399.67,307.69,399.67,306.88Z" transform="translate(-337.19 -32.5)"/><path d="M407.58,302.4l-6.79,3.24c-.16.07-.17.19-.09.45.81,2.51-.24,4.3-2.13,3.59a4.25,4.25,0,0,1-1.74-1.24c-.07-.08-.23-.15-.28-.12a2.44,2.44,0,0,0-.62.49c-.4.45-.75.95-1.15,1.4a2.81,2.81,0,0,1-.7.5c-.07,0-.21,0-.3-.09a7,7,0,0,1-2.1-3.72c0-.1,0-.24.1-.25a8.85,8.85,0,0,1,1.27-.21c.44,0,.92,0,1.36,0a2.4,2.4,0,0,0,.74-.25c.15-.06.16-.21.09-.48a3.29,3.29,0,0,1,.06-2.8,1.77,1.77,0,0,1,2.42-.56,4.78,4.78,0,0,1,1.5,1.26c.2.23.32.25.47.15,3.81-2.57,7.65-5.11,11.44-7.72a12,12,0,0,1,3.16-1.37l6.9-2.26c.29-.09.57-.19.86-.27a.72.72,0,0,1,.19,0c0,.08,0,.18,0,.22a34.07,34.07,0,0,1-4,3.69c-1.22,1-2.4,2-3.63,2.93a7.4,7.4,0,0,1-1.45.76Zm-10.11,2.53c-.19.11-.39.21-.58.33s-.23.74.08,1.3.8.9,1.07.76a12.55,12.55,0,0,0,1.19-.67c.27-.18.21-.76-.12-1.32s-.79-.86-1.09-.72S397.66,304.82,397.47,304.93Z" transform="translate(-337.19 -32.5)"/><path d="M397.16,269.42l.5.26,0-5.53-.51-.16-.09-.4,2,.55.12.31,0,6.07.5.32v.35l-2.45-1.42Z" transform="translate(-337.19 -32.5)"/><path d="M403.53,271.36l.28.16v2.1L400,271.41l.08-1.38a3.69,3.69,0,0,0,2-.08,1.09,1.09,0,0,0,.7-1.07,1.49,1.49,0,0,0-.27-.83,1.93,1.93,0,0,0-.71-.65,3,3,0,0,0-.71-.31,2,2,0,0,0-.67-.07l0,.44-.28-.12-.23-2.1a2.39,2.39,0,0,1,1,.09,4.81,4.81,0,0,1,1.2.49,4,4,0,0,1,1.34,1.23,2.73,2.73,0,0,1,.51,1.58,1.83,1.83,0,0,1-.48,1.32,2.3,2.3,0,0,1-1.22.65,3.5,3.5,0,0,1-1.51,0l2.66,1.14Z" transform="translate(-337.19 -32.5)"/><path d="M433,324.34a3.45,3.45,0,0,1,.59.94,2.54,2.54,0,0,1,.21,1,1.4,1.4,0,0,1-.33,1,1.15,1.15,0,0,1-.91.36,2.83,2.83,0,0,1-1.35-.44,5.13,5.13,0,0,1-.71-.5,5.86,5.86,0,0,1-.62-.59l.4-1a15.13,15.13,0,0,0,2.22,2.14,2.33,2.33,0,0,0,.08-.62A2.49,2.49,0,0,0,432,325a5.56,5.56,0,0,0-1.75-1.38v-.31l2-1.07-2-.76,0,.38-.28-.16v-2.16l3.57,2.06v1.08l-2.16.59a3,3,0,0,1,.76.32A3.19,3.19,0,0,1,433,324.34Z" transform="translate(-337.19 -32.5)"/><path d="M372.07,286.2a5,5,0,0,1,1,3,3.06,3.06,0,0,1-.47,1.77,1.89,1.89,0,0,1-1.29.79,3.07,3.07,0,0,1-1.8-.35l-.06-.4a2,2,0,0,0,1.54-.1,1.57,1.57,0,0,0,.69-1.24,2.16,2.16,0,0,1-1.34-.33,3.13,3.13,0,0,1-.88-.76,4,4,0,0,1-.62-1.06,3.3,3.3,0,0,1-.22-1.15,1.71,1.71,0,0,1,.3-1,1.07,1.07,0,0,1,.84-.44,2.1,2.1,0,0,1,1.19.33A3.78,3.78,0,0,1,372.07,286.2Zm-1.66,1.57a4.47,4.47,0,0,0,1.34,1.33,5.27,5.27,0,0,0-.22-1.46,5.34,5.34,0,0,0-.6-1.3,3.25,3.25,0,0,0-.87-.93,2.22,2.22,0,0,0-.14.79A2.82,2.82,0,0,0,370.41,287.77Z" transform="translate(-337.19 -32.5)"/><path d="M402.89,340.13a3.93,3.93,0,0,1,.62,1,2.79,2.79,0,0,1,.22,1.09,1.71,1.71,0,0,1-.29,1,1.09,1.09,0,0,1-.8.46,1.93,1.93,0,0,1-1.15-.31,4,4,0,0,1-1.13-1,5.36,5.36,0,0,1-.79-1.43,4.71,4.71,0,0,1-.28-1.61,2.93,2.93,0,0,1,.47-1.76,1.86,1.86,0,0,1,1.29-.8,3,3,0,0,1,1.79.35l.06.4a2,2,0,0,0-1.56.12,1.6,1.6,0,0,0-.67,1.29,3.22,3.22,0,0,1,.65.1,3,3,0,0,1,.67.29A3.36,3.36,0,0,1,402.89,340.13Zm-2,.83a4.75,4.75,0,0,0,.6,1.31,3.33,3.33,0,0,0,.86.92,2,2,0,0,0,.14-.8,2.87,2.87,0,0,0-.48-1.55,4.48,4.48,0,0,0-1.35-1.32A5.15,5.15,0,0,0,400.87,341Z" transform="translate(-337.19 -32.5)"/></svg>