<?xml version="1.0" encoding="iso-8859-1"?>
<!-- Generator: Adobe Illustrator 22.0.0, SVG Export Plug-In . SVG Version: 6.00 Build 0)  -->
<svg version="1.1" xmlns="http://www.w3.org/2000/svg" xmlns:xlink="http://www.w3.org/1999/xlink" x="0px" y="0px"
	 viewBox="0 0 1000 800" style="enable-background:new 0 0 1000 800;" xml:space="preserve">
<g id="Capa_1" style="display:none;">
	<image style="overflow:visible;" width="386" height="522" xlink:href="68A96CBC.jpg"  transform="matrix(1 0 0 1 307 139)">
	</image>
	<g style="opacity:0.99;">
		<polygon style="display:inline;fill:none;stroke:#000000;stroke-miterlimit:10;" points="-61.94,451 549,145.53 1159.94,451 
			549,756.47 		"/>
		
			<line style="display:inline;fill:none;stroke:#000000;stroke-miterlimit:10;" x1="519.908" y1="741.924" x2="1130.848" y2="436.454"/>
		
			<line style="display:inline;fill:none;stroke:#000000;stroke-miterlimit:10;" x1="490.815" y1="727.378" x2="1101.755" y2="421.908"/>
		
			<line style="display:inline;fill:none;stroke:#000000;stroke-miterlimit:10;" x1="461.723" y1="712.832" x2="1072.663" y2="407.361"/>
		
			<line style="display:inline;fill:none;stroke:#000000;stroke-miterlimit:10;" x1="432.63" y1="698.285" x2="1043.571" y2="392.815"/>
		
			<line style="display:inline;fill:none;stroke:#000000;stroke-miterlimit:10;" x1="403.538" y1="683.739" x2="1014.478" y2="378.269"/>
		
			<line style="display:inline;fill:none;stroke:#000000;stroke-miterlimit:10;" x1="374.446" y1="669.193" x2="985.386" y2="363.723"/>
		
			<line style="display:inline;fill:none;stroke:#000000;stroke-miterlimit:10;" x1="345.353" y1="654.647" x2="956.294" y2="349.177"/>
		
			<line style="display:inline;fill:none;stroke:#000000;stroke-miterlimit:10;" x1="316.261" y1="640.101" x2="927.201" y2="334.63"/>
		
			<line style="display:inline;fill:none;stroke:#000000;stroke-miterlimit:10;" x1="287.168" y1="625.554" x2="898.109" y2="320.084"/>
		
			<line style="display:inline;fill:none;stroke:#000000;stroke-miterlimit:10;" x1="258.076" y1="611.008" x2="869.016" y2="305.538"/>
		
			<line style="display:inline;fill:none;stroke:#000000;stroke-miterlimit:10;" x1="228.984" y1="596.462" x2="839.924" y2="290.992"/>
		
			<line style="display:inline;fill:none;stroke:#000000;stroke-miterlimit:10;" x1="199.891" y1="581.916" x2="810.832" y2="276.446"/>
		
			<line style="display:inline;fill:none;stroke:#000000;stroke-miterlimit:10;" x1="170.799" y1="567.37" x2="781.739" y2="261.899"/>
		
			<line style="display:inline;fill:none;stroke:#000000;stroke-miterlimit:10;" x1="141.706" y1="552.823" x2="752.647" y2="247.353"/>
		
			<line style="display:inline;fill:none;stroke:#000000;stroke-miterlimit:10;" x1="112.614" y1="538.277" x2="723.554" y2="232.807"/>
		
			<line style="display:inline;fill:none;stroke:#000000;stroke-miterlimit:10;" x1="83.522" y1="523.731" x2="694.462" y2="218.261"/>
		
			<line style="display:inline;fill:none;stroke:#000000;stroke-miterlimit:10;" x1="54.429" y1="509.185" x2="665.37" y2="203.715"/>
		
			<line style="display:inline;fill:none;stroke:#000000;stroke-miterlimit:10;" x1="25.337" y1="494.639" x2="636.277" y2="189.168"/>
		
			<line style="display:inline;fill:none;stroke:#000000;stroke-miterlimit:10;" x1="-3.755" y1="480.092" x2="607.185" y2="174.622"/>
		
			<line style="display:inline;fill:none;stroke:#000000;stroke-miterlimit:10;" x1="-32.848" y1="465.546" x2="578.092" y2="160.076"/>
		
			<line style="display:inline;fill:none;stroke:#000000;stroke-miterlimit:10;" x1="519.908" y1="160.076" x2="1130.848" y2="465.546"/>
		
			<line style="display:inline;fill:none;stroke:#000000;stroke-miterlimit:10;" x1="490.815" y1="174.622" x2="1101.755" y2="480.092"/>
		
			<line style="display:inline;fill:none;stroke:#000000;stroke-miterlimit:10;" x1="461.723" y1="189.168" x2="1072.663" y2="494.639"/>
		
			<line style="display:inline;fill:none;stroke:#000000;stroke-miterlimit:10;" x1="432.63" y1="203.715" x2="1043.571" y2="509.185"/>
		
			<line style="display:inline;fill:none;stroke:#000000;stroke-miterlimit:10;" x1="403.538" y1="218.261" x2="1014.478" y2="523.731"/>
		
			<line style="display:inline;fill:none;stroke:#000000;stroke-miterlimit:10;" x1="374.446" y1="232.807" x2="985.386" y2="538.277"/>
		
			<line style="display:inline;fill:none;stroke:#000000;stroke-miterlimit:10;" x1="345.353" y1="247.353" x2="956.294" y2="552.823"/>
		
			<line style="display:inline;fill:none;stroke:#000000;stroke-miterlimit:10;" x1="316.261" y1="261.899" x2="927.201" y2="567.37"/>
		
			<line style="display:inline;fill:none;stroke:#000000;stroke-miterlimit:10;" x1="287.168" y1="276.446" x2="898.109" y2="581.916"/>
		
			<line style="display:inline;fill:none;stroke:#000000;stroke-miterlimit:10;" x1="258.076" y1="290.992" x2="869.016" y2="596.462"/>
		
			<line style="display:inline;fill:none;stroke:#000000;stroke-miterlimit:10;" x1="228.984" y1="305.538" x2="839.924" y2="611.008"/>
		
			<line style="display:inline;fill:none;stroke:#000000;stroke-miterlimit:10;" x1="199.891" y1="320.084" x2="810.832" y2="625.554"/>
		
			<line style="display:inline;fill:none;stroke:#000000;stroke-miterlimit:10;" x1="170.799" y1="334.63" x2="781.739" y2="640.101"/>
		
			<line style="display:inline;fill:none;stroke:#000000;stroke-miterlimit:10;" x1="141.706" y1="349.177" x2="752.647" y2="654.647"/>
		
			<line style="display:inline;fill:none;stroke:#000000;stroke-miterlimit:10;" x1="112.614" y1="363.723" x2="723.554" y2="669.193"/>
		
			<line style="display:inline;fill:none;stroke:#000000;stroke-miterlimit:10;" x1="83.522" y1="378.269" x2="694.462" y2="683.739"/>
		
			<line style="display:inline;fill:none;stroke:#000000;stroke-miterlimit:10;" x1="54.429" y1="392.815" x2="665.37" y2="698.285"/>
		
			<line style="display:inline;fill:none;stroke:#000000;stroke-miterlimit:10;" x1="25.337" y1="407.361" x2="636.277" y2="712.832"/>
		
			<line style="display:inline;fill:none;stroke:#000000;stroke-miterlimit:10;" x1="-3.755" y1="421.908" x2="607.185" y2="727.378"/>
		
			<line style="display:inline;fill:none;stroke:#000000;stroke-miterlimit:10;" x1="-32.848" y1="436.454" x2="578.092" y2="741.924"/>
	</g>
	<g style="opacity:0.99;">
		<rect x="-556" y="-70" style="display:inline;fill:none;stroke:#000000;stroke-miterlimit:10;" width="432" height="432"/>
		<line style="display:inline;fill:none;stroke:#000000;stroke-miterlimit:10;" x1="-556" y1="341.429" x2="-124" y2="341.429"/>
		<line style="display:inline;fill:none;stroke:#000000;stroke-miterlimit:10;" x1="-556" y1="320.857" x2="-124" y2="320.857"/>
		<line style="display:inline;fill:none;stroke:#000000;stroke-miterlimit:10;" x1="-556" y1="300.286" x2="-124" y2="300.286"/>
		<line style="display:inline;fill:none;stroke:#000000;stroke-miterlimit:10;" x1="-556" y1="279.714" x2="-124" y2="279.714"/>
		<line style="display:inline;fill:none;stroke:#000000;stroke-miterlimit:10;" x1="-556" y1="259.143" x2="-124" y2="259.143"/>
		<line style="display:inline;fill:none;stroke:#000000;stroke-miterlimit:10;" x1="-556" y1="238.571" x2="-124" y2="238.571"/>
		<line style="display:inline;fill:none;stroke:#000000;stroke-miterlimit:10;" x1="-556" y1="218" x2="-124" y2="218"/>
		<line style="display:inline;fill:none;stroke:#000000;stroke-miterlimit:10;" x1="-556" y1="197.429" x2="-124" y2="197.429"/>
		<line style="display:inline;fill:none;stroke:#000000;stroke-miterlimit:10;" x1="-556" y1="176.857" x2="-124" y2="176.857"/>
		<line style="display:inline;fill:none;stroke:#000000;stroke-miterlimit:10;" x1="-556" y1="156.286" x2="-124" y2="156.286"/>
		<line style="display:inline;fill:none;stroke:#000000;stroke-miterlimit:10;" x1="-556" y1="135.714" x2="-124" y2="135.714"/>
		<line style="display:inline;fill:none;stroke:#000000;stroke-miterlimit:10;" x1="-556" y1="115.143" x2="-124" y2="115.143"/>
		<line style="display:inline;fill:none;stroke:#000000;stroke-miterlimit:10;" x1="-556" y1="94.571" x2="-124" y2="94.571"/>
		<line style="display:inline;fill:none;stroke:#000000;stroke-miterlimit:10;" x1="-556" y1="74" x2="-124" y2="74"/>
		<line style="display:inline;fill:none;stroke:#000000;stroke-miterlimit:10;" x1="-556" y1="53.429" x2="-124" y2="53.429"/>
		<line style="display:inline;fill:none;stroke:#000000;stroke-miterlimit:10;" x1="-556" y1="32.857" x2="-124" y2="32.857"/>
		<line style="display:inline;fill:none;stroke:#000000;stroke-miterlimit:10;" x1="-556" y1="12.286" x2="-124" y2="12.286"/>
		<line style="display:inline;fill:none;stroke:#000000;stroke-miterlimit:10;" x1="-556" y1="-8.286" x2="-124" y2="-8.286"/>
		<line style="display:inline;fill:none;stroke:#000000;stroke-miterlimit:10;" x1="-556" y1="-28.857" x2="-124" y2="-28.857"/>
		<line style="display:inline;fill:none;stroke:#000000;stroke-miterlimit:10;" x1="-556" y1="-49.429" x2="-124" y2="-49.429"/>
		<line style="display:inline;fill:none;stroke:#000000;stroke-miterlimit:10;" x1="-144.571" y1="-70" x2="-144.571" y2="362"/>
		<line style="display:inline;fill:none;stroke:#000000;stroke-miterlimit:10;" x1="-165.143" y1="-70" x2="-165.143" y2="362"/>
		<line style="display:inline;fill:none;stroke:#000000;stroke-miterlimit:10;" x1="-185.714" y1="-70" x2="-185.714" y2="362"/>
		<line style="display:inline;fill:none;stroke:#000000;stroke-miterlimit:10;" x1="-206.286" y1="-70" x2="-206.286" y2="362"/>
		<line style="display:inline;fill:none;stroke:#000000;stroke-miterlimit:10;" x1="-226.857" y1="-70" x2="-226.857" y2="362"/>
		<line style="display:inline;fill:none;stroke:#000000;stroke-miterlimit:10;" x1="-247.429" y1="-70" x2="-247.429" y2="362"/>
		<line style="display:inline;fill:none;stroke:#000000;stroke-miterlimit:10;" x1="-268" y1="-70" x2="-268" y2="362"/>
		<line style="display:inline;fill:none;stroke:#000000;stroke-miterlimit:10;" x1="-288.571" y1="-70" x2="-288.571" y2="362"/>
		<line style="display:inline;fill:none;stroke:#000000;stroke-miterlimit:10;" x1="-309.143" y1="-70" x2="-309.143" y2="362"/>
		<line style="display:inline;fill:none;stroke:#000000;stroke-miterlimit:10;" x1="-329.714" y1="-70" x2="-329.714" y2="362"/>
		<line style="display:inline;fill:none;stroke:#000000;stroke-miterlimit:10;" x1="-350.286" y1="-70" x2="-350.286" y2="362"/>
		<line style="display:inline;fill:none;stroke:#000000;stroke-miterlimit:10;" x1="-370.857" y1="-70" x2="-370.857" y2="362"/>
		<line style="display:inline;fill:none;stroke:#000000;stroke-miterlimit:10;" x1="-391.429" y1="-70" x2="-391.429" y2="362"/>
		<line style="display:inline;fill:none;stroke:#000000;stroke-miterlimit:10;" x1="-412" y1="-70" x2="-412" y2="362"/>
		<line style="display:inline;fill:none;stroke:#000000;stroke-miterlimit:10;" x1="-432.571" y1="-70" x2="-432.571" y2="362"/>
		<line style="display:inline;fill:none;stroke:#000000;stroke-miterlimit:10;" x1="-453.143" y1="-70" x2="-453.143" y2="362"/>
		<line style="display:inline;fill:none;stroke:#000000;stroke-miterlimit:10;" x1="-473.714" y1="-70" x2="-473.714" y2="362"/>
		<line style="display:inline;fill:none;stroke:#000000;stroke-miterlimit:10;" x1="-494.286" y1="-70" x2="-494.286" y2="362"/>
		<line style="display:inline;fill:none;stroke:#000000;stroke-miterlimit:10;" x1="-514.857" y1="-70" x2="-514.857" y2="362"/>
		<line style="display:inline;fill:none;stroke:#000000;stroke-miterlimit:10;" x1="-535.429" y1="-70" x2="-535.429" y2="362"/>
	</g>
</g>
<g id="Capa_2">
	<g id="Paleta" style="display:none;">
		<path style="display:inline;fill:#FFEAFE;" d="M-288,765L-288,765c-17.05,0-31-13.95-31-31v0c0-17.05,13.95-31,31-31h0
			c17.05,0,31,13.95,31,31v0C-257,751.05-270.95,765-288,765z"/>
		<path style="display:inline;fill:#4007BA;" d="M-288,696L-288,696c-17.05,0-31-13.95-31-31v0c0-17.05,13.95-31,31-31h0
			c17.05,0,31,13.95,31,31v0C-257,682.05-270.95,696-288,696z"/>
		<path style="display:inline;fill:#9EA9F0;" d="M-288,627L-288,627c-17.05,0-31-13.95-31-31v0c0-17.05,13.95-31,31-31h0
			c17.05,0,31,13.95,31,31v0C-257,613.05-270.95,627-288,627z"/>
		<path style="display:inline;fill:#553C8B;" d="M-288,560L-288,560c-17.05,0-31-13.95-31-31v0c0-17.05,13.95-31,31-31h0
			c17.05,0,31,13.95,31,31v0C-257,546.05-270.95,560-288,560z"/>
		<circle style="display:inline;fill:#211835;" cx="-288" cy="453" r="31"/>
	</g>
	<path style="display:none;fill:#362261;" d="M364.86,409.74c-49.874-92.765-86.144-174.846-114.66-203.272
		C161.178,117.726,50.699,96.25,0,90V48h1000v593c-79.333,12-328.082,14.775-434-17c-50-15-83.81-41.516-103-64
		C423.515,513.737,415,503,364.86,409.74z"/>
	<polygon style="display:none;fill:#FFEAFE;" points="578.706,212.269 782.353,314.092 840.538,285 636.891,183.177 	"/>
	<polygon style="display:none;fill:#9EA9F0;" points="418.706,277.361 680.538,146.446 767.815,190.084 505.984,321 	"/>
	<polygon style="display:none;fill:#553C8B;" points="-223.924,630.084 -49.37,717.361 67,659.177 -107.554,571.899 	"/>
	<g style="display:none;">
		<linearGradient id="SVGID_1_" gradientUnits="userSpaceOnUse" x1="704.691" y1="-145.3657" x2="1118.772" y2="268.7152">
			<stop  offset="0.0358" style="stop-color:#9EA9F0"/>
			<stop  offset="1" style="stop-color:#9EA9F0;stop-opacity:0"/>
		</linearGradient>
		<path style="display:inline;fill:url(#SVGID_1_);" d="M1160-11c-109.584,1.83-224.575-58.61-249-114
			c-2.596-5.886-8.891-22.424-25-37c-25.085-22.698-57.354-25.606-69-26c-54.164-1.83-106.104,35.737-124,81
			c-9.861,24.94-0.324,29.298-10,51c-18.845,42.267-63.644,45.083-123,79c-32.13,18.359-111.113,63.492-109,113
			c1.895,44.385,68.544,82.291,123,94c73.305,15.761,97.022-21.861,203-27c103.446-5.017,104.985,29.658,174,16
			c100.858-19.96,86.868-91.897,209-131c55.416-17.742,109.346-40.731,166-54c16.231-3.801,48.66-10.9,55-32
			c4.314-14.357-4.487-31.748-14-41C1331.462-73.562,1267.221-12.79,1160-11z"/>
		<path style="display:inline;fill:#FFEAFE;" d="M1022.198-153.633c49.813-4.325,81.383-42.537,87.811-71.612
			c8.882-40.172-44.173-84.749-51.752-91.118c-67.482-56.699-167.414-21.144-187.501-15.867
			c-78.347,20.582-183.891,87.118-202.723,199.302C644.016,10.146,772.408,159.728,866.62,151.481
			c42.197-3.693,79.914-20.503,94.528-72.087C976.816,24.088,829.426-136.896,1022.198-153.633z"/>
		<path style="display:inline;fill:#9EA9F0;" d="M796-35c-16.514-24.642-103.546,6.799-146,42c-9.275,7.69-19.005,17.702-21,32
			c-2.411,17.277,7.079,36.452,21,45c33.885,20.807,89.18-24.312,96-30C774.735,30.033,808.79-15.915,796-35z"/>
		<path style="display:inline;fill:#CCC1FF;" d="M714,148c-6.552,35.905,108.054,81.49,179,90c11.136,1.336,43.158,4.392,51-10
			c4.91-9.011-3.498-17.818-3-44c0.353-18.586,4.722-21.063,3-29c-6.415-29.574-76.354-38.028-85-39
			C805.415,109.974,719.432,118.236,714,148z"/>
		<path style="display:inline;fill:none;stroke:#CCC1FF;stroke-width:2;stroke-miterlimit:10;" d="M721,132
			c-6.552,35.905,108.054,81.49,179,90c11.136,1.336,43.158,4.392,51-10c4.91-9.011-3.498-17.818-3-44
			c0.353-18.586,4.722-21.063,3-29c-6.415-29.574-76.354-38.028-85-39C812.415,93.974,726.432,102.236,721,132z"/>
		<path style="display:inline;fill:none;stroke:#9EA9F0;stroke-width:2;stroke-miterlimit:10;" d="M786-43
			c-16.514-24.642-103.546,6.799-146,42c-9.275,7.69-19.005,17.702-21,32c-2.411,17.277,7.079,36.452,21,45
			c33.885,20.807,89.18-24.312,96-30C764.735,22.033,798.79-23.915,786-43z"/>
		<path style="display:inline;fill:none;stroke:#CCC1FF;stroke-width:2;stroke-miterlimit:10;" d="M707,53
			c-89.248-33.05-131.185-22.434-136-41c-7.341-28.308,82.771-81.459,164-109c41.684-14.133,39.073-7.297,110-25
			c123.814-30.903,147.126-55.568,225-58c52.385-1.636,107.623,7.471,109,21c2,19.652-113.172,13.979-178,94
			c-44.974,55.514-22.027,98.338-71,133c-52.092,36.87-125.257,21.826-139,19C757.877,80.189,757.431,71.676,707,53z"/>
	</g>
	<linearGradient id="SVGID_2_" gradientUnits="userSpaceOnUse" x1="391.9522" y1="590.4887" x2="308.8006" y2="777.2503">
		<stop  offset="3.954259e-07" style="stop-color:#000000"/>
		<stop  offset="1" style="stop-color:#000000;stop-opacity:0"/>
	</linearGradient>
	<path style="display:none;fill:url(#SVGID_2_);" d="M160,711c183-77,288.806-88.786,347-69c50,17,37.398,77.983-146,139"/>
	<linearGradient id="SVGID_3_" gradientUnits="userSpaceOnUse" x1="399.8719" y1="697.0087" x2="508.1281" y2="414.9913">
		<stop  offset="5.908129e-07" style="stop-color:#2A2B5E"/>
		<stop  offset="0.1565" style="stop-color:#37306B"/>
		<stop  offset="0.4911" style="stop-color:#4D3982"/>
		<stop  offset="0.7008" style="stop-color:#553C8B"/>
		<stop  offset="0.9748" style="stop-color:#6A4BAF"/>
	</linearGradient>
	<circle style="display:none;fill:url(#SVGID_3_);" cx="454" cy="556" r="151"/>
	<path style="display:none;fill:#211835;" d="M498.123,572H289.877C271.245,572,256,556.755,256,538.123V106.877
		C256,88.245,271.245,73,289.877,73h208.246C516.755,73,532,88.245,532,106.877v431.246C532,556.755,516.755,572,498.123,572z"/>
	<g style="display:none;">
		<linearGradient id="SVGID_4_" gradientUnits="userSpaceOnUse" x1="74.259" y1="108.5353" x2="159.9345" y2="226.4576">
			<stop  offset="3.954259e-07" style="stop-color:#553C8B"/>
			<stop  offset="0.0276" style="stop-color:#5D3F8C;stop-opacity:0.9688"/>
			<stop  offset="0.2477" style="stop-color:#965498;stop-opacity:0.7195"/>
			<stop  offset="0.4509" style="stop-color:#C365A0;stop-opacity:0.4893"/>
			<stop  offset="0.631" style="stop-color:#E471A7;stop-opacity:0.2854"/>
			<stop  offset="0.7811" style="stop-color:#F878AB;stop-opacity:0.1153"/>
			<stop  offset="0.8829" style="stop-color:#FF7BAC;stop-opacity:0"/>
		</linearGradient>
		<path style="display:inline;fill:url(#SVGID_4_);" d="M-28,363c4.22-35.737-11-164,76-235
			c107.087-87.393,281.69-42.285,298-40.657"/>
		<linearGradient id="SVGID_5_" gradientUnits="userSpaceOnUse" x1="42.0679" y1="13.4575" x2="198.4923" y2="228.7572">
			<stop  offset="3.954259e-07" style="stop-color:#9EA9F0"/>
			<stop  offset="0.2514" style="stop-color:#C497D6;stop-opacity:0.7152"/>
			<stop  offset="0.5137" style="stop-color:#E488BF;stop-opacity:0.4182"/>
			<stop  offset="0.7337" style="stop-color:#F87EB1;stop-opacity:0.169"/>
			<stop  offset="0.8829" style="stop-color:#FF7BAC;stop-opacity:0"/>
		</linearGradient>
		<path style="display:inline;fill:url(#SVGID_5_);" d="M311.93,146.34C290.83,88.39,235.25,47,170,47C86.61,47,19,114.61,19,198
			c0,38.53,14.43,73.69,38.19,100.37C6.27,269-28,214-28,151c0-93.89,76.11-170,170-170C234.33-19,309.47,54.61,311.93,146.34z"/>
		<linearGradient id="SVGID_6_" gradientUnits="userSpaceOnUse" x1="81.2396" y1="75.8317" x2="237.9075" y2="291.4666">
			<stop  offset="3.954259e-07" style="stop-color:#9EA9F0"/>
			<stop  offset="0.2514" style="stop-color:#C497D6;stop-opacity:0.7152"/>
			<stop  offset="0.5137" style="stop-color:#E488BF;stop-opacity:0.4182"/>
			<stop  offset="0.7337" style="stop-color:#F87EB1;stop-opacity:0.169"/>
			<stop  offset="0.8829" style="stop-color:#FF7BAC;stop-opacity:0"/>
		</linearGradient>
		<path style="display:inline;fill:url(#SVGID_6_);" d="M312,151c0,93.89-76.11,170-170,170c-30.88,0-59.84-8.24-84.81-22.63
			C33.43,271.69,19,236.53,19,198c0-83.39,67.61-151,151-151c65.25,0,120.83,41.39,141.93,99.34C311.98,147.89,312,149.44,312,151z"
			/>
		<linearGradient id="SVGID_7_" gradientUnits="userSpaceOnUse" x1="176.702" y1="211.5394" x2="256.7086" y2="321.659">
			<stop  offset="3.954259e-07" style="stop-color:#9EA9F0"/>
			<stop  offset="0.2514" style="stop-color:#C497D6;stop-opacity:0.7152"/>
			<stop  offset="0.5137" style="stop-color:#E488BF;stop-opacity:0.4182"/>
			<stop  offset="0.7337" style="stop-color:#F87EB1;stop-opacity:0.169"/>
			<stop  offset="0.8829" style="stop-color:#FF7BAC;stop-opacity:0"/>
		</linearGradient>
		<path style="display:inline;fill:url(#SVGID_7_);" d="M321,198c0,83.39-67.61,151-151,151c-44.86,0-85.15-19.57-112.81-50.63
			C82.16,312.76,111.12,321,142,321c93.89,0,170-76.11,170-170c0-1.56-0.02-3.11-0.07-4.66C317.8,162.46,321,179.85,321,198z"/>
	</g>
	
		<image style="display:none;overflow:visible;" width="62" height="24" xlink:href="68A96CBD.jpg"  transform="matrix(1 0 0 1 377 695)">
	</image>
	<linearGradient id="SVGID_8_" gradientUnits="userSpaceOnUse" x1="464.1859" y1="511.3308" x2="542.5264" y2="172.0013">
		<stop  offset="0" style="stop-color:#CCC1FF"/>
		<stop  offset="0.4707" style="stop-color:#CCC1FF;stop-opacity:0.27"/>
		<stop  offset="0.8992" style="stop-color:#CCC1FF;stop-opacity:0"/>
	</linearGradient>
	<path style="display:none;opacity:0.16;fill:url(#SVGID_8_);" d="M94,75c27,13,26.367,12.874,99,55
		c43.725,25.36,72.466,53.001,93,73c54.194,52.782,69.439,105.672,105,163c41.583,67.036,77.98,109.945,134,145
		c3.592,2.247,17.563,10.861,37,19c107.042,44.822,215.011,6.225,229,1c29.39-10.978,127.271-47.537,170-148
		c18.925-44.494,20.204-85.472,19-110"/>
</g>
<g id="Capa_3">
	<rect x="99" y="17" style="display:none;fill:#CBD7FD;" width="1224" height="1237"/>
	
		<image style="display:none;overflow:visible;" width="332" height="133" xlink:href="68A96CBB.jpg"  transform="matrix(1 0 0 1 -233 211)">
	</image>
	<g id="base-id">
		<linearGradient id="SVGID_9_" gradientUnits="userSpaceOnUse" x1="496.0843" y1="483.3485" x2="575.9157" y2="72.6515">
			<stop  offset="0.4098" style="stop-color:#9BB4FE"/>
			<stop  offset="1" style="stop-color:#9BB4FE;stop-opacity:0"/>
		</linearGradient>
		<polygon style="fill:url(#SVGID_9_);" points="537.157,491.332 166.498,277.332 534.843,64.668 905.502,278.668 		"/>
		<linearGradient id="SVGID_10_" gradientUnits="userSpaceOnUse" x1="420.0961" y1="423.3405" x2="282.5027" y2="661.6594">
			<stop  offset="7.908519e-07" style="stop-color:#9BB4FE"/>
			<stop  offset="0.7366" style="stop-color:#9BB4FE;stop-opacity:0"/>
		</linearGradient>
		<polygon style="fill:url(#SVGID_10_);" points="536,807.165 165.599,594.165 166.599,277.835 537,490.835 		"/>
		<linearGradient id="SVGID_11_" gradientUnits="userSpaceOnUse" x1="652.3584" y1="418.1271" x2="790.2404" y2="666.8729">
			<stop  offset="7.908519e-07" style="stop-color:#9BB4FE"/>
			<stop  offset="0.7366" style="stop-color:#9BB4FE;stop-opacity:0"/>
		</linearGradient>
		<polygon style="fill:url(#SVGID_11_);" points="906,593.32 535.599,808.023 536.599,491.68 907,276.977 		"/>
	</g>
	<g id="ball-id">
		
			<radialGradient id="SVGID_12_" cx="1219.7567" cy="841.9904" r="140.8704" gradientTransform="matrix(-0.866 -0.5 1 -0.5774 762.3927 1382.2985)" gradientUnits="userSpaceOnUse">
			<stop  offset="3.954259e-07" style="stop-color:#000000"/>
			<stop  offset="0.9382" style="stop-color:#000000;stop-opacity:0"/>
		</radialGradient>
		<path style="opacity:0.77;fill:url(#SVGID_12_);" d="M417.273,210.797c71.771-41.437,188.501-41.226,260.723,0.471
			s72.588,109.092,0.816,150.529s-188.501,41.226-260.723-0.471S345.502,252.234,417.273,210.797z"/>
		<linearGradient id="SVGID_13_" gradientUnits="userSpaceOnUse" x1="493.8719" y1="305.0087" x2="602.1282" y2="22.9913">
			<stop  offset="0.035" style="stop-color:#270063"/>
			<stop  offset="0.4911" style="stop-color:#4007BA"/>
			<stop  offset="0.7363" style="stop-color:#541ED9"/>
			<stop  offset="1" style="stop-color:#6633F6"/>
		</linearGradient>
		<circle style="fill:url(#SVGID_13_);" cx="548" cy="164" r="151"/>
	</g>
	
		<image style="display:none;overflow:visible;" width="339" height="154" xlink:href="68A96CC4.jpg"  transform="matrix(1 0 0 1 -53 482)">
	</image>
	<rect x="4" y="431" style="display:none;fill:#BCBEED;" width="46" height="46"/>
	<rect x="59" y="431" style="display:none;fill:#C9D6FF;" width="45" height="45"/>
	<rect x="113" y="431" style="display:none;fill:#F4F2FF;" width="50" height="50"/>
	
		<image style="display:none;overflow:visible;" width="154" height="106" xlink:href="68A96CC7.jpg"  transform="matrix(1 0 0 1 40 506)">
	</image>
	<linearGradient id="SVGID_14_" gradientUnits="userSpaceOnUse" x1="-221" y1="762" x2="-110" y2="762">
		<stop  offset="0.035" style="stop-color:#270063"/>
		<stop  offset="0.4911" style="stop-color:#4007BA"/>
		<stop  offset="0.7363" style="stop-color:#541ED9"/>
		<stop  offset="1" style="stop-color:#6633F6"/>
	</linearGradient>
	<rect x="-221" y="649" style="display:none;fill:url(#SVGID_14_);" width="111" height="226"/>
</g>
</svg>
