<svg xmlns="http://www.w3.org/2000/svg" viewBox="0 0 120.92 136.49"><path d="M469.41,299a12.41,12.41,0,1,0,12.41,12.41A12.41,12.41,0,0,0,469.41,299Zm0,18.34a5.94,5.94,0,1,1,5.93-5.93A5.93,5.93,0,0,1,469.41,317.34Z" transform="translate(-457 -299)" style="fill:#1a1a1a"/><path d="M518.51,385.32c-5.17-9.78-15.39-28.51-20.51-37.76,1.08-1.08,9.72-6.48,9.72-6.48-1.08-7.55-2.16-11.87-2.16-11.87s-12.15,6.18-15.11,7.56C487.52,332,484,326,478.58,317.34l-9.71,3.24c4.32,7.55,9.11,15.41,12.94,21.6l-18.29,11.28c9.67,3.81,11.82,7.05,24.77-.51,10.79,19.43,10.79,19.43,19.43,35.61,7.27,13.63,7.55,23.74,0,32.37a19.73,19.73,0,0,1-27,0c-1.08,5.4-1.08,6.48-2.16,10.79C500.4,442.8,525,427.41,525.17,412,525.33,400.37,523.74,395.24,518.51,385.32Z" transform="translate(-457 -299)" style="fill:#1a1a1a"/><path d="M509,327.85c11.94-5.17,26.59-8.18,37,.15q15,12,13,31.62c-1.62,15.82-13,21.38-27.15,29.11-1.35-4-3.53-6.84-4.83-10.73,2.63-1.65,6.25-3.83,8.67-5.57,10.57-7.58,15.33-14.43,8.73-27-5.59-10.69-14.89-11-21.58-9.71-5.39,1.08-7.55,2.16-11.87,4.31C510.67,340.15,509.87,333.53,509,327.85Z" transform="translate(-457 -299)" style="fill:#1a1a1a"/><path d="M528.22,399.35c19.92,8.59,34.62,6.94,44.24-9.71,0,0,3.24,5.4,5.46,9.54a28.46,28.46,0,0,1-7.62,9.88c-5.39,4.32-18.39,8.87-29.13,6.48-9.71-2.16-11.87-3.24-11.87-3.24-.06-.61,0,0,0-5.39C529.3,404.08,528.32,400.5,528.22,399.35Z" transform="translate(-457 -299)" style="fill:#1a1a1a"/></svg>