<svg id="Capa_1" data-name="Capa 1" xmlns="http://www.w3.org/2000/svg" viewBox="0 0 900 419.76"><title>metroconce</title><path d="M0,302.33a304.78,304.78,0,0,0,79.26,0c18.2-2.43,29.3-3.91,43.46-10.23,14.57-6.49,18.61-12,46-28.12,15-8.87,22.55-13.3,28.12-15.34,23.55-8.64,43.95-2.79,69,2.55,15.8,3.38,54.64,11.64,86.93,12.79,53.84,1.92,56.25-17.18,107.38-15.34,14.55.51,40.4,7.16,92,20.45,70,17.9,71.59,21.48,89.48,20.45,19.23-1.07,42.65-9.25,89.49-25.56,31.57-11,34.67-13.48,48.58-17.9,26.43-8.41,65.83-15.57,120.16-7.67V343.23H0Z" transform="translate(0 -234.99)" style="fill:#e09397"/><rect y="104.43" width="900" height="49.63" style="fill:#e09397"/><path d="M0,270.73c48-5.11,80.81,2.12,102.23,10.22,10.22,3.89,17.1,7.67,30.67,10.23,31,5.93,40.28-5.12,71.56,0,22.67,3.63,22.08,10.07,40.89,10.22,18.15.15,24.51-5.75,46-7.67,18.65-1.66,31.38,1.2,40.89,2.56,39.21,5.59,63.18-9.13,112.46-17.89,50.86-9,91.59-5.11,120.12-2.56,66.93,6.29,62.84,20,115,20.45,57.4.53,69.9-15.93,115-5.11,13.24,3.17,31.44,9.2,61.34,12.77a358.55,358.55,0,0,0,43.45,2.56v46H0Z" transform="translate(0 -234.99)" style="fill:#c47688"/><rect y="113.53" width="900" height="118.9" style="fill:#c47688"/><path d="M882.14,307.27v-5.11H877v5.11h-7.65v51H859.18l-5.1-10.2-7.65,5.1-7.66-5.1V320s-23.26-15.3-45.92-15.3c-23.26,0-45.92,15.3-45.92,15.3v51h-15.3V350.64H724v17.85h-7.65V297.06H685.7v15.31H670.4V292h-7.66V279.2h-5.1V292l-17.86,10.2v53.58H611.72V292H599l-26.79,10.2v52.3L560.7,343V281.76H550.49v5.1h-5.1v-2.55h-5.1v2.55h-10.2V343h-23V308.54h-14l-3.82,3.83h-5.11v25.51h-15.3v-51H443.35V320H422.94V294.51h-5.1V279.2H397.43v15.31H379.57v38.27H364.26v25.51H346.4V325.13h-7.65V320H305.59V269H272.42v56.13h-7.65V307.27H244.36V320H229.05v5.11h-10.2V343H183.13V294.51H178v-7.65H157.62v-5.1H144.86V292h-5.1v12.76H127v5.1h-2.56v58.67h-5.1V327.68h-10.2V292H83.64v7.65H70.88v68.88H68.33V299.61H36.44v34.44l-6.38,6.38H25V304.72l-5.1-5.11H2V593H900V307.27ZM12.2,304.72h5.11v2.55H12.2Zm0,30.61h5.11v2.55H12.2Zm-2.55-2.55v-2.55h5.11v2.55Zm2.55-5.1v-2.55h5.11v2.55Zm-2.55-5.11V320h5.11v2.55Zm2.55-5.1v-2.55h5.11v2.55Zm-2.55-5.1v-2.55h5.11v2.55Zm-5.1-7.65h5.1v2.55H4.55Zm0,5.1H7.1v2.55H4.55Zm0,5.1h5.1v2.55H4.55Zm0,5.1H7.1v2.55H4.55Zm0,5.11h5.1v2.55H4.55Zm0,5.1H7.1v2.55H4.55Zm0,5.1h5.1v2.55H4.55ZM7.1,343H4.55v-2.55H7.1Zm7.66,0H9.65v-2.55h5.11Zm7.65,0h-5.1v-2.55h5.1Zm0-5.1H19.86v-2.55h2.55Zm0-5.1h-5.1v-2.55h5.1Zm0-5.1H19.86v-2.55h2.55Zm0-5.11h-5.1V320h5.1Zm0-5.1H19.86v-2.55h2.55Zm0-5.1h-5.1v-2.55h5.1Zm0-5.1H19.86v-2.55h2.55Zm25.51,33.16h-5.1v-5.1h5.1Zm0-7.65h-5.1v-5.1h5.1Zm0-7.65h-5.1V320h5.1Zm0-7.66h-5.1v-5.1h5.1Zm0-7.65h-5.1v-5.1h5.1Zm7.65,30.61h-5.1v-5.1h5.1Zm0-7.65h-5.1v-5.1h5.1Zm0-7.65h-5.1V320h5.1Zm0-7.66h-5.1v-5.1h5.1Zm0-7.65h-5.1v-5.1h5.1Zm7.66,30.61h-5.1v-5.1h5.1Zm0-7.65h-5.1v-5.1h5.1Zm0-7.65h-5.1V320h5.1Zm0-7.66h-5.1v-5.1h5.1Zm0-7.65h-5.1v-5.1h5.1Zm17.86,28.06H78.53v-5.1h2.56Zm0-7.65H78.53v-5.1h2.56Zm0-7.66H78.53v-5.1h2.56Zm0-7.65H78.53v-5.1h2.56Zm0-7.65H78.53v-5.11h2.56Zm5.1,30.61H83.64v-5.1h2.55Zm0-7.65H83.64v-5.1h2.55Zm0-7.66H83.64v-5.1h2.55Zm0-7.65H83.64v-5.1h2.55Zm0-7.65H83.64v-5.11h2.55Zm51,17.86H127v-2.56h10.2Zm0-5.11H127v-2.55h10.2Zm0-5.1H127v-2.55h10.2Zm33.17,2.55h-7.66v-5.1h7.66Zm0-7.65h-7.66v-5.1h7.66Zm0-7.66h-7.66v-5.1h7.66Zm10.2,15.31h-7.65v-5.1h7.65Zm0-7.65h-7.65v-5.1h7.65Zm0-7.66h-7.65v-5.1h7.65Zm81.64,30.62h-7.66v-2.55h7.66Zm0-5.1h-7.66v-2.55h7.66Zm0-5.11h-7.66V320h7.66Zm0-5.1h-7.66v-2.55h7.66Zm0-5.1h-7.66v-2.55h7.66Zm17.85,23H275v-5.1h5.1Zm0-7.65H275v-5.11h5.1Zm0-7.66H275v-5.1h5.1Zm0-7.65H275v-5.1h5.1Zm0-7.65H275v-5.11h5.1Zm0-7.66H275V292h5.1Zm0-7.65H275v-5.1h5.1Zm0-7.65H275v-5.11h5.1ZM290.28,320h-5.1v-5.1h5.1Zm0-7.65h-5.1v-5.1h5.1Zm0-7.65h-5.1v-5.11h5.1Zm0-7.66h-5.1V292h5.1Zm94.39,17.86h-2.55v-2.55h2.55Zm0-5.1h-2.55v-2.55h2.55Zm0-5.1h-2.55v-2.56h2.55Zm0-5.11h-2.55v-2.55h2.55Zm5.1,15.31h-2.55v-2.55h2.55Zm0-5.1h-2.55v-2.55h2.55Zm0-5.1h-2.55v-2.56h2.55Zm0-5.11h-2.55v-2.55h2.55Zm5.11,15.31h-2.56v-2.55h2.56Zm0-5.1h-2.56v-2.55h2.56Zm0-5.1h-2.56v-2.56h2.56Zm0-5.11h-2.56v-2.55h2.56Zm5.1,15.31h-2.55v-2.55H400Zm0-5.1h-2.55v-2.55H400Zm0-5.1h-2.55v-2.56H400Zm0-5.11h-2.55v-2.55H400Zm186.23,28.07H576v-2.55h10.2Zm0-5.11H576V320h10.2Zm0-5.1H576v-2.55h10.2Zm0-5.1H576v-2.55h10.2Zm0-5.1H576v-2.55h10.2Zm7.65,20.41h-5.1v-2.55h5.1Zm0-5.11h-5.1V320h5.1Zm0-5.1h-5.1v-2.55h5.1Zm0-5.1h-5.1v-2.55h5.1Zm0-5.1h-5.1v-2.55h5.1Zm58.68,20.41h-10.2v-2.55h10.2Zm0-5.11h-10.2V320h10.2Zm0-5.1h-10.2v-2.55h10.2Zm0-5.1h-10.2v-2.55h10.2Zm0-5.1h-10.2v-2.55h10.2Zm7.65,20.41h-5.1v-2.55h5.1Zm0-5.11h-5.1V320h5.1Zm0-5.1h-5.1v-2.55h5.1Zm0-5.1h-5.1v-2.55h5.1Zm0-5.1h-5.1v-2.55h5.1Zm38.27,30.61h-5.1v-2.55h5.1Zm0-10.2h-5.1v-2.55h5.1Zm0-10.21h-5.1v-2.55h5.1Zm0-10.2h-5.1v-2.55h5.1Zm7.65,30.61H701v-2.55h5.1Zm0-10.2H701v-2.55h5.1Zm0-10.21H701v-2.55h5.1Zm0-10.2H701v-2.55h5.1Zm7.66,30.61h-5.11v-2.55h5.11Zm0-10.2h-5.11v-2.55h5.11Zm0-10.21h-5.11v-2.55h5.11Zm0-10.2h-5.11v-2.55h5.11Zm165.82,38.26h-7.65V343h7.65Zm0-7.65h-7.65v-2.55h7.65Zm0-7.65h-7.65v-2.55h7.65Zm0-7.66h-7.65V320h7.65Zm0-7.65h-7.65v-2.55h7.65Zm15.31,30.61H882.14V343H894.9Zm0-7.65H882.14v-2.55H894.9Zm0-7.65H882.14v-2.55H894.9Zm0-7.66H882.14V320H894.9Zm0-7.65H882.14v-2.55H894.9Z" transform="translate(0 -234.99)" style="fill:#8f586a"/><path d="M892.33,418.84v-46h-5.11v-2.56h5.11V367.7H848.86v2.56H854v2.56h-5.12v43.46h-5.11v-2.55h-5.11v-2.56H831v-2.56H823.3v-2.55h-7.67V403.5H802.84v-2.56H792.61v-2.55H774.72v-46h2.55v-2.55h-2.55V339.58h2.55V337L767.05,326.8,756.82,337v2.56h2.56v10.23h-2.56v2.55h2.56v46H751.7v-2.56h-2.55v20.45H723.58V398.39h2.56v-2.56h-2.56v-17.9h2.56v-5.11h-2.56v-17.9h2.56v-5.11h-2.56V334.47h5.11v-2.56H664.77v2.56h5.12v61.36H649.43V385.6H621.31v-2.55h28.12v-2.56H621.31v-2.56h28.12v-2.55H621.31v-2.56h28.12v-2.56H621.31V367.7h28.12v-2.55H621.31v-2.56h28.12v-5.11H613.64V367.7H588.07v23h-23V334.47l-10.23-10.23H539.49v15.34H529.26V296.11h-5.11V291H485.8v5.11h-5.12V367.7H452.56V337H421.88V303.78H383.52v43.47H332.39v66.48H317.05V349.81H222.44v58.8H189.2V303.78H138.07v35.8H99.72v46H66.48v35.8H17.9v-46l-2.56-5.12H0V523.67H900V418.84Zm-744-15.34h-5.12V390.72h5.12Zm0-20.45h-5.12V370.26h5.12Zm0-17.9h-5.12V352.36h5.12Zm0-20.46h-5.12V331.91h5.12Zm0-20.45h-5.12V311.45h5.12ZM156,403.5h-5.12V390.72H156Zm0-20.45h-5.12V370.26H156Zm0-17.9h-5.12V352.36H156Zm0-20.46h-5.12V331.91H156Zm0-20.45h-5.12V311.45H156Zm76.7,69h-5.11v-5.11h5.11Zm0-7.67h-5.11v-5.11h5.11Zm0-7.67h-5.11v-5.11h5.11Zm0-7.67h-5.11v-5.11h5.11Zm7.67,23h-5.11v-5.11h5.11Zm0-7.67h-5.11v-5.11h5.11Zm0-7.67h-5.11v-5.11h5.11Zm0-7.67h-5.11v-5.11h5.11Zm7.67,23H242.9v-5.11H248Zm0-7.67H242.9v-5.11H248Zm0-7.67H242.9v-5.11H248Zm0-7.67H242.9v-5.11H248Zm8.82,35.8h-3.7V365.15h3.7Zm7.44,0h-3.7V365.15h3.7Zm7.44,0H268V365.15h3.7Zm7.44,0h-3.7V365.15h3.7Zm7.44,0h-3.7V365.15h3.7Zm7.44,0h-3.7V365.15H294Zm20.46-17.9H304.26V385.6h10.23Zm0-5.11H304.26v-2.56h10.23Zm0-5.12H304.26v-2.55h10.23Zm0-5.11H304.26v-2.56h10.23Zm0-5.12H304.26v-2.55h10.23Zm48.58-15.34h7.67v5.12h-7.67ZM337.5,362.59h5.11v5.11H337.5Zm5.11,25.57H337.5v-5.11h5.11Zm12.79,0h-7.67v-5.11h7.67ZM358,377.93H337.5v-5.11H358ZM347.73,367.7v-5.11h7.67v5.11ZM358,357.48H337.5v-5.12H358Zm23,30.68H360.51v-5.11H381Zm-17.9-10.23v-5.11h7.67v5.11Zm17.9,0h-5.12v-5.11H381Zm0-10.23H360.51v-5.11H381Zm0-10.22h-5.12v-5.12H381ZM411.65,337h-5.12V324.24h5.12Zm0-15.34h-5.12V308.9h5.12ZM419.32,337H414.2V324.24h5.12Zm0-15.34H414.2V308.9h5.12Zm23,46h-5.11V354.92h5.11Zm0-15.34h-5.11V339.58h5.11ZM450,367.7h-5.11V354.92H450Zm0-15.34h-5.11V339.58H450Zm63.92-23H483.24V326.8h30.68Zm0-5.11H483.24v-2.56h30.68Zm0-5.11H483.24v-2.56h30.68Zm0-5.12H483.24v-2.56h30.68Zm0-5.11H483.24v-2.56h30.68Zm0-5.12H483.24v-2.55h30.68Zm35.8,71.6H544.6v-5.12h5.12Zm0-7.68H544.6v-5.11h5.12Zm0-7.67H544.6v-5.11h5.12Zm0-7.67H544.6v-5.11h5.12Zm0-7.67H544.6v-5.11h5.12Zm10.22,30.69h-5.11v-5.12h5.11Zm0-7.68h-5.11v-5.11h5.11Zm0-7.67h-5.11v-5.11h5.11Zm0-7.67h-5.11v-5.11h5.11Zm0-7.67h-5.11v-5.11h5.11Zm38.36,63.92h-5.12V403.5h5.12Zm0-7.67h-5.12v-5.11h5.12Zm0-7.67h-5.12v-5.11h5.12Zm0-7.67h-5.12v-5.11h5.12Zm0-7.67h-5.12v-5.11h5.12Zm10.22,30.68h-5.11V403.5h5.11Zm0-7.67h-5.11v-5.11h5.11Zm0-7.67h-5.11v-5.11h5.11Zm0-7.67h-5.11v-5.11h5.11Zm0-7.67h-5.11v-5.11h5.11ZM698,337h5.12v5.12H698Zm-7.67,0h5.11v5.12h-5.11Zm0,7.67h15.34v5.12H690.34Zm12.79,12.79v5.11H698v-5.11Zm-12.79,0h5.11v5.11h-5.11Zm0,7.67h15.34v5.11H690.34Zm12.79,15.34v5.11H698v-5.11Zm-12.79,0h5.11v5.11h-5.11Zm0,7.67h15.34v5.11H690.34Zm12.79,12.78v5.12H698v-5.12Zm-12.79,0h5.11v5.12h-5.11Zm15.34,12.79H690.34v-5.12h15.34Zm7.67,0h-5.11v-5.12h5.11Zm7.67,0h-5.11v-5.12H721Zm0-7.67H705.68v-5.12H721Zm-12.78-12.79v-5.11h5.11v5.11Zm12.78,0h-5.11v-5.11H721Zm0-7.67H705.68v-5.11H721Zm-12.78-15.34v-5.11h5.11v5.11Zm12.78,0h-5.11v-5.11H721Zm0-7.67H705.68v-5.11H721Zm-12.78-12.78v-5.12h5.11v5.12Zm12.78,0h-5.11v-5.12H721Zm0-7.67H705.68V337H721Zm46,0a2.56,2.56,0,1,1-2.56,2.55A2.55,2.55,0,0,1,767.05,342.14Zm10.22,74.14H759.38v-7.67h17.89ZM864.2,403.5H851.42v-5.11H864.2Zm0-7.67H851.42v-5.11H864.2Zm0-7.67H851.42v-5.11H864.2Zm0-7.67H851.42v-5.11H864.2Zm10.23,7.67h-2.55v-5.11h2.55Zm0-7.67h-2.55v-5.11h2.55Zm5.12,7.67H877v-5.11h2.56Zm0-7.67H877v-5.11h2.56Zm5.11,7.67H882.1v-5.11h2.56Zm0-7.67H882.1v-5.11h2.56Zm5.11,7.67h-2.55v-5.11h2.55Zm0-7.67h-2.55v-5.11h2.55Z" transform="translate(0 -234.99)" style="fill:#544c5f"/><path d="M828.41,353.8V343.57h-35.8v48.58H741.48V451h-35.8V407.49H600.85v38.35H534.38V318h-35.8V451H465.34V366.58H434.66v-17.9H370.74v112.5h-17.9V335.9H322.16l-7.67,12.78h-7.67l-5.12,10.23h-5.11l-7.67,12.78v86.94H258.24l-2.56-35.8h-5.11L248,461.18l-2.56,2.56L248,422.83h-7.67l-5.11,38.35h-7.67l-5.12-38.35h-7.67v2.56H207.1l-2.55,38.35L202,425.39h-2.56l-2.55-2.56h-5.12l-2.56,38.35-5.11,2.56,2.56-40.91H173.86l2.56,43.47H163.64V422.83h-2.56v-2.56h-7.67v2.56h-2.56v-2.56h-7.67v2.56h-2.55v-2.56h-2.56v-2.55h2.56v-2.56h-2.56V404.93h20.45v-2.55h2.56v2.55h2.56v-5.11H138.07V379.36H94.6v84.38H86.93V422.83l-7.67-7.67H51.14L40.91,425.39v38.35H23V433.06H10.23v-5.12H0V599.25H900V353.8ZM15.34,463.74H10.23v-23h5.11ZM81.82,451H46v-5.11h35.8Zm0-10.22H46v-5.12h35.8Zm0-10.23H46v-5.11h35.8ZM102.27,451H97.16v-5.11h5.11Zm0-12.78H97.16v-5.11h5.11Zm0-10.23H97.16v-5.11h5.11Zm0-12.78H97.16v-5.11h5.11Zm0-12.78H97.16v-5.12h5.11Zm0-12.79H97.16v-5.11h5.11ZM109.94,451h-5.11v-5.11h5.11Zm0-12.78h-5.11v-5.11h5.11Zm0-10.23h-5.11v-5.11h5.11Zm0-12.78h-5.11v-5.11h5.11Zm0-12.78h-5.11v-5.12h5.11Zm0-12.79h-5.11v-5.11h5.11ZM161.08,451H133V448.4h28.13Zm0-7.67H133v-5.11h28.13Zm0-10.22H133v-5.12h28.13Zm156,15.34H296.59v-5.12h20.46Zm0-10.23H291.48v-5.11h25.57Zm0-10.23H294v-5.11h23Zm0-10.22H291.48V412.6h25.57Zm0-10.23H296.59v-5.11h20.46Zm0-10.23H291.48v-5.11h25.57Zm0-10.23H294v-5.11h23Zm0-10.22H291.48v-5.12h25.57Zm25.56,23H337.5V394.7h5.11Zm0-7.67H337.5V387h5.11Zm0-12.79H337.5v-5.11h5.11Zm0-7.67H337.5v-5.11h5.11Zm0-15.34H337.5v-5.11h5.11Zm0-7.67H337.5v-5.11h5.11Zm7.67,51.14h-5.11V394.7h5.11Zm0-7.67h-5.11V387h5.11Zm0-12.79h-5.11v-5.11h5.11Zm0-7.67h-5.11v-5.11h5.11Zm0-15.34h-5.11v-5.11h5.11Zm0-7.67h-5.11v-5.11h5.11Zm53.7,2.56h2.55v7.67H404Zm-5.12,0h2.56v7.67h-2.56Zm-15.34,0h2.56v7.67h-2.56Zm-5.11,0H381v7.67h-2.56Zm-2.56,7.67H373.3v-7.67h2.55Zm7.67,63.92h-5.11v-5.11h5.11Zm0-7.67h-5.11v-5.11h5.11Zm7.67,7.67h-5.11v-5.11h5.11Zm0-7.67h-5.11v-5.11h5.11Zm0-7.67H378.41v-5.11h12.78Zm0-10.23H378.41v-17.9h12.78Zm0-38.35h-2.55v-7.67h2.55Zm2.56-7.67h2.56v7.67h-2.56Zm7.67,71.59h-5.11v-5.11h5.11Zm0-7.67h-5.11v-5.11h5.11Zm7.67,7.67H404v-5.11h5.11Zm0-7.67H404v-5.11h5.11Zm0-7.67H396.31v-5.11h12.78Zm0-10.23H396.31v-17.9h12.78Zm2.56-38.35h-2.56v-7.67h2.56Zm7.67-7.67h2.56v7.67h-2.56Zm-5.12,0h2.56v7.67H414.2Zm5.12,71.59H414.2v-5.11h5.12Zm0-7.67H414.2v-5.11h5.12Zm7.67,7.67h-5.11v-5.11H427Zm0-7.67h-5.11v-5.11H427Zm0-7.67H414.2v-5.11H427Zm0-10.23H414.2v-17.9H427Zm0-38.35h-2.56v-7.67H427Zm2.56-7.67h2.55v7.67h-2.55Zm7.67,71.59H432.1v-5.11h5.12Zm0-7.67H432.1v-5.11h5.12Zm7.67,7.67h-5.12v-5.11h5.12Zm0-7.67h-5.12v-5.11h5.12Zm0-7.67H432.1v-5.11h12.79Zm0-10.23H432.1v-17.9h12.79Zm84.37,12.79H503.69v-7.67h25.57Zm0-15.35H503.69V387h25.57Zm0-15.34H503.69v-7.67h25.57Zm0-15.34H503.69v-7.67h25.57Zm0-15.34H503.69V341h25.57Zm0-15.34H503.69v-7.67h25.57ZM646.87,448.4H603.41v-5.12h43.46Zm0-7.67H603.41v-5.12h43.46Zm0-7.67H603.41v-5.12h43.46Zm0-7.67H603.41v-5.12h43.46Zm0-7.67H603.41V412.6h43.46Zm12.79,30.68h-5.11v-5.12h5.11Zm0-7.67h-5.11v-5.12h5.11Zm0-7.67h-5.11v-5.12h5.11Zm0-7.67h-5.11v-5.12h5.11Zm0-7.67h-5.11V412.6h5.11Zm12.78,30.68h-5.11v-5.12h5.11Zm0-7.67h-5.11v-5.12h5.11Zm0-7.67h-5.11v-5.12h5.11Zm0-7.67h-5.11v-5.12h5.11Zm0-7.67h-5.11V412.6h5.11Zm12.79,30.68h-5.12v-5.12h5.12Zm0-7.67h-5.12v-5.12h5.12Zm0-7.67h-5.12v-5.12h5.12Zm0-7.67h-5.12v-5.12h5.12Zm0-7.67h-5.12V412.6h5.12ZM698,448.4H692.9v-5.12H698Zm0-7.67H692.9v-5.12H698Zm0-7.67H692.9v-5.12H698Zm0-7.67H692.9v-5.12H698Zm0-7.67H692.9V412.6H698Zm71.59-5.12h-23v-2.55h23Zm0-5.11h-23v-2.56h23Zm0-5.11h-23v-2.56h23Zm0-5.12h-23V394.7h23Zm12.79,35.8h-7.67v-17.9h7.67Zm0-20.46h-7.67V394.7h7.67Zm10.22,20.46h-7.67v-17.9h7.67Zm0-20.46h-7.67V394.7h7.67Zm48.58,17.9H831V420.27h10.22Zm0-15.34H831V404.93h10.22Zm0-15.34H831V389.59h10.22Zm0-15.34H831V374.25h10.22Zm0-15.34H831V358.91h10.22Z" transform="translate(0 -234.99)" style="fill:#2b3949"/><rect y="248.38" width="79.26" height="2.56" style="fill:#122125"/><rect x="12.78" y="250.94" width="2.56" height="12.81" style="fill:#122125"/><rect x="38.35" y="250.94" width="2.56" height="12.81" style="fill:#122125"/><rect x="63.92" y="250.94" width="2.56" height="12.81" style="fill:#122125"/><rect y="256.07" width="79.26" height="2.56" style="fill:#122125"/><rect x="164.81" y="258.63" width="131.78" height="2.56" style="fill:#122125"/><rect x="219.89" y="258.63" width="2.56" height="12.81" style="fill:#122125"/><rect x="227.56" y="258.63" width="2.56" height="12.81" style="fill:#122125"/><rect x="235.23" y="258.63" width="2.56" height="12.81" style="fill:#122125"/><rect x="242.9" y="258.63" width="2.56" height="12.81" style="fill:#122125"/><rect x="250.57" y="258.63" width="2.56" height="12.81" style="fill:#122125"/><rect x="258.24" y="258.63" width="2.56" height="12.81" style="fill:#122125"/><rect x="265.91" y="258.63" width="2.56" height="12.81" style="fill:#122125"/><rect x="273.58" y="258.63" width="2.56" height="12.81" style="fill:#122125"/><rect x="281.25" y="258.63" width="2.56" height="12.81" style="fill:#122125"/><rect x="288.92" y="258.63" width="2.56" height="12.81" style="fill:#122125"/><rect x="235.23" y="230.44" width="2.56" height="41.87" style="fill:#122125"/><rect x="230.11" y="230.44" width="12.78" height="2.56" style="fill:#122125"/><rect x="232.67" y="235.57" width="7.67" height="2.56" style="fill:#122125"/><rect x="273.58" y="230.44" width="2.56" height="35.88" style="fill:#122125"/><rect x="268.47" y="230.44" width="12.78" height="2.56" style="fill:#122125"/><rect x="271.02" y="235.57" width="7.67" height="2.56" style="fill:#122125"/><rect x="357.95" y="115.13" width="2.56" height="10.25" style="fill:#122125"/><rect x="406.53" y="115.13" width="2.56" height="10.25" style="fill:#122125"/><rect x="350.28" y="115.13" width="66.48" height="2.56" style="fill:#122125"/><rect x="447.44" y="253.51" width="53.69" height="2.56" style="fill:#122125"/><rect x="452.56" y="256.07" width="2.56" height="7.69" style="fill:#122125"/><rect x="457.67" y="256.07" width="2.56" height="7.69" style="fill:#122125"/><rect x="462.78" y="256.07" width="2.56" height="7.69" style="fill:#122125"/><rect x="467.9" y="256.07" width="2.56" height="7.69" style="fill:#122125"/><rect x="473.01" y="256.07" width="2.56" height="7.69" style="fill:#122125"/><rect x="478.12" y="256.07" width="2.56" height="7.69" style="fill:#122125"/><rect x="483.24" y="256.07" width="2.56" height="7.69" style="fill:#122125"/><rect x="488.35" y="256.07" width="2.56" height="7.69" style="fill:#122125"/><rect x="493.47" y="256.07" width="2.56" height="7.69" style="fill:#122125"/><rect x="600.85" y="248.38" width="112.5" height="2.56" style="fill:#122125"/><rect x="600.85" y="256.07" width="112.5" height="5.13" style="fill:#122125"/><rect x="611.08" y="248.38" width="2.56" height="15.38" style="fill:#122125"/><rect x="626.42" y="248.38" width="2.56" height="15.38" style="fill:#122125"/><rect x="641.76" y="248.38" width="2.56" height="15.38" style="fill:#122125"/><rect x="654.55" y="248.38" width="2.56" height="15.38" style="fill:#122125"/><rect x="667.33" y="248.38" width="2.56" height="15.38" style="fill:#122125"/><rect x="680.11" y="248.38" width="2.56" height="15.38" style="fill:#122125"/><rect x="695.45" y="248.38" width="2.56" height="15.38" style="fill:#122125"/><rect x="641.76" y="225.32" width="2.56" height="23.06" style="fill:#122125"/><rect x="634.09" y="225.32" width="17.9" height="2.56" style="fill:#122125"/><rect x="649.43" y="227.88" width="2.56" height="2.56" style="fill:#122125"/><rect x="634.09" y="227.88" width="2.56" height="2.56" style="fill:#122125"/><rect x="680.11" y="225.32" width="2.56" height="23.06" style="fill:#122125"/><rect x="672.44" y="225.32" width="17.9" height="2.56" style="fill:#122125"/><rect x="687.78" y="227.88" width="2.56" height="2.56" style="fill:#122125"/><rect x="672.44" y="227.88" width="2.56" height="2.56" style="fill:#122125"/><rect x="830.97" y="253.51" width="69.03" height="2.56" style="fill:#122125"/><rect x="836.08" y="256.07" width="5.11" height="7.69" style="fill:#122125"/><rect x="853.98" y="256.07" width="5.11" height="7.69" style="fill:#122125"/><rect x="871.87" y="256.07" width="5.11" height="7.69" style="fill:#122125"/><rect x="889.77" y="256.07" width="5.11" height="7.69" style="fill:#122125"/><path d="M831,498.75v-123h-53.7V386h-17.9v10.25h-46v102.5H600.85V345H498.58V498.75H450V419.31H416.76v-61.5H350.28v64.07H306.82v7.68H301.7v5.13H294v69.18H168.75V406.5h-2.56v-7.69H138.07v-41H133v-5.12H97.16V345H86.93v7.69H81.82V345H71.59v7.69H66.48V345H56.25v7.69H48.58V345H38.35v7.69H33.24V498.75H0V550H900V498.75ZM74.15,470.56H58.81V444.94H74.15Zm0-30.75H58.81V414.19H74.15Zm0-30.75H58.81V383.44H74.15Zm28.12,46.13H92.05V444.94h10.22Zm0-15.38H92.05V429.56h10.22Zm0-15.37H92.05V414.19h10.22Zm0-15.38H92.05V398.81h10.22Zm0-15.37H92.05V383.44h10.22ZM156,424.44h-17.9v-5.13H156Zm0-10.25h-17.9v-5.13H156Zm158.52,10.25h2.56v5.12h-2.56Zm-2.56,51.25h-7.67v-5.13h7.67Zm0-10.25h-7.67v-5.13h7.67Zm0-35.88h-2.56v-5.12h2.56Zm10.23,46.13h-7.67v-5.13h7.67Zm0-10.25h-7.67v-5.13h7.67Zm0-35.88H319.6v-5.12h2.56Zm5.11,0h-2.55v-5.12h2.55Zm5.12,0h-2.56v-5.12h2.56Zm5.11,0h-2.56v-5.12h2.56Zm5.11,0h-2.55v-5.12h2.55Zm5.12,0h-2.56v-5.12h2.56Zm12.78,28.19H355.4V447.5h5.11Zm0-17.94H355.4V429.56h5.11Zm0-17.93H355.4V411.63h5.11Zm0-15.38H355.4V396.25h5.11Zm0-15.38H355.4V380.87h5.11Zm0-15.37H355.4V365.5h5.11Zm7.67,82h-5.11V447.5h5.11Zm0-17.94h-5.11V429.56h5.11Zm0-17.93h-5.11V411.63h5.11Zm0-15.38h-5.11V396.25h5.11Zm0-15.38h-5.11V380.87h5.11Zm0-15.37h-5.11V365.5h5.11ZM432.1,468h-7.67v-7.69h7.67Zm0-17.94h-7.67v-7.68h7.67Zm0-17.93h-7.67v-7.69h7.67ZM442.33,468h-7.67v-7.69h7.67Zm0-17.94h-7.67v-7.68h7.67Zm0-17.93h-7.67v-7.69h7.67ZM580.4,347.56H583v5.13H580.4Zm-20.46,0h2.56v5.13h-2.56ZM508.81,483.38h-5.12V468h5.12Zm0-33.32h-5.12V434.69h5.12Zm0-33.31h-5.12V401.38h5.12Zm0-33.31h-5.12V368.06h5.12ZM519,483.38h-5.11V468H519Zm0-33.32h-5.11V434.69H519Zm0-33.31h-5.11V401.38H519Zm0-33.31h-5.11V368.06H519Zm25.57,99.94H534.37v-5.13H544.6Zm0-7.69H534.37V468H544.6Zm0-25.63H534.37v-5.12H544.6Zm0-7.68H534.37v-7.69H544.6Zm0-25.63H534.37v-5.12H544.6Zm0-7.69H534.37v-7.68H544.6Zm0-25.62H534.37v-5.13H544.6Zm0-7.69H534.37v-7.69H544.6Zm23,107.63H557.39v-5.13h10.22Zm0-7.69H557.39V468h10.22Zm0-25.63H557.39v-5.12h10.22Zm0-7.68H557.39v-7.69h10.22Zm0-25.63H557.39v-5.12h10.22Zm0-7.69H557.39v-7.68h10.22Zm0-25.62H557.39v-5.13h10.22Zm0-7.69H557.39v-7.69h10.22Zm0-23.06h-2.55v-5.13h2.55Zm5.12,0h-2.56v-5.13h2.56Zm2.55-5.13h2.56v5.13h-2.56Zm12.79,135.82H577.84v-5.13h10.23Zm0-7.69H577.84V468h10.23Zm0-25.63H577.84v-5.12h10.23Zm0-7.68H577.84v-7.69h10.23Zm0-25.63H577.84v-5.12h10.23Zm0-7.69H577.84v-7.68h10.23Zm0-25.62H577.84v-5.13h10.23Zm0-7.69H577.84v-7.69h10.23Zm0-23.06h-2.56v-5.13h2.56Zm5.11,0h-2.56v-5.13h2.56Zm5.12,0h-2.56v-5.13h2.56Zm148.29,46.12h2.56v5.13h-2.56Zm-20.45,0h2.55v5.13h-2.55Zm-5.12,0h2.56v5.13H721Zm-2.55,5.13h-2.56v-5.13h2.56Zm12.78,84.56H721v-5.12h10.23Zm0-7.69H721v-7.68h10.23Zm0-25.62H721v-5.13h10.23Zm0-7.69H721v-7.69h10.23Zm0-25.62H721v-5.13h10.23Zm0-7.69H721V406.5h10.23Zm2.56-10.25h-2.56v-5.13h2.56Zm5.11,0h-2.56v-5.13h2.56Zm2.56-5.13H744v5.13h-2.55Zm12.78,89.69H744v-5.12h10.23Zm0-7.69H744v-7.68h10.23Zm0-25.62H744v-5.13h10.23Zm0-7.69H744v-7.69h10.23Zm0-25.62H744v-5.13h10.23Zm0-7.69H744V406.5h10.23Zm0-10.25H751.7v-5.13h2.56Zm25.57,84.56H769.6v-5.12h10.23Zm0-7.69H769.6v-7.68h10.23Zm0-25.62H769.6v-5.13h10.23Zm0-7.69H769.6v-7.69h10.23Zm0-25.62H769.6v-5.13h10.23Zm0-7.69H769.6V406.5h10.23Z" transform="translate(0 -234.99)" style="fill:#122125"/><rect y="294.51" width="900" height="125.26" style="fill:#122125"/><rect x="197.64" y="229.47" width="2.56" height="41.87" style="fill:#122125"/><rect x="192.53" y="229.47" width="12.78" height="2.56" style="fill:#122125"/><rect x="195.09" y="234.6" width="7.67" height="2.56" style="fill:#122125"/><rect x="189.64" y="259.53" width="2.56" height="12.81" style="fill:#122125"/><rect x="197.31" y="259.53" width="2.56" height="12.81" style="fill:#122125"/><rect x="204.98" y="259.53" width="2.56" height="12.81" style="fill:#122125"/><rect x="212.65" y="259.53" width="2.56" height="12.81" style="fill:#122125"/><rect x="180.77" y="258.94" width="2.56" height="12.81" style="fill:#122125"/><rect x="165.89" y="259.84" width="2.56" height="12.81" style="fill:#122125"/><rect x="173.56" y="259.84" width="2.56" height="12.81" style="fill:#122125"/></svg>