<svg xmlns="http://www.w3.org/2000/svg" xmlns:xlink="http://www.w3.org/1999/xlink" viewBox="0 0 1920 822.46"><defs><linearGradient id="Degradado_sin_nombre_431" x1="490.04" y1="461.48" x2="303.47" y2="676.11" gradientUnits="userSpaceOnUse"><stop offset="0"/><stop offset="0.57" stop-opacity="0"/></linearGradient><linearGradient id="Degradado_sin_nombre_420" x1="956" y1="487.1" x2="956" y2="736" gradientUnits="userSpaceOnUse"><stop offset="0.03" stop-color="#cbad6d"/><stop offset="0.31" stop-color="#d1456b"/><stop offset="0.67" stop-color="#a04789"/><stop offset="1" stop-color="#4e3070"/></linearGradient><linearGradient id="Degradado_sin_nombre_331" x1="665.44" y1="1206.65" x2="1254.56" y2="186.26" gradientUnits="userSpaceOnUse"><stop offset="0.03" stop-color="#cbad6d"/><stop offset="0.42" stop-color="#d2346b"/><stop offset="0.67" stop-color="#a04789"/><stop offset="1" stop-color="#4e3070"/></linearGradient><linearGradient id="Degradado_sin_nombre_269" x1="1723.23" y1="738.88" x2="1688.97" y2="619.38" gradientUnits="userSpaceOnUse"><stop offset="0.22"/><stop offset="1"/></linearGradient><linearGradient id="Degradado_sin_nombre_307" x1="1485.42" y1="206.71" x2="1262.18" y2="664.41" gradientUnits="userSpaceOnUse"><stop offset="0" stop-color="#f5a568"/><stop offset="0.62" stop-color="#f19e6c"/><stop offset="0.96" stop-color="#dd6b75"/></linearGradient><linearGradient id="Degradado_sin_nombre_297" x1="1671.88" y1="658.76" x2="1467.28" y2="199.22" gradientUnits="userSpaceOnUse"><stop offset="0.18" stop-color="#442b6c"/><stop offset="0.65" stop-color="#9c3e3f"/><stop offset="0.87" stop-color="#d46e69"/><stop offset="0.99" stop-color="#d25c72"/></linearGradient><linearGradient id="Degradado_sin_nombre_520" x1="381.47" y1="585.93" x2="390.79" y2="719.19" gradientUnits="userSpaceOnUse"><stop offset="0.32" stop-color="#4129bf"/><stop offset="1" stop-color="#2f0760"/></linearGradient></defs><title>piramid</title><g style="isolation:isolate"><g id="Capa_1" data-name="Capa 1"><g id="Palm"><path d="M1120.54,565c-1-24.52-8.58-38.42-15.77-46.72-4.52-5.21-17-17.55-14.67-21.07a3.28,3.28,0,0,1,2-1.36c2.06-.38,4.09,1.95,5,3.08,8.21,9.66,12.31,14.48,12.82,15.41,9.89,17.78,15.07,27.09,13.56,39.69A39.55,39.55,0,0,1,1120.54,565Z" transform="translate(4 3.46)" style="fill:#3d0e3d"/><path d="M1093.3,499.92Z" transform="translate(4 3.46)" style="fill:#1e061d"/><path d="M1092.69,498.56c3.82-.05,7.49,17.82,5.54,32.3-.38,2.88-1,7.48-2.83,7.76-2.43.39-6.11-7.24-7.52-13.8C1085.25,512.6,1089.31,498.61,1092.69,498.56Z" transform="translate(4 3.46)" style="fill:#110311"/><path d="M1096.51,500.41c-1,3,10.62,9.15,19.35,11.59,3.66,1,4.76.81,5.18.24,1.2-1.62-2.5-7.29-7.28-10.35C1107,497.57,1097.34,497.94,1096.51,500.41Z" transform="translate(4 3.46)" style="fill:#280628"/><path d="M1092.19,497.45c-.58-2.84,5.65-7.65,12.08-8.87,14-2.67,28.17,11.73,27.12,13.8-.34.68-2.12-.28-8.26-.74-7.11-.53-8.92.44-14.67.25C1106.91,501.84,1093,501.38,1092.19,497.45Z" transform="translate(4 3.46)" style="fill:#330833"/><path d="M1079.62,524.2c4-3,10.7-8.23,13.68-17.87,1-3.39,2.52-8.13.5-9.86-2.42-2.06-8.88.92-12.82,4.56-9,8.28-9.41,24.2-6,25.64C1075.83,527.05,1077.1,526.1,1079.62,524.2Z" transform="translate(4 3.46)" style="fill:#3d113d"/><path d="M1106.74,530.49c-2.81,1-6.69-3.54-8.63-5.8-8.82-10.26-10.39-27-5.55-29.58,3.2-1.71,8.93,2.88,11.59,5.79C1113.28,510.9,1111.57,528.81,1106.74,530.49Z" transform="translate(4 3.46)" style="fill:#1e061d"/></g><path d="M1634,579V752L-4,770.18V570.63c4-1.22,8-2.42,12.06-3.63,44.84-13.32,95.42-26.35,151.2-37.54l4.89-1,4-.79q12.75-2.49,25.85-4.84l5.07-.9q8.61-1.53,17.39-3c1.08-.19,2.16-.36,3.25-.54l5.73-.93c2.53-.41,5.08-.81,7.63-1.2l7.47-1.15h0l.2,0,6.56-1q4.45-.66,9-1.29l6.39-.89q6.76-.93,13.63-1.82l4.88-.62,6.78-.85q7.44-.92,15-1.77,8.7-1,17.51-1.89l8.26-.83c2.75-.27,5.52-.54,8.3-.79s5.56-.52,8.36-.76,5.59-.49,8.4-.72l.35,0,8.11-.65q5.29-.42,10.63-.79l3.14-.23,1-.07,3.65-.25c3.18-.22,6.38-.42,9.58-.61q7.44-.48,15-.86c2.91-.16,5.83-.3,8.75-.44,39.41-1.87,70.67-2,106.66-1.3,16.39.3,33.77.76,53.34,1.3,232.92,6.38,370.07,33,533.59,54.38l12,1.56,3.9.49c35.81,4.56,73,8.83,112.92,12.57,36.32,3.4,74.84,6.35,116.51,8.66l6.12.34c28.83,1.55,64.48,3.07,106,3.92C1513.78,580.9,1570.64,581,1634,579Z" transform="translate(4 3.46)" style="fill:#a04789"/><path d="M606,639c-21.16,40.72-109.18,30.53-157,25-130.29-15.08-296.71-81.33-290-133,.07-.52.15-1,.26-1.54A1703.67,1703.67,0,0,1,414,498c39.41-1.87,70.67-2,106.66-1.3A144.08,144.08,0,0,1,550,514C590.64,545,623.54,605.23,606,639Z" transform="translate(4 3.46)" style="mix-blend-mode:soft-light;fill:url(#Degradado_sin_nombre_431)"/><path d="M1916,567V736H-4V487.1c105,8.43,183.19,18.11,244.55,28.07h0C324,528.73,376.19,542.82,422,555c0,0,17.47,5.11,44.1,12,29.49,7.64,70.22,17.47,110.9,25q15.39,2.85,31,5.24c205.09,31.67,428,7.76,428,7.76q51.84-5.16,114.66-11,32.34-3,67.49-6.21h0q63-5.74,134.7-12.15L1450,567l15-1.34c103-9.19,216.69-19.33,340.09-30.57l7.7-.71,10.58-1,.56,0,36.21-3.32v.05c0,1.79-.08,3.49-.23,5.1l12-3.54,7.51,4.77a44.57,44.57,0,0,1,10.73.44,49.64,49.64,0,0,1-2.44,6.08l7.91,6.95,11.21,2.35,5.21,9.38-2,5.37Z" transform="translate(4 3.46)" style="fill:url(#Degradado_sin_nombre_420)"/><rect y="570.46" width="1920" height="252" style="fill:url(#Degradado_sin_nombre_331)"/><g id="plant"><path d="M1890.11,536.87a50,50,0,0,1-14.36,21.88h0a46.91,46.91,0,0,1-11.06,7.2c-.81.39-1.61.73-2.4,1a49.44,49.44,0,0,1-12.54,3.2l-.28,0-2.29-3.23-19.34-27.26a33.8,33.8,0,0,1-4.46-6.32l-.21-.39a31.23,31.23,0,0,1-3.67-13.1,31.62,31.62,0,0,1,2.34-13.55,28.09,28.09,0,0,1,14.07,10.43,27.58,27.58,0,0,1,4.7,12.25,24.1,24.1,0,0,1,5.47-9.13,24.51,24.51,0,0,1,11.73-6.77,61.52,61.52,0,0,1,2.34,16.89v.05c0,1.79-.08,3.49-.23,5.1a60.4,60.4,0,0,1-1.33,8.45,44.42,44.42,0,0,1,17.2-6.78c1.24-.2,2.44-.35,3.6-.44A44.57,44.57,0,0,1,1890.11,536.87Z" transform="translate(4 3.46)" style="fill:#3d113d"/><g id="Rock"><polygon points="1916 565.09 1913.99 570.46 1911.31 577.6 1891.04 581.99 1885.77 576.04 1885.77 564.83 1891.5 566.92 1897.24 566.92 1904.27 569 1916 565.09" style="fill:#b1524c"/><polygon points="1910.79 555.71 1895.41 560.92 1885.77 564.83 1882.12 564.05 1879.75 562.21 1879.74 562.21 1876.55 559.73 1868.13 553.2 1853.38 541.77 1863.91 538.66 1875.87 535.12 1883.38 539.89 1886.55 541.9 1891.67 546.41 1899.58 553.36 1910.79 555.71" style="fill:#e1986f"/><polygon points="1916 565.09 1904.27 569 1897.24 566.92 1891.5 566.92 1885.77 564.83 1895.41 560.92 1910.79 555.71 1916 565.09" style="fill:#d56073"/><polygon points="1891.04 581.99 1870.39 586.46 1861.18 582.68 1861.17 582.67 1852.76 572.47 1846.87 552.05 1853.46 541.89 1882.12 564.04 1885.77 564.83 1885.77 576.03 1891.04 581.99" style="fill:#903139"/></g><path d="M1858.58,576.22c.74-9,10.57-11.19,14.59-21.36a23,23,0,0,0,1.56-8.34,27.11,27.11,0,0,0-16.15,7.29,25.87,25.87,0,0,0-5.74,8.34,56.85,56.85,0,0,0-15.11-19.54c-2.7-2.23-17.14-14.15-23.19-10.17-6.87,4.52-4,30.21,11.2,42.22,11.15,8.78,29.47,10.66,32.58,5.47C1859,579,1858.39,578.53,1858.58,576.22Z" transform="translate(4 3.46)" style="fill:#1e061d"/></g><g id="Piramid"><g id="sombra"><g style="opacity:0.76"><polygon points="1920 594.89 1920 682.46 1469 682.46 1638 636.33 1661.45 629.93 1836.35 582.19 1849.21 578.67 1850 578.46 1859.55 580.7 1862.57 581.41 1877.51 584.92 1920 594.89" style="fill:url(#Degradado_sin_nombre_269)"/></g></g><polygon points="1469 198.96 1469 682.46 1088 579.46 1468.5 198.46 1469 198.96" style="fill:url(#Degradado_sin_nombre_307)"/><polygon points="1850 579.46 1469 682.46 1469 198.46 1850 579.46" style="fill:url(#Degradado_sin_nombre_297)"/></g><path d="M334,92.59a76.21,76.21,0,0,1-144.93,32.93A75.37,75.37,0,0,0,277.4,18.94,76.23,76.23,0,0,1,334,92.59Z" transform="translate(4 3.46)" style="fill:#f9eae2"/><ellipse cx="571.92" cy="123.9" rx="1.11" ry="1.04" transform="translate(402.57 686.27) rotate(-84.99)" style="fill:#efefef"/><ellipse cx="588.24" cy="124.93" rx="2.37" ry="2.23" transform="translate(416.45 703.48) rotate(-84.99)" style="fill:#efefef"/><ellipse cx="620.07" cy="109.47" rx="2.11" ry="1.98" transform="translate(460.89 721.08) rotate(-84.99)" style="fill:#efefef"/><ellipse cx="704.36" cy="154.07" rx="2.73" ry="2.57" transform="translate(493.4 845.75) rotate(-84.99)" style="fill:#efefef"/><ellipse cx="734.18" cy="99.03" rx="2.07" ry="1.94" transform="translate(575.44 825.22) rotate(-84.99)" style="fill:#efefef"/><ellipse cx="917.54" cy="99.25" rx="2.5" ry="2.35" transform="translate(742.59 1008.08) rotate(-84.99)" style="fill:#efefef"/><ellipse cx="1030.33" cy="125.5" rx="1.48" ry="1.43" transform="matrix(0.09, -1, 1, 0.09, 819.37, 1144.4)" style="fill:#efefef"/><ellipse cx="1269.3" cy="93.86" rx="1.3" ry="1.22" transform="translate(1069.01 1353.59) rotate(-84.99)" style="fill:#efefef"/><ellipse cx="1005.49" cy="179.72" rx="2.5" ry="2.35" transform="translate(742.7 1169.14) rotate(-84.99)" style="fill:#efefef"/><ellipse cx="1162.31" cy="36.91" rx="2.5" ry="2.35" transform="matrix(0.09, -1, 1, 0.09, 1028.08, 1195.02)" style="fill:#efefef"/><ellipse cx="1404.5" cy="105.53" rx="2.5" ry="2.35" transform="matrix(0.09, -1, 1, 0.09, 1180.79, 1498.91)" style="fill:#efefef"/><ellipse cx="1492.23" cy="49.06" rx="2.5" ry="2.35" transform="translate(1317.1 1534.77) rotate(-84.99)" style="fill:#efefef"/><ellipse cx="1626.53" cy="93.91" rx="1.11" ry="2.37" transform="translate(1395.01 1709.49) rotate(-84.99)" style="fill:#efefef"/><ellipse cx="1634.58" cy="21.79" rx="1.11" ry="1.04" transform="translate(1474.2 1651.69) rotate(-84.99)" style="fill:#efefef"/><ellipse cx="1876.24" cy="146.87" rx="2.5" ry="2.35" transform="translate(1570.15 2006.59) rotate(-84.99)" style="fill:#efefef"/><ellipse cx="1707.66" cy="202.79" rx="2.5" ry="2.35" transform="translate(1360.59 1889.68) rotate(-84.99)" style="fill:#efefef"/><ellipse cx="1759.02" cy="89.56" rx="2.5" ry="2.35" transform="matrix(0.09, -1, 1, 0.09, 1520.27, 1837.5)" style="fill:#efefef"/><ellipse cx="1913.22" cy="63.7" rx="2.5" ry="2.35" transform="matrix(0.09, -1, 1, 0.09, 1686.77, 1967.51)" style="fill:#efefef"/><ellipse cx="477.55" cy="53.22" rx="1.11" ry="1.04" transform="translate(386.85 527.76) rotate(-84.99)" style="fill:#efefef"/><ellipse cx="586.53" cy="23.13" rx="1.45" ry="1.36" transform="translate(516.29 608.86) rotate(-84.99)" style="fill:#efefef"/><ellipse cx="985.02" cy="80.64" rx="4.11" ry="4.06" transform="translate(822.71 1058.32) rotate(-84.99)" style="fill:#efefef"/><ellipse cx="1080.03" cy="66.76" rx="1.02" ry="0.96" transform="translate(923.26 1140.3) rotate(-84.99)" style="fill:#efefef"/><ellipse cx="1713.04" cy="53.22" rx="6.44" ry="5.7" transform="translate(1514.51 1758.53) rotate(-84.99)" style="fill:#efefef"/><ellipse cx="1615.04" cy="116.35" rx="2.5" ry="2.35" transform="translate(1362.16 1718.52) rotate(-84.99)" style="fill:#efefef"/><ellipse cx="155.47" cy="26.53" rx="2.5" ry="2.35" transform="translate(119.47 182.55) rotate(-84.99)" style="fill:#efefef"/><ellipse cx="102.52" cy="83.8" rx="2.5" ry="2.35" transform="matrix(0.09, -1, 1, 0.09, 14.09, 182.07)" style="fill:#efefef"/><ellipse cx="758.11" cy="25.17" rx="2.5" ry="2.35" transform="matrix(0.09, -1, 1, 0.09, 670.86, 781.64)" style="fill:#efefef"/><ellipse cx="862.54" cy="10.6" rx="2.5" ry="2.35" transform="translate(780.69 872.37) rotate(-84.99)" style="fill:#efefef"/><ellipse cx="905.71" cy="24.35" rx="2.5" ry="2.35" transform="translate(806.4 927.94) rotate(-84.99)" style="fill:#efefef"/><ellipse cx="942.5" cy="-0.05" rx="1.39" ry="1.31" transform="translate(864.28 942.31) rotate(-84.99)" style="fill:#efefef"/><ellipse cx="989.46" cy="9.89" rx="2.5" ry="2.35" transform="translate(897.24 998.17) rotate(-84.99)" style="fill:#efefef"/><ellipse cx="1064.48" cy="-1.03" rx="1.11" ry="1.04" transform="translate(976.59 1062.94) rotate(-84.99)" style="fill:#efefef"/><ellipse cx="1278.98" cy="19.27" rx="2.5" ry="2.35" transform="translate(1152.14 1295.14) rotate(-84.99)" style="fill:#efefef"/><ellipse cx="1321.39" cy="-0.96" rx="2.5" ry="2.35" transform="translate(1211 1318.93) rotate(-84.99)" style="fill:#efefef"/><ellipse cx="1305.05" cy="67.1" rx="2.5" ry="2.35" transform="translate(1128.29 1364.77) rotate(-84.99)" style="fill:#efefef"/><ellipse cx="1353.92" cy="50.6" rx="3.83" ry="3.85" transform="translate(1189.32 1398.39) rotate(-84.99)" style="fill:#efefef"/><ellipse cx="1403.93" cy="34.36" rx="1.39" ry="1.31" transform="translate(1251.15 1433.39) rotate(-84.99)" style="fill:#efefef"/><ellipse cx="1418.16" cy="10.5" rx="2.5" ry="2.35" transform="translate(1287.92 1425.79) rotate(-84.99)" style="fill:#efefef"/><ellipse cx="1465.74" cy="79.99" rx="1.39" ry="1.31" transform="translate(1262.11 1536.61) rotate(-84.99)" style="fill:#efefef"/><ellipse cx="1339.7" cy="91.89" rx="2.5" ry="2.35" transform="translate(1135.22 1421.92) rotate(-84.99)" style="fill:#efefef"/><ellipse cx="1161.99" cy="97.88" rx="2.5" ry="2.35" transform="translate(967.05 1250.35) rotate(-84.99)" style="fill:#efefef"/><ellipse cx="1155.83" cy="149.39" rx="1.11" ry="1.04" transform="translate(910.12 1291.22) rotate(-84.99)" style="fill:#efefef"/><ellipse cx="828.62" cy="91" rx="2.24" ry="2.1" transform="translate(669.64 911.98) rotate(-84.99)" style="fill:#efefef"/><ellipse cx="598.63" cy="70.39" rx="0.98" ry="0.92" transform="translate(480.25 664.04) rotate(-84.99)" style="fill:#efefef"/><ellipse cx="28.47" cy="220.15" rx="2.5" ry="2.35" transform="translate(-189.32 232.75) rotate(-84.99)" style="fill:#efefef"/><ellipse cx="142.46" cy="175.53" rx="2.5" ry="2.35" transform="matrix(0.09, -1, 1, 0.09, -40.83, 305.59)" style="fill:#efefef"/><ellipse cx="407.28" cy="55.11" rx="2.5" ry="2.35" transform="translate(320.82 459.48) rotate(-84.99)" style="fill:#efefef"/><ellipse cx="454.93" cy="110.82" rx="2.5" ry="2.35" transform="translate(308.82 557.8) rotate(-84.99)" style="fill:#efefef"/><ellipse cx="642.5" cy="39.56" rx="1.77" ry="1.66" transform="translate(551.01 679.62) rotate(-84.99)" style="fill:#efefef"/><ellipse cx="588.85" cy="170.4" rx="1.57" ry="1.48" transform="translate(371.71 745.59) rotate(-84.99)" style="fill:#efefef"/><ellipse cx="756.32" cy="117.49" rx="0.98" ry="0.92" transform="translate(577.27 864.13) rotate(-84.99)" style="fill:#efefef"/><path d="M304.16,640.54a1014.65,1014.65,0,0,1-119.08-7.45c-24-2.92-82.91-10.1-83.62-18.22-.52-5.93,30.2-9.89,44.63-11.69,58.26-7.28,99.93-3.08,161.44.81,90.05,5.68,135.08,8.53,182.55,8,21.36-.23,43.05-.92,74.15,2.73,9.7,1.14,97.67,11.47,103.3,31.15,5,17.5-57.27,34.83-91.18,44.27-103.61,28.83-222.64,36-234,18.84-7.16-10.79,33.41-23.39,25.6-41.53C362,653.65,331.78,645.48,304.16,640.54Z" transform="translate(4 3.46)" style="fill:url(#Degradado_sin_nombre_520)"/><path d="M552,662.32c0-10.67-25.18-19.32-56.25-19.32-22.37,0-41.68,4.48-50.75,11,5-.5,10.23-.77,15.67-.77,30.71,0,55.62,8.56,55.62,19.11,0,3.13-2.19,6.08-6.08,8.69C534.27,678.81,552,671.28,552,662.32Z" transform="translate(4 3.46)" style="fill:#f9eae2;opacity:0.5700000000000001;mix-blend-mode:overlay"/><g id="plant-2" data-name="plant"><path d="M340.75,678.56a43.22,43.22,0,0,1-20.08-5.41A44,44,0,0,1,302,652.23a39.29,39.29,0,0,1,28.53,3.47,54.48,54.48,0,0,1-1.77-27.12,21.88,21.88,0,0,1,11,5.07,21.61,21.61,0,0,1,5.59,7.65,24.48,24.48,0,0,1,3.17-11.25,25,25,0,0,1,11.65-10.38,28.14,28.14,0,0,1,3.18,11.83,29.11,29.11,0,0,1-5.81,18.25Z" transform="translate(4 3.46)" style="fill:#3d113d"/><g id="Palm-2" data-name="Palm"><path d="M343.92,679.91c-14.42-38.74-11.83-65.25-6.11-82.83,3.6-11.05,14.89-38.37,9-42.31a5.53,5.53,0,0,0-3.94-.82c-3.45.76-5.07,5.7-5.83,8.1-6.41,20.35-9.61,30.53-9.8,32.3-3.71,34.07-5.65,51.91,4.95,70.47A67.28,67.28,0,0,0,343.92,679.91Z" transform="translate(4 3.46)" style="fill:#5c1c5e"/><path d="M343.58,561.07Z" transform="translate(4 3.46)" style="fill:#1e061d"/><path d="M343.65,558.57c-6,2.42,0,32.56,12.53,53.75,2.49,4.21,6.52,10.93,9.49,10.19,4-1,4.73-15.24,2.63-26.35C364.38,575.48,348.91,556.43,343.65,558.57Z" transform="translate(4 3.46)" style="fill:#110311"/><path d="M338.93,563.94c3.48,3.93-10.5,21.16-22.45,30.65-5,4-6.86,4.37-7.87,3.77-2.92-1.73-.9-13,4.5-20.83C320.74,566.42,336,560.66,338.93,563.94Z" transform="translate(4 3.46)" style="fill:#280628"/><path d="M343.68,556.52c-.95-4.79-13.77-8.17-24.55-5.86-23.44,5-36,36.65-33.05,39.18,1,.82,3.11-1.82,12.33-6.55,10.69-5.48,14.13-5.17,22.93-9.23C323.72,573,345,563.15,343.68,556.52Z" transform="translate(4 3.46)" style="fill:#330833"/><path d="M380.71,589.8c-8.14-2.06-22-5.78-32.94-18.78-3.85-4.57-9.23-11-7.22-15,2.4-4.78,14.39-4.38,22.88-1.32,19.36,7,30.45,31.4,26.16,35.84C388.46,591.73,385.86,591.1,380.71,589.8Z" transform="translate(4 3.46)" style="fill:#3d113d"/><path d="M342.74,617.31c5-.32,8.07-9.86,9.6-14.64,7-21.71-1.55-48.69-10.76-49.54-6.09-.56-12,10.31-14.19,16.58C319.77,591.2,334.15,617.87,342.74,617.31Z" transform="translate(4 3.46)" style="fill:#1e061d"/></g><g id="Rock-2" data-name="Rock"><polygon points="288.55 679.43 293.72 690.15 312.07 692.41 316.26 686.7 315.36 676.76 310.44 679.07 305.35 679.53 299.27 681.95 288.55 679.43" style="fill:#b1524c"/><polygon points="292.42 670.68 306.49 674.07 315.36 676.76 318.53 675.77 342.25 653.68 321.75 649.59 312.81 656.47 302.18 667.7 292.42 670.68" style="fill:#e1986f"/><polygon points="288.55 679.43 299.27 681.95 305.35 679.53 310.44 679.07 315.36 676.76 306.49 674.07 292.42 670.68 288.55 679.43" style="fill:#d56073"/><polygon points="312.07 692.41 330.75 694.71 338.62 690.62 338.62 690.61 345.27 680.88 348.85 662.28 342.18 653.8 318.53 675.77 315.36 676.76 316.26 686.7 312.07 692.41" style="fill:#903139"/></g><path d="M333.14,684.61c-1.39-7.91-10.29-9.08-14.68-17.78a20.76,20.76,0,0,1-2.06-7.28,24.27,24.27,0,0,1,14.93,5.17,23.1,23.1,0,0,1,5.76,6.94,50.75,50.75,0,0,1,11.84-18.56c2.21-2.2,14.06-13.94,19.76-10.89,6.45,3.45,6,26.48-6.54,38.36-9.19,8.69-25.29,11.84-28.47,7.49C333,687.13,333.49,686.64,333.14,684.61Z" transform="translate(4 3.46)" style="fill:#1e061d"/></g></g></g></svg>