<svg id="scenario" xmlns="http://www.w3.org/2000/svg" xmlns:xlink="http://www.w3.org/1999/xlink" viewBox="0 0 1519 1054"><defs><linearGradient id="Degradado_sin_nombre_93" x1="759.47" y1="631" x2="759.47" y2="-33.79" gradientUnits="userSpaceOnUse"><stop offset="0" stop-color="#ffc371"/><stop offset="0.22" stop-color="#ff946f"/><stop offset="0.44" stop-color="#ff5f6d"/><stop offset="0.5" stop-color="#f95d6c"/><stop offset="0.58" stop-color="#e75868"/><stop offset="0.67" stop-color="#cb5061"/><stop offset="0.77" stop-color="#a34559"/><stop offset="0.87" stop-color="#6f364d"/><stop offset="0.99" stop-color="#312440"/><stop offset="1" stop-color="#2a223e"/></linearGradient><linearGradient id="Degradado_sin_nombre_107" x1="762.37" y1="294" x2="762.37" y2="732" gradientUnits="userSpaceOnUse"><stop offset="0" stop-color="#ffc371"/><stop offset="0.22" stop-color="#ff945e"/><stop offset="0.44" stop-color="#ff5f49"/></linearGradient></defs><title>scenario</title><polygon points="1518.94 573 1518.94 601 1518.94 615.54 1518.94 631 1451.17 631 1415.04 631 1395.53 631 1309.75 631 1305.47 631 1242.83 631 1241.32 631 1205.7 631 1085.93 631 976.17 631 548.57 631 0 631 0 601 0 573 0 544.53 0 0 1518.94 0 1518.94 474.49 1518.94 544.53 1518.94 551.91 1518.94 573" style="fill:url(#Degradado_sin_nombre_93)"/><ellipse id="Sol" cx="762.37" cy="513" rx="253.74" ry="219" style="fill:url(#Degradado_sin_nombre_107)"/><polygon points="1518.94 544.53 1431.62 544.53 1361.02 544.53 1310.96 544.53 1300.37 544.53 1291.42 544.53 1277.39 544.53 1275.1 544.53 1234.88 544.53 1233.96 544.53 1230.39 544.53 1150.36 544.53 1013.5 544.53 511.24 544.53 0 544.53 0 573 0 601 529.95 601 994.78 601 1100.47 601 1211.31 601 1233.48 601 1257.87 601 1279.84 601 1299.15 601 1366.42 601 1368.63 601 1403.14 601 1508.99 601 1518.94 601 1518.94 573 1518.94 573 1519 551.91 1518.94 544.53" style="fill:#00353f"/><polygon points="1518.94 601 1508.99 601 1403.14 601 1368.63 601 1366.42 601 1299.15 601 1279.84 601 1257.87 601 1233.48 601 1211.31 601 1100.47 601 994.78 601 529.95 601 0 601 0 631 0 649 0 729.8 0 739.14 0 748.4 0 760.06 0 760.07 0 833.91 0 836.97 137.88 836.97 1255.76 836.97 1296.86 836.97 1469.09 836.97 1518.94 836.97 1518.94 825.92 1518.94 825.38 1518.94 762.61 1518.94 717.84 1518.94 709.96 1518.94 700.27 1518.94 649 1518.94 641.43 1518.94 631 1518.94 615.54 1518.94 601" style="fill:#1b869b"/><path d="M1785.94,736q-34.73-.09-66.39-.27l-27.85-.19q-18.15-.13-35.28-.32c-27.35-.29-52.79-.66-76.46-1.13q-17.37-.36-33.5-.78l-9.62-.27c-16-.46-38-1.27-65.13.33-10.89.64-22.6,1.67-35.09,3.27-7.26.93-14.81,2-22.59,3.4-38.47,6.68-45.9,12.37-73.41,18.09-3.06.64-6.37,1.27-10,1.91-53.9,9.47-76.23,1.39-137.23-1.25h0c-9.91-.42-20.82-.71-33.07-.75h-.07c-65.23-.21-62,6.81-141.28,9-88.78,2.45-83.4-6.61-159.89-5-116.07,2.44-151.93,23.79-250.26,9-25.29-3.8-30.12-6.3-54.45-11-64-12.36-158.42-19.77-287.34,5.14v20.92h0V904H1785.94V736Z" transform="translate(-267 -26)" style="fill:#f7d0ad"/><path d="M1785.94,851.38V788.61c-10.92-1.16-23-2.39-36-3.67s-26.85-2.6-41.62-3.94l-17.54-1.58-7.43-.67c-49.77-4.47-78.14-6.74-103.42-6.75h-1.37c-43.54.11-67.18,5.73-95.72,12.66-19.06,4.61-40.31,9.81-71.12,14.34-28,4.11-36.58,3.67-249.1-1-136-3-155.77-3.31-192.33-2-81.22,2.92-80.61,8-163.37,12-49.68,2.4-140.51,6.48-252.57-3-79.83-6.75-99.59-14.4-181.91-18-41.34-1.81-77.26-1.67-105.43-.94h0V974.78l55.3-.46,19.21-.15,23.8-.2,14.37-.12,73.91-.61,20.48-.17h.39l56.28-.46h0l96.85-.8L803,970.36h0l74.1-.61,890.58-7.34,18.3-.15V851.38Z" transform="translate(-267 -26)" style="fill:#efc19c"/><path d="M1785.94,853.38V1080H267V861.88q24.45-3.5,50.09-6.37l3.18-.35q40.61-4.47,84-7c44.82-2.62,91.82-3.49,140.77-2.1,48.07,1.38,79.94,4.26,79.94,4.26,104.47,7.14,111,13.77,149.46,10.63,63.62-5.18,59.8-24.41,126.29-30.84,46.73-4.51,50,4.85,133.24,8.51,75.27,3.31,74.77-4.22,146-1.06,82.83,3.67,85.69,13.89,149.46,13.82,70.36-.07,69.52-12.53,147.14-16,10.11-.45,19-.63,27.42-.57,21.24.11,39.57,1.69,67.14,4.12,21.76,1.92,49.26,4.38,88.5,7.08,25.33,1.76,48.86,3.14,70.27,4.25h0c20.67,1.08,39.36,1.89,55.76,2.53h.25Z" transform="translate(-267 -26)" style="fill:#e2b291"/><path d="M1785.94,736v7.88c-23.49,1.85-43.56,2.66-59.35,3q-4.77.1-9,.16-13.53.18-26.95,0-12.3-.12-24.49-.45c-29.18-.76-57.89-2.2-86-3.33q-13.57-.54-27-1c-21.24-.62-42.14-.87-62.63-.29-4.5.13-10.42.34-17.52.8a410.85,410.85,0,0,0-55.12,7.38h0q-4.17.84-8.46,1.82c-12.13,2.75-20.85,5.33-23.17,6a381.56,381.56,0,0,1-42.72,9.32c-117.85,19.46-296.75,8.68-296.75,8.68-89.54-5.4-132.63-13.19-213.19-6-23.7,2.12-26.68,3.39-57.93,6-41.23,3.44-109,8.85-187.69,3-82.62-6.14-74.9-17-132.09-16-64.36,1.15-96.53,1.73-126.28,9-15,3.67-29.51,5.77-49.83,4-3.92-.34-8.34-.89-12.74-1.6V755.8c32.07-5.51,87.72-9.74,136.72-10.8,52.66-1.14,59.12,2.22,150.62,6,93.07,3.84,152.42,6.29,230.56,3,67.71-2.85,85.11-7.3,132.08-4,12.5.87,33,2.72,61.3,3.56h0c9.89.3,20.75.47,32.53.44,19.62-.06,30-.65,42.87-1,11.52-.31,21.6-.34,30.67-.16,30.87.6,50.21,3.5,75.85,5.16h.07c6.79.45,14,.8,22,1,2.81.07,6.47,0,11.06-.25h0c22.83-1.17,68.47-6.08,145.06-14.54l20-2.21c53.49-5.92,48.14-5.54,71.84-8l11.2-1.15c10.65-1.07,20.59-2,29.91-2.89,28-2.55,50.37-4.1,69.6-4.74,14.33-.47,26.88-.44,38.71,0,11.61.49,22.5,1.41,33.64,2.74,14.88,1.78,13.59,2.3,29,4,4.2.46,8.35.87,12.41,1.23,13,1.14,25.43,1.75,37,2,9.69.19,18.85.1,27.42-.17,16.47-.52,30.77-1.72,42.47-3l24.33-5.73Z" transform="translate(-267 -26)" style="fill:#e0e0e0"/><polygon points="1518.94 601 1518.94 573 1480.73 573 1386.4 573 1338.97 573 1315.64 573 1290.74 573 1267.97 573 1254.8 573 1229.78 573 1219.81 573 1120.22 573 1006.46 573 518.27 573 0 573 0 601 0 631 0 649 563.48 649 961.25 649 1079.71 649 1203.79 649 1230.98 649 1247.83 649 1308.25 649 1328.56 649 1412.38 649 1419.81 649 1518.94 649 1518.94 641.43 1518.94 631 1518.94 615.54 1518.94 601" style="fill:#006175"/><g id="plant"><path d="M538.12,889c-1.37,3.64-3.46,8.8-6.5,15-1.27,2.59-2.7,5.37-4.34,8.29a193.67,193.67,0,0,1-53,60.64,0,0,0,0,1,0,0l-.17.13A207.56,207.56,0,0,1,454.7,986a221.56,221.56,0,0,1-29.65,14.6h0a244.2,244.2,0,0,1-66.42,16.27l-1.24.13L322.3,974.32,267,907v-121A113.65,113.65,0,0,1,297.12,812a97.86,97.86,0,0,1,20,41.92c.38,1.87.67,3.57.89,5.08.61-1.59,1.37-3.41,2.29-5.41a92.39,92.39,0,0,1,22-29.59c19.65-17.74,42.21-23.86,52.14-26a206.61,206.61,0,0,1,9.85,49c.38,5.13.6,10.47.57,16v0c0,6.85-.39,13.37-1,19.55h0A208.55,208.55,0,0,1,400.55,904c-.82,3.89-1.71,7.56-2.63,11a209.33,209.33,0,0,1,22.26-11,218.09,218.09,0,0,1,54.21-15c5.54-.79,10.9-1.34,16.06-1.7A227.39,227.39,0,0,1,538.12,889Z" transform="translate(-267 -26)" style="fill:#257c72"/><g id="Rock"><polygon points="368.44 958 347.58 1006 257.45 1022.85 234.04 1000 234.04 957 259.53 965 285.02 965 316.3 973 368.44 958" style="fill:#807979"/><polygon points="345.27 922 276.91 942 234.04 957 217.82 954 90.01 868.5 190.01 843 237.52 869 295.45 913 345.27 922" style="fill:#a09a9a"/><polygon points="368.44 958 316.3 973 285.02 965 259.53 965 234.04 957 276.91 942 345.27 922 368.44 958" style="fill:#999090"/><polygon points="257.45 1022.85 171.03 1039 165.68 1040 164.27 1039.5 162.85 1039 130.58 1027.58 124.71 1025.51 124.69 1025.48 91.61 990.87 87.27 986.33 74.51 948.17 61.08 907.99 63.05 905.37 83.61 878 90.37 869 103.87 878 155.49 912.43 193.03 937.47 207.24 946.94 207.43 947.07 217.82 954 234.04 957 234.04 1000 257.45 1022.85" style="fill:#605757"/></g><path d="M469.76,926a77.8,77.8,0,0,1-6.95,32c-.86,1.88-1.79,3.69-2.76,5.43a.05.05,0,0,1,0,0,79.29,79.29,0,0,1-6.43,9.77c-8.46,11.08-18.95,19.37-28.54,27.36h0c-13.62,11.36-25.45,22.11-27.11,39.4-.74,7.81,1.23,10.2-.34,13.58a8.54,8.54,0,0,1-.82,1.42c-3.56,5.14-11.65,8.47-22.55,10-1.41.2-2.84.37-4.34.5a137.93,137.93,0,0,1-23,0c-1.79-.13-3.62-.3-5.47-.5-23.73-2.5-51.08-9.87-74.38-22V886.64c10.91,6,20.9,12.43,28.18,17.36,4.54,3.08,8,5.56,10.05,7a232.69,232.69,0,0,1,24.82,20.37A223.23,223.23,0,0,1,365.31,974c2.79,4.39,5.14,8.43,7.12,12a97.76,97.76,0,0,1,7.25-12.15A102.08,102.08,0,0,1,397.92,954a113.11,113.11,0,0,1,24.57-15.57l.1-.06A140.58,140.58,0,0,1,469.76,926Z" transform="translate(-267 -26)" style="fill:#133e39"/></g><g id="Palm"><path d="M1785.69,851.37c-9.68-20.85-21.66-42.71-35.76-66.43-7.22-12.17-15-24.83-23.34-38.1q-3.45-5.51-7-11.15l-.41-.66c-9.32-14.69-19.24-30.13-29.76-46.45l-4.24-6.58a70,70,0,0,0-5.76-7c-3.83-4.28-9.43-10.26-16.85-18q-11.55-12.07-29.11-30c-.55-.58-1.13-1.16-1.7-1.75h0Q1620.13,613.42,1606,599l-25.58-26h0l-2.42-2.46q-4.67-4.74-9.54-9.69l-3.77-3.84c-8.47-8.61-25.67-25.66-43.68-25.33-.81,0-1.64.06-2.46.15h0l-1.36.18a27.05,27.05,0,0,0-5.4,1.46,31.82,31.82,0,0,0-13.13,9.54c-3.76,4.89-3.43,11.88-.1,20.32a68,68,0,0,0,3,6.44l.4.77c4.57,8.56,11.5,18.23,19.92,28.47,3,3.61,6.11,7.3,9.42,11,4.91,5.57,10.16,11.25,15.62,17,8,8.32,16.31,16.71,24.71,24.93l5.2,5.07c6.37,6.16,12.68,12.19,18.81,18,16,15.16,30.64,28.77,40.92,39q9.09,9,18.2,19.23l1.74,1.95q4.89,5.52,9.72,11.4,9.84,11.92,19.43,25.36,2.61,3.67,5.2,7.48A475.37,475.37,0,0,1,1729.92,849h0q3.13,6.85,6.16,14,8.23,19.44,15.43,41c6,18.24,11.46,37.68,16.12,58.41A747.94,747.94,0,0,1,1783,1065h3V851.92Z" transform="translate(-267 -26)" style="fill:#997f6e"/><path d="M1528.73,565" transform="translate(-267 -26)" style="fill:#997f6e"/><path d="M1522.94,554c36-.42,70.4,144.57,52.13,262-3.63,23.36-9.77,60.7-26.64,63-22.79,3.11-57.4-58.79-70.68-112C1453,667.89,1491.21,554.37,1522.94,554Z" transform="translate(-267 -26)" style="fill:#133e39"/><path d="M1785.94,657v10.43c-5.84,2.42-18,2.11-45.18-4.43-7.35-1.77-14.92-3.78-22.59-6-13.42-3.87-27.19-8.37-40.74-13.28h0c-14.39-5.2-28.53-10.86-41.77-16.72-1.33-.58-2.62-1.17-3.92-1.75h0c-19.17-8.66-36.23-17.68-49.07-26.25-16.14-10.75-25.62-20.79-24.21-28.47a8.27,8.27,0,0,1,.42-1.53c.05-.12.11-.25.17-.37,1.34-3,4.61-5.64,9.4-7.79,8.84-4,22.88-6.32,39.63-6.6a247.22,247.22,0,0,1,90.57,16.29,185.84,185.84,0,0,1,20.61,9.48c.61.32,1.23.65,1.83,1a189,189,0,0,1,26.67,18A184.18,184.18,0,0,1,1776,627a107.2,107.2,0,0,1,10,14.54Z" transform="translate(-267 -26)" style="fill:#0e2f2b"/><path d="M1785.94,570.53v-70c-44.8-21.63-99.62-36.45-154.09-27.49-44.63,7.33-88.24,30.5-105.8,51.41a44.57,44.57,0,0,0-5.08,7.26,4.78,4.78,0,0,0-.23.45c-2.46,4.61-3.38,9-2.44,12.88.8,3.32,2.92,6.34,6.12,9.07a51.33,51.33,0,0,0,13.31,7.75q2.41,1,5,2a160,160,0,0,0,16.25,4.83c2.71.68,5.5,1.31,8.35,1.9,4.23.9,8.58,1.71,13,2.46h0c19.3,3.25,39.87,5.19,56.67,6.35h0c17,1.17,30.08,1.54,34.17,1.66,19.44.55,34.09-.11,48-1,19.85-1.24,38.16-2.92,66.71-2.1h.06Z" transform="translate(-267 -26)" style="fill:#133e39"/><path d="M1400.12,762c37.4-24.4,100.54-66.81,128.61-145,9.87-27.5,23.68-66,4.63-80-22.68-16.71-83.47,7.49-120.49,37-84.35,67.23-88.41,196.34-56.77,208C1364.47,785.09,1376.47,777.43,1400.12,762Z" transform="translate(-267 -26)" style="fill:#0e2f2b"/><path d="M1655,813c-26.4,7.92-62.85-28.67-81.1-47-82.94-83.28-97.68-219-52.14-240,30.06-13.89,83.89,23.35,108.91,47C1716.48,654.1,1700.4,799.38,1655,813Z" transform="translate(-267 -26)" style="fill:#0a1f1d"/></g><ellipse cx="435.06" cy="977.5" rx="31.86" ry="5.5" style="fill:#af8a70"/><ellipse cx="479.67" cy="992.2" rx="47.5" ry="8.2" style="fill:#e8c1a7"/><ellipse cx="408.41" cy="989.5" rx="15.64" ry="2.5" style="fill:#4a2d19"/><ellipse cx="886.26" cy="989.94" rx="5.5" ry="31.86" transform="translate(-372 1848.72) rotate(-89.91)" style="fill:#af8a70"/><ellipse cx="841.68" cy="975.17" rx="8.2" ry="47.5" transform="translate(-401.74 1789.4) rotate(-89.91)" style="fill:#e8c1a7"/><ellipse cx="912.93" cy="977.98" rx="2.5" ry="15.64" transform="translate(-333.41 1863.45) rotate(-89.91)" style="fill:#4a2d19"/></svg>