<?xml version="1.0" encoding="iso-8859-1"?>
<!-- Generator: Adobe Illustrator 22.0.0, SVG Export Plug-In . SVG Version: 6.00 Build 0)  -->
<svg version="1.1" id="Capa_1" xmlns="http://www.w3.org/2000/svg" xmlns:xlink="http://www.w3.org/1999/xlink" x="0px" y="0px"
	 viewBox="0 0 900 900" style="enable-background:new 0 0 900 900;" xml:space="preserve">
<path style="opacity:0.61;fill:#170000;" d="M662.772,691.595c-57.947,33.463-150.283,35.073-212.213,4.947l-61.033,35.488
	L139,587.331l373.634-213.814L761,516.056l-90.349,52.528C723.555,604.342,720.999,657.988,662.772,691.595z"/>
<g id="soporte_5_">
	<g>
		<polygon style="fill:#878787;" points="480.537,393.842 480.537,401.337 707.253,532.495 707.253,525 		"/>
		<polygon style="fill:#E7E7E7;" points="489.905,388.221 480.537,393.842 707.253,525 716.621,519.379 		"/>
		<polygon style="fill:#878787;" points="707.253,532.495 716.621,526.874 716.621,519.379 707.253,525 		"/>
	</g>
	<polygon style="fill:#E7E7E7;" points="704.442,521.253 711,517.505 509.579,183.989 498.337,183.989 	"/>
	<polygon style="fill:#CEA5A5;" points="488.968,397.589 495.526,393.842 695.74,297.797 703.655,302.37 	"/>
	<polygon style="fill:#878787;" points="487.095,178.368 498.979,185.391 704.442,521.253 693.389,514.964 	"/>
	<polygon style="fill:#5D3990;" points="488.968,397.589 495.526,401.337 704.442,303.905 695.074,298.284 	"/>
</g>
<g id="soporte_4_">
	<g>
		<polygon style="fill:#878787;" points="182.621,564.347 182.621,571.842 409.337,703 409.337,695.505 		"/>
		<polygon style="fill:#E7E7E7;" points="191.989,558.726 182.621,564.347 409.337,695.505 418.705,689.884 		"/>
		<polygon style="fill:#D1C1FF;" points="409.337,703 418.705,697.379 418.705,689.884 409.337,695.505 		"/>
	</g>
	<polygon style="fill:#E7E7E7;" points="406.526,691.758 413.084,688.01 211.663,354.495 200.421,354.495 	"/>
	<polygon style="fill:#CEA5A5;" points="191.053,568.095 197.611,564.347 397.825,468.302 405.739,472.875 	"/>
	<polygon style="fill:#878787;" points="189.179,348.874 201.064,355.896 406.526,691.758 395.474,685.469 	"/>
	<polygon style="fill:#878787;" points="188.242,566.221 197.611,571.842 406.526,474.411 394.347,466.916 	"/>
</g>
<g>
	<path style="fill:#8575B2;" d="M537.546,590.557l-40.141-30.106c0,0,4.713-6.116,7.025-7.025
		c12.851-5.051,66.233,37.131,66.233,37.131H537.546z"/>
	<path style="fill:#9D91BF;" d="M552.599,583.532c0,0-72.255,0-80.283,8.028c-2.888,2.888-4.636,12.31-3.011,16.057
		c1.302,3.001,11.039,7.025,11.039,7.025l6.021-15.053l65.23-6.021L552.599,583.532z"/>
	<path style="fill:#9D91BF;" d="M626.861,581.525l-7.025,7.025l-3.011-5.018l-57.201,11.039l-7.025-11.039
		c0,0,50.436-13.409,68.24-12.042C626.483,571.922,626.861,581.525,626.861,581.525z"/>
	<path style="fill:#D1C1FF;" d="M537.546,512.281v76.269l-55.194,50.177c0,0-1.033,7.024,0,9.032
		c0.988,1.919,7.025,5.018,7.025,5.018l62.219-53.187l45.159,39.138c3.68,0.334,8.098,3.24,11.039,1.004
		c2.977-2.264,1.338-7.359,2.007-11.039l-47.166-44.156V506.26L537.546,512.281z"/>
</g>
<g>
	<path style="fill:#353535;" d="M527.29,400.878c-0.552,7.025-1.485,13.939-2.991,19.81c-2.198,8.55-5.61,14.923-10.838,16.328
		c-1.987,0.542-4.486,0.432-7.687-1.074c-1.044-0.492-2.158-1.124-3.352-1.937l1.365-3.924c-0.301,0.01-0.632-0.02-0.963-0.07
		c-2.047-0.291-4.446-1.284-5.519,2.619c-1.586,0.763-3.221,1.555-4.917,2.378c-0.682,0.331-1.355,0.662-2.017,0.983
		c-6.192-1.736-13.698-4.044-21.446-5.449c4.255-12.966,12.093-27.316,25.47-40.693c3.221-3.221,9.032-5.018,17.06,1.004
		c1.746,1.305,3.322,2.459,4.747,3.462C521.921,398.329,525.243,400.076,527.29,400.878z"/>
</g>
<g>
	<path style="fill:#0F0F0F;" d="M497.305,432.63c-0.331,1.164-0.532,2.78-0.572,4.988c-1.897-0.401-4.034-0.973-6.362-1.626
		c0.662-0.321,1.335-0.652,2.017-0.983C494.083,434.186,495.719,433.393,497.305,432.63z"/>
</g>
<path style="fill:#007D7D;" d="M579.695,488.196c-18.224,19.077-48.762,13.297-71.251,9.032
	c-24.025-4.546-62.751-17.923-62.219-33.117c0.221-6.443,14.872-13.849,44.146-28.119c0.662-0.321,1.335-0.652,2.017-0.983
	c1.696-0.823,3.332-1.616,4.917-2.378c1.927-0.923,3.763-1.796,5.519-2.619c0.331,0.05,0.662,0.08,0.963,0.07l-1.365,3.924
	c1.194,0.813,2.308,1.445,3.352,1.937c3.201,1.505,5.7,1.616,7.687,1.074c5.228-1.405,8.64-7.777,10.838-16.328
	c12.253-4.707,17.05-4.937,21.275-4.747c5.168,0.231,32.364,1.465,43.152,22.078C597.538,454.848,591.055,476.304,579.695,488.196z"
	/>
<path style="fill:#E2E2E2;" d="M515.82,457.93c-6.74,7.58-17.89,7.89-20.97,7.98c-15.55,0.44-26.26-8.33-34.6-14.59
	c-0.25-0.19-0.72-0.81-1.2-1.46L483,433c1.73,0.49,5.8,2.55,7.37,2.99c0.01,0,0.01,0,0.01,0c2.32,0.65,4.46,1.22,6.35,1.63
	c4.54,0.98,7.08,0.58,8.66-0.9c0.2-0.19,0.4-0.41,0.62-0.67c2.45-3.03,5.68-10.89,8.4-18.32c1.06-2.89,2.04-5.72,2.87-8.17
	c0.07-0.22,0.14-0.43,0.21-0.64c0.02,0.16,0.03,0.33,0.05,0.49c0.2,2.11,0.43,4.15,0.67,6.11c0.51,4.23,1.1,8.11,1.72,11.55
	c0.18,0.99,0.4,2.18,0.63,3.55v0.01C521.75,437.98,522.86,450.02,515.82,457.93z"/>
<path d="M534.034,305.282"/>
<g id="superficie_2_">
	<g>
		<polygon style="fill:#9AABF3;" points="394.35,480.03 394.35,487.53 177,361.99 177,354.49 177.87,354.99 		"/>
		<path style="fill:#9AABF3;" d="M516.93,409.56c-0.83,2.45-1.81,5.28-2.87,8.17l-28.99,16.85l-26.76,15.56l-20.61,11.98
			l-17.96,10.44L394,487.53v-6.5l26.55-15.44l18.28-10.62l14.21-8.26l24.41-14.2L516.93,409.56z"/>
		<path style="fill:#9AABF3;" d="M716.62,292.66v7.5l-77.77,45.22L601.65,367l-83.44,48.52l-3.8,2.21c1.06-2.89,2.04-5.72,2.87-8.17
			l-39.48,22.95l-24.41,14.2l-14.21,8.26l-18.28,10.62l-26.55,15.44v-1l26.74-15.55l18.45-10.73l12.91-7.5l24.16-14.04l40.84-23.75
			l0.24-0.14l9.02-5.25l0.48-0.27l2.17-1.27l1.78-1.03l69.37-40.33l37.44-21.77l77.8-45.24L716.62,292.66z"/>
		<path style="fill:#9AABF3;" d="M577.13,213.61c-0.52-0.25-0.98-0.45-1.37-0.63c-1.33-0.61-29.01-12.6-53.96,2.97
			c-3.14,1.95-12.66,6.5-16.91,16.95c-16.52,40.54,12.36,47.93,26.42,69.16l-0.01,7.69c-15.47,27.84-16.59,69.33-13.85,98.71
			l-40.84,23.75l-24.16,14.04l-12.91,7.5l-18.45,10.73l-26.74,15.55L177.87,354.99L501.15,170L577.13,213.61z"/>
		<path style="fill:#9AABF3;" d="M716.62,293.66l-78.55,45.67l-37.41,21.75l-69.52,40.42l-0.55,0.32l-1.47,0.85l-1.95,1.14
			l-9.63,5.6l-0.26,0.15l-39.48,22.95l-24.41,14.2l-14.21,8.26l-18.28,10.62l-26.55,15.44L177,355.49l0.87-0.5l216.48,125.04
			l26.74-15.55l18.45-10.73l12.91-7.5l24.16-14.04l40.84-23.75c-2.74-29.38-1.62-70.87,13.85-98.71l0.01-7.69
			c-14.06-21.23-42.94-28.62-26.42-69.16c4.25-10.45,13.77-15,16.91-16.95c24.95-15.57,52.63-3.58,53.96-2.97
			c0.39,0.18,0.85,0.38,1.37,0.63l10.66,6.11l127.96,73.44L716.62,293.66z"/>
	</g>
</g>
<g id="bottom_2_">
	<g>
		<line style="fill:none;" x1="350.54" y1="339.626" x2="350.515" y2="339.211"/>
		<path style="fill:#9991BF;" d="M545.868,302.631l-0.007,1.133l-0.741,0.988l-2.222,0.988v-1.077l-121.198,69.975
			c-2.694,1.553-7.44,1.358-10.548-0.437l-58.19-33.598c-0.659-0.38-1.193-0.802-1.6-1.247c-0.294-0.321-0.521-0.652-0.681-0.988
			c0.094-0.249,0.232-0.489,0.412-0.719c0.296-0.38,0.706-0.731,1.235-1.037l122.36-70.644c2.691-1.553,7.437-1.358,10.546,0.437
			l58.193,33.598c0.556,0.321,1.022,0.672,1.398,1.04c0.393,0.383,0.689,0.785,0.884,1.195
			C545.772,302.369,545.824,302.5,545.868,302.631z"/>
		<path style="fill:#9991BF;" d="M544.182,306.093l-122.358,70.644c-2.694,1.553-7.44,1.358-10.548-0.437l-58.19-33.598
			c-1.425-0.822-2.269-1.844-2.504-2.859c-0.017-0.072-0.032-0.143-0.042-0.217l-0.025-0.415l-0.114-1.81
			c0.032,0.323,0.123,0.647,0.279,0.968c0.16,0.336,0.388,0.667,0.681,0.988c0.407,0.444,0.941,0.867,1.6,1.247l58.19,33.598
			c3.109,1.795,7.854,1.99,10.548,0.437l121.198-69.975v1.077l2.222-0.988l0.741-0.988l0.007-1.133
			C546.278,303.907,545.735,305.196,544.182,306.093z"/>
		<path style="fill:none;" d="M350.582,339.843c-0.017-0.072-0.032-0.143-0.042-0.217"/>
		<path style="fill:#9991BF;" d="M351.787,338.085l-0.425,1.272c-0.294-0.321-0.521-0.652-0.681-0.988
			c-0.156-0.321-0.247-0.644-0.279-0.968c0-0.005-0.002-0.012-0.002-0.02l-0.007-0.146c-0.002-0.01-0.002-0.02-0.002-0.027
			l0.704,0.442L351.787,338.085z"/>
		<polygon style="fill:#9991BF;" points="545.876,301.174 545.876,301.379 545.861,303.764 545.861,304.258 545.12,304.752 
			542.898,305.74 542.898,300.801 544.824,301.043 545.868,301.174 		"/>
	</g>
	<path style="fill:#373737;" d="M545.876,301.312v0.067c-0.002,0.291-0.059,0.58-0.168,0.859c-0.254,0.659-0.802,1.267-1.649,1.756
		l-1.16,0.669l-121.198,69.975c-2.694,1.553-7.44,1.358-10.548-0.437l-58.19-33.598c-0.659-0.38-1.193-0.802-1.6-1.247
		c-0.294-0.321-0.521-0.652-0.681-0.988c-0.156-0.321-0.247-0.644-0.279-0.968c0-0.005-0.002-0.012-0.002-0.02l-0.007-0.146
		c-0.002-0.01-0.002-0.02-0.002-0.027c-0.022-1.01,0.575-1.978,1.815-2.694l122.36-70.644c2.691-1.553,7.437-1.358,10.546,0.437
		l58.193,33.598c1.62,0.936,2.486,2.123,2.565,3.269C545.873,301.221,545.876,301.268,545.876,301.312z"/>
	<path style="fill:#898888;" d="M460.312,343.796l33.96-19.607c1.305-0.753,1.139-2.081-0.367-2.951l-8.787-5.073
		c-1.506-0.87-3.806-0.965-5.111-0.212l-33.96,19.607c-1.305,0.753-1.139,2.081,0.367,2.951l8.787,5.073
		C456.708,344.454,459.008,344.549,460.312,343.796z"/>
	<path style="fill:#292929;" d="M460.312,344.043l33.96-19.607c1.305-0.753,1.139-2.081-0.367-2.951l-8.787-5.073
		c-1.506-0.87-3.806-0.965-5.111-0.212l-33.96,19.607c-1.305,0.753-1.139,2.081,0.367,2.951l8.787,5.073
		C456.708,344.701,459.008,344.796,460.312,344.043z"/>
	<g id="teclado_5_">
		<g>
			<path style="fill:#0E0E0E;" d="M372.333,336.799l-5.842,3.373c-0.74,0.427-2.046,0.373-2.901-0.12l0,0
				c-0.855-0.494-0.949-1.247-0.208-1.675l5.842-3.373c0.74-0.427,2.046-0.373,2.901,0.12l0,0
				C372.979,335.618,373.073,336.372,372.333,336.799z"/>
			<path style="fill:#0E0E0E;" d="M381.72,331.379l-5.842,3.373c-0.74,0.427-2.046,0.373-2.901-0.12l0,0
				c-0.855-0.494-0.949-1.247-0.208-1.675l5.842-3.373c0.74-0.427,2.046-0.373,2.901,0.12l0,0
				C382.367,330.198,382.461,330.952,381.72,331.379z"/>
			<path style="fill:#0E0E0E;" d="M391.108,325.959l-5.842,3.373c-0.74,0.427-2.046,0.373-2.901-0.12l0,0
				c-0.855-0.494-0.949-1.247-0.208-1.675l5.842-3.373c0.74-0.427,2.046-0.373,2.901,0.12l0,0
				C391.755,324.778,391.849,325.532,391.108,325.959z"/>
			<path style="fill:#0E0E0E;" d="M400.496,320.539l-5.842,3.373c-0.74,0.427-2.046,0.373-2.901-0.12l0,0
				c-0.855-0.494-0.949-1.247-0.208-1.675l5.842-3.373c0.74-0.427,2.046-0.373,2.901,0.12l0,0
				C401.143,319.358,401.236,320.111,400.496,320.539z"/>
			<path style="fill:#0E0E0E;" d="M409.884,315.119l-5.842,3.373c-0.74,0.427-2.046,0.373-2.901-0.12l0,0
				c-0.855-0.494-0.949-1.247-0.208-1.675l5.842-3.373c0.74-0.427,2.046-0.373,2.901,0.12l0,0
				C410.53,313.938,410.624,314.691,409.884,315.119z"/>
			<path style="fill:#0E0E0E;" d="M419.116,309.788l-5.842,3.373c-0.74,0.427-2.046,0.373-2.901-0.12l0,0
				c-0.855-0.494-0.949-1.247-0.208-1.675l5.842-3.373c0.74-0.427,2.046-0.373,2.901,0.12l0,0
				C419.763,308.607,419.857,309.361,419.116,309.788z"/>
			<path style="fill:#0E0E0E;" d="M428.504,304.368l-5.842,3.373c-0.74,0.427-2.046,0.373-2.901-0.12l0,0
				c-0.855-0.494-0.949-1.247-0.208-1.675l5.842-3.373c0.74-0.427,2.046-0.373,2.901,0.12l0,0
				C429.151,303.187,429.245,303.941,428.504,304.368z"/>
			<path style="fill:#0E0E0E;" d="M437.892,298.948l-5.842,3.373c-0.74,0.427-2.046,0.373-2.901-0.12l0,0
				c-0.855-0.494-0.949-1.247-0.208-1.675l5.842-3.373c0.74-0.427,2.046-0.373,2.901,0.12l0,0
				C438.539,297.767,438.632,298.521,437.892,298.948z"/>
			<path style="fill:#0E0E0E;" d="M447.28,293.528l-5.842,3.373c-0.74,0.428-2.046,0.373-2.901-0.12l0,0
				c-0.855-0.494-0.949-1.247-0.208-1.675l5.842-3.373c0.74-0.427,2.046-0.373,2.901,0.12l0,0
				C447.926,292.347,448.02,293.101,447.28,293.528z"/>
			<path style="fill:#0E0E0E;" d="M456.667,288.108l-5.842,3.373c-0.74,0.427-2.046,0.373-2.901-0.12l0,0
				c-0.855-0.494-0.949-1.247-0.208-1.675l5.842-3.373c0.74-0.427,2.046-0.373,2.901,0.12l0,0
				C457.314,286.927,457.408,287.681,456.667,288.108z"/>
			<path style="fill:#0E0E0E;" d="M466.055,282.688l-5.842,3.373c-0.74,0.427-2.046,0.373-2.901-0.12l0,0
				c-0.855-0.494-0.949-1.247-0.208-1.675l5.842-3.373c0.74-0.427,2.046-0.373,2.901,0.12l0,0
				C466.702,281.507,466.796,282.261,466.055,282.688z"/>
			<path style="fill:#0E0E0E;" d="M475.443,277.268l-5.842,3.373c-0.74,0.427-2.046,0.373-2.901-0.12l0,0
				c-0.855-0.494-0.949-1.247-0.208-1.675l5.842-3.373c0.74-0.427,2.046-0.373,2.901,0.12l0,0
				C476.09,276.087,476.183,276.841,475.443,277.268z"/>
			<path style="fill:#0E0E0E;" d="M484.831,271.848l-5.842,3.373c-0.74,0.427-2.046,0.373-2.901-0.12l0,0
				c-0.855-0.494-0.949-1.247-0.208-1.675l5.842-3.373c0.74-0.427,2.046-0.373,2.901,0.12l0,0
				C485.478,270.667,485.571,271.421,484.831,271.848z"/>
		</g>
		<g>
			<path style="fill:#0E0E0E;" d="M376.447,341.181l-3.633,2.097c-1,0.577-2.762,0.504-3.916-0.162l-0.557-0.322
				c-1.154-0.666-1.281-1.684-0.281-2.261l3.633-2.097c1-0.577,2.762-0.504,3.916,0.162l0.557,0.322
				C377.32,339.587,377.447,340.604,376.447,341.181z"/>
			<path style="fill:#0E0E0E;" d="M384.441,336.566l-3.633,2.097c-1,0.577-2.762,0.504-3.916-0.162l-0.557-0.322
				c-1.154-0.666-1.281-1.684-0.281-2.261l3.633-2.097c1-0.577,2.762-0.504,3.916,0.162l0.557,0.322
				C385.315,334.971,385.441,335.988,384.441,336.566z"/>
			<path style="fill:#0E0E0E;" d="M392.436,331.95l-3.633,2.097c-1,0.577-2.762,0.504-3.916-0.162l-0.557-0.322
				c-1.154-0.666-1.281-1.684-0.281-2.261l3.633-2.097c1-0.577,2.762-0.504,3.916,0.162l0.557,0.322
				C393.309,330.355,393.436,331.373,392.436,331.95z"/>
			<path style="fill:#0E0E0E;" d="M400.43,327.334l-3.633,2.097c-1,0.577-2.762,0.504-3.916-0.162l-0.557-0.322
				c-1.154-0.666-1.281-1.684-0.281-2.261l3.633-2.097c1-0.577,2.762-0.504,3.916,0.162l0.557,0.322
				C401.304,325.74,401.43,326.757,400.43,327.334z"/>
			<path style="fill:#0E0E0E;" d="M408.425,322.719l-3.633,2.097c-1,0.577-2.762,0.504-3.916-0.162l-0.557-0.322
				c-1.154-0.666-1.281-1.684-0.281-2.261l3.633-2.097c1-0.577,2.762-0.504,3.916,0.162l0.557,0.322
				C409.298,321.124,409.425,322.141,408.425,322.719z"/>
			<path style="fill:#0E0E0E;" d="M416.287,318.179l-3.633,2.097c-1,0.577-2.762,0.504-3.916-0.162l-0.557-0.322
				c-1.154-0.666-1.281-1.684-0.281-2.261l3.633-2.097c1-0.577,2.762-0.504,3.916,0.162l0.557,0.322
				C417.161,316.585,417.287,317.602,416.287,318.179z"/>
			<path style="fill:#0E0E0E;" d="M424.282,313.564l-3.633,2.097c-1,0.577-2.762,0.504-3.916-0.162l-0.557-0.322
				c-1.154-0.666-1.281-1.684-0.281-2.261l3.633-2.097c1-0.577,2.762-0.504,3.916,0.162l0.557,0.322
				C425.155,311.969,425.282,312.986,424.282,313.564z"/>
			<path style="fill:#0E0E0E;" d="M432.276,308.948l-3.633,2.097c-1,0.577-2.762,0.504-3.916-0.162l-0.557-0.322
				c-1.154-0.666-1.281-1.684-0.281-2.261l3.633-2.097c1-0.577,2.762-0.504,3.916,0.162l0.557,0.322
				C433.15,307.353,433.276,308.371,432.276,308.948z"/>
			<path style="fill:#0E0E0E;" d="M440.271,304.332l-3.633,2.097c-1,0.577-2.762,0.504-3.916-0.162l-0.557-0.322
				c-1.154-0.666-1.281-1.684-0.281-2.261l3.633-2.097c1-0.577,2.762-0.504,3.916,0.162l0.557,0.322
				C441.144,302.738,441.271,303.755,440.271,304.332z"/>
			<path style="fill:#0E0E0E;" d="M448.266,299.717l-3.633,2.097c-1,0.577-2.762,0.504-3.916-0.162l-0.557-0.322
				c-1.154-0.666-1.281-1.684-0.281-2.261l3.633-2.097c1-0.577,2.762-0.504,3.916,0.162l0.557,0.322
				C449.139,298.122,449.265,299.14,448.266,299.717z"/>
			<path style="fill:#0E0E0E;" d="M456.26,295.101l-3.633,2.097c-1,0.577-2.762,0.504-3.916-0.162l-0.557-0.322
				c-1.154-0.666-1.281-1.684-0.281-2.261l3.633-2.097c1-0.577,2.762-0.504,3.916,0.162l0.557,0.322
				C457.133,293.506,457.26,294.524,456.26,295.101z"/>
			<path style="fill:#0E0E0E;" d="M464.255,290.485l-3.633,2.097c-1,0.577-2.762,0.504-3.916-0.162l-0.557-0.322
				c-1.154-0.666-1.281-1.684-0.281-2.261l3.633-2.097c1-0.577,2.762-0.504,3.916,0.162l0.557,0.322
				C465.128,288.891,465.254,289.908,464.255,290.485z"/>
			<path style="fill:#0E0E0E;" d="M472.249,285.87l-3.633,2.097c-1,0.577-2.762,0.504-3.916-0.162l-0.557-0.322
				c-1.154-0.666-1.281-1.684-0.281-2.261l3.633-2.097c1-0.577,2.762-0.504,3.916,0.162l0.557,0.322
				C473.122,284.275,473.249,285.293,472.249,285.87z"/>
		</g>
		<path style="fill:#0E0E0E;" d="M490.212,275.499l-12.65,7.303c-1,0.577-2.762,0.504-3.916-0.162l-0.557-0.322
			c-1.154-0.666-1.281-1.684-0.281-2.261l12.65-7.303c1-0.577,2.762-0.504,3.916,0.162l0.557,0.322
			C491.085,273.904,491.211,274.922,490.212,275.499z"/>
		<g>
			<path style="fill:#0E0E0E;" d="M395.292,337.058l-4.009,2.315c-1,0.577-2.762,0.504-3.916-0.162l-0.557-0.322
				c-1.154-0.666-1.281-1.684-0.281-2.261l4.009-2.315c1-0.577,2.762-0.504,3.916,0.162l0.557,0.322
				C396.166,335.464,396.292,336.481,395.292,337.058z"/>
			<path style="fill:#0E0E0E;" d="M403.702,332.203l-4.009,2.315c-1,0.577-2.762,0.504-3.916-0.162l-0.557-0.322
				c-1.154-0.666-1.281-1.684-0.281-2.261l4.009-2.315c1-0.577,2.762-0.504,3.916,0.162l0.557,0.322
				C404.575,330.609,404.701,331.626,403.702,332.203z"/>
			<path style="fill:#0E0E0E;" d="M412.111,327.348l-4.009,2.315c-1,0.577-2.762,0.504-3.916-0.162l-0.557-0.322
				c-1.154-0.666-1.281-1.684-0.281-2.261l4.009-2.315c1-0.577,2.762-0.504,3.916,0.162l0.557,0.322
				C412.984,325.753,413.111,326.771,412.111,327.348z"/>
			<path style="fill:#0E0E0E;" d="M420.52,322.493l-4.009,2.315c-1,0.577-2.762,0.504-3.916-0.162l-0.557-0.322
				c-1.154-0.666-1.281-1.684-0.281-2.261l4.009-2.315c1-0.577,2.762-0.504,3.916,0.162l0.557,0.322
				C421.393,320.898,421.52,321.916,420.52,322.493z"/>
			<path style="fill:#0E0E0E;" d="M428.929,317.638l-4.009,2.315c-1,0.577-2.762,0.504-3.916-0.162l-0.557-0.322
				c-1.154-0.666-1.281-1.684-0.281-2.261l4.009-2.315c1-0.577,2.762-0.504,3.916,0.162l0.557,0.322
				C429.802,316.043,429.929,317.061,428.929,317.638z"/>
			<path style="fill:#0E0E0E;" d="M437.199,312.863l-4.009,2.315c-1,0.577-2.762,0.504-3.916-0.162l-0.557-0.322
				c-1.154-0.666-1.281-1.684-0.281-2.261l4.009-2.315c1-0.577,2.762-0.504,3.916,0.162l0.557,0.322
				C438.073,311.269,438.199,312.286,437.199,312.863z"/>
			<path style="fill:#0E0E0E;" d="M445.609,308.008l-4.009,2.315c-1,0.577-2.762,0.504-3.916-0.162l-0.557-0.322
				c-1.154-0.666-1.281-1.684-0.281-2.261l4.009-2.315c1-0.577,2.762-0.504,3.916,0.162l0.557,0.322
				C446.482,306.414,446.608,307.431,445.609,308.008z"/>
			<path style="fill:#0E0E0E;" d="M454.018,303.153l-4.009,2.315c-1,0.577-2.762,0.504-3.916-0.162l-0.557-0.322
				c-1.154-0.666-1.281-1.684-0.281-2.261l4.009-2.315c1-0.577,2.762-0.504,3.916,0.162l0.557,0.322
				C454.891,301.558,455.018,302.576,454.018,303.153z"/>
			<path style="fill:#0E0E0E;" d="M462.427,298.298l-4.009,2.315c-1,0.577-2.762,0.504-3.916-0.162l-0.557-0.322
				c-1.154-0.666-1.281-1.684-0.281-2.261l4.009-2.315c1-0.577,2.762-0.504,3.916,0.162l0.557,0.322
				C463.3,296.703,463.427,297.721,462.427,298.298z"/>
			<path style="fill:#0E0E0E;" d="M470.836,293.443l-4.009,2.315c-1,0.577-2.762,0.504-3.916-0.162l-0.557-0.322
				c-1.154-0.666-1.281-1.684-0.281-2.261l4.009-2.315c1-0.577,2.762-0.504,3.916,0.162l0.557,0.322
				C471.709,291.848,471.836,292.866,470.836,293.443z"/>
			<path style="fill:#0E0E0E;" d="M479.245,288.588l-4.009,2.315c-1,0.577-2.762,0.504-3.916-0.162l-0.557-0.322
				c-1.154-0.666-1.281-1.684-0.281-2.261l4.009-2.315c1-0.577,2.762-0.504,3.916,0.162l0.557,0.322
				C480.119,286.993,480.245,288.011,479.245,288.588z"/>
		</g>
		<g>
			<path style="fill:#0E0E0E;" d="M401.176,340.208l-4.009,2.315c-1,0.577-2.762,0.504-3.916-0.162l-0.557-0.322
				c-1.154-0.666-1.281-1.684-0.281-2.261l4.009-2.315c1-0.577,2.762-0.504,3.916,0.162l0.557,0.322
				C402.049,338.613,402.175,339.631,401.176,340.208z"/>
			<path style="fill:#0E0E0E;" d="M409.585,335.353l-4.009,2.315c-1,0.577-2.762,0.504-3.916-0.162l-0.557-0.322
				c-1.154-0.666-1.281-1.684-0.281-2.261l4.009-2.315c1-0.577,2.762-0.504,3.916,0.162l0.557,0.322
				C410.458,333.758,410.584,334.776,409.585,335.353z"/>
			<path style="fill:#0E0E0E;" d="M417.994,330.498l-4.009,2.315c-1,0.577-2.762,0.504-3.916-0.162l-0.557-0.322
				c-1.154-0.666-1.281-1.684-0.281-2.261l4.009-2.315c1-0.577,2.762-0.504,3.916,0.162l0.557,0.322
				C418.867,328.903,418.994,329.921,417.994,330.498z"/>
			<path style="fill:#0E0E0E;" d="M426.403,325.643l-4.009,2.315c-1,0.577-2.762,0.504-3.916-0.162l-0.557-0.322
				c-1.154-0.666-1.281-1.684-0.281-2.261l4.009-2.315c1-0.577,2.762-0.504,3.916,0.162l0.557,0.322
				C427.276,324.048,427.403,325.066,426.403,325.643z"/>
			<path style="fill:#0E0E0E;" d="M434.812,320.788l-4.009,2.315c-1,0.577-2.762,0.504-3.916-0.162l-0.557-0.322
				c-1.154-0.666-1.281-1.684-0.281-2.261l4.009-2.315c1-0.577,2.762-0.504,3.916,0.162l0.557,0.322
				C435.686,319.193,435.812,320.211,434.812,320.788z"/>
			<path style="fill:#0E0E0E;" d="M443.083,316.013l-4.009,2.315c-1,0.577-2.762,0.504-3.916-0.162l-0.557-0.322
				c-1.154-0.666-1.281-1.684-0.281-2.261l4.009-2.315c1-0.577,2.762-0.504,3.916,0.162l0.557,0.322
				C443.956,314.418,444.082,315.436,443.083,316.013z"/>
			<path style="fill:#0E0E0E;" d="M451.492,311.158l-4.009,2.315c-1,0.577-2.762,0.504-3.916-0.162l-0.557-0.322
				c-1.154-0.666-1.281-1.684-0.281-2.261l4.009-2.315c1-0.577,2.762-0.504,3.916,0.162l0.557,0.322
				C452.365,309.563,452.491,310.581,451.492,311.158z"/>
			<path style="fill:#0E0E0E;" d="M459.901,306.303l-4.009,2.315c-1,0.577-2.762,0.504-3.916-0.162l-0.557-0.322
				c-1.154-0.666-1.281-1.684-0.281-2.261l4.009-2.315c1-0.577,2.762-0.504,3.916,0.162l0.557,0.322
				C460.774,304.708,460.901,305.726,459.901,306.303z"/>
			<path style="fill:#0E0E0E;" d="M468.31,301.448l-4.009,2.315c-1,0.577-2.762,0.504-3.916-0.162l-0.557-0.322
				c-1.154-0.666-1.281-1.684-0.281-2.261l4.009-2.315c1-0.577,2.762-0.504,3.916,0.162l0.557,0.322
				C469.183,299.853,469.31,300.871,468.31,301.448z"/>
			<path style="fill:#0E0E0E;" d="M476.719,296.593l-4.009,2.315c-1,0.577-2.762,0.504-3.916-0.162l-0.557-0.322
				c-1.154-0.666-1.281-1.684-0.281-2.261l4.009-2.315c1-0.577,2.762-0.504,3.916,0.162l0.557,0.322
				C477.593,294.998,477.719,296.016,476.719,296.593z"/>
			<path style="fill:#0E0E0E;" d="M484.915,291.861l-4.009,2.315c-1,0.577-2.762,0.504-3.916-0.162l-0.557-0.322
				c-1.154-0.666-1.281-1.684-0.281-2.261l4.009-2.315c1-0.577,2.762-0.504,3.916,0.162l0.557,0.322
				C485.788,290.266,485.914,291.284,484.915,291.861z"/>
		</g>
		<path style="fill:#0E0E0E;" d="M487.516,283.813l-4.009,2.315c-1,0.577-2.762,0.504-3.916-0.162l-0.557-0.322
			c-1.154-0.666-1.281-1.684-0.281-2.261l4.009-2.315c1-0.577,2.762-0.504,3.916,0.162l0.557,0.322
			C488.389,282.219,488.515,283.236,487.516,283.813z"/>
		<path style="fill:#0E0E0E;" d="M495.925,278.958l-4.009,2.315c-1,0.577-2.762,0.504-3.916-0.162l-0.557-0.322
			c-1.154-0.666-1.281-1.684-0.281-2.261l4.009-2.315c1-0.577,2.762-0.504,3.916,0.162l0.557,0.322
			C496.798,277.363,496.924,278.381,495.925,278.958z"/>
		<path style="fill:#0E0E0E;" d="M502.161,281.904l-12.65,7.303c-1,0.577-2.762,0.504-3.916-0.162l-0.557-0.322
			c-1.154-0.666-1.281-1.684-0.281-2.261l12.65-7.303c1-0.577,2.762-0.504,3.916,0.162l0.557,0.322
			C503.034,280.309,503.16,281.327,502.161,281.904z"/>
		<path style="fill:#0E0E0E;" d="M403.049,345.673l-12.65,7.303c-1,0.577-2.762,0.504-3.916-0.162l-0.557-0.322
			c-1.154-0.666-1.281-1.684-0.281-2.261l12.65-7.303c1-0.577,2.762-0.504,3.916,0.162l0.557,0.322
			C403.922,344.078,404.049,345.095,403.049,345.673z"/>
		<path style="fill:#0E0E0E;" d="M411.977,340.518l-4.009,2.315c-1,0.577-2.762,0.504-3.916-0.162l-0.557-0.322
			c-1.154-0.666-1.281-1.684-0.281-2.261l4.009-2.315c1-0.577,2.762-0.504,3.916,0.162l0.557,0.322
			C412.85,338.923,412.977,339.941,411.977,340.518z"/>
		<path style="fill:#0E0E0E;" d="M420.386,335.663l-4.009,2.315c-1,0.577-2.762,0.504-3.916-0.162l-0.557-0.322
			c-1.154-0.666-1.281-1.684-0.281-2.261l4.009-2.315c1-0.577,2.762-0.504,3.916,0.162l0.557,0.322
			C421.259,334.068,421.386,335.086,420.386,335.663z"/>
		<path style="fill:#0E0E0E;" d="M428.795,330.808l-4.009,2.315c-1,0.577-2.762,0.504-3.916-0.162l-0.557-0.322
			c-1.154-0.666-1.281-1.684-0.281-2.261l4.009-2.315c1-0.577,2.762-0.504,3.916,0.162l0.557,0.322
			C429.669,329.213,429.795,330.231,428.795,330.808z"/>
		<path style="fill:#0E0E0E;" d="M437.205,325.953l-4.009,2.315c-1,0.577-2.762,0.504-3.916-0.162l-0.557-0.322
			c-1.154-0.666-1.281-1.684-0.281-2.261l4.009-2.315c1-0.577,2.762-0.504,3.916,0.162l0.557,0.322
			C438.078,324.358,438.204,325.376,437.205,325.953z"/>
		<path style="fill:#0E0E0E;" d="M445.614,321.098l-4.009,2.315c-1,0.577-2.762,0.504-3.916-0.162l-0.557-0.322
			c-1.154-0.666-1.281-1.684-0.281-2.261l4.009-2.315c1-0.577,2.762-0.504,3.916,0.162l0.557,0.322
			C446.487,319.503,446.613,320.521,445.614,321.098z"/>
		<path style="fill:#0E0E0E;" d="M453.884,316.323l-4.009,2.315c-1,0.577-2.762,0.504-3.916-0.162l-0.557-0.322
			c-1.154-0.666-1.281-1.684-0.281-2.261l4.009-2.315c1-0.577,2.762-0.504,3.916,0.162l0.557,0.322
			C454.757,314.728,454.884,315.746,453.884,316.323z"/>
		<path style="fill:#0E0E0E;" d="M462.293,311.468l-4.009,2.315c-1,0.577-2.762,0.504-3.916-0.162l-0.557-0.322
			c-1.154-0.666-1.281-1.684-0.281-2.261l4.009-2.315c1-0.577,2.762-0.504,3.916,0.162l0.557,0.322
			C463.166,309.873,463.293,310.891,462.293,311.468z"/>
		<path style="fill:#0E0E0E;" d="M470.702,306.613l-4.009,2.315c-1,0.577-2.762,0.504-3.916-0.162l-0.557-0.322
			c-1.154-0.666-1.281-1.684-0.281-2.261l4.009-2.315c1-0.577,2.762-0.504,3.916,0.162l0.557,0.322
			C471.576,305.018,471.702,306.036,470.702,306.613z"/>
		<path style="fill:#0E0E0E;" d="M479.112,301.758l-4.009,2.315c-1,0.577-2.762,0.504-3.916-0.162l-0.557-0.322
			c-1.154-0.666-1.281-1.684-0.281-2.261l4.009-2.315c1-0.577,2.762-0.504,3.916,0.162l0.557,0.322
			C479.985,300.163,480.111,301.181,479.112,301.758z"/>
		<path style="fill:#0E0E0E;" d="M487.521,296.903l-4.009,2.315c-1,0.577-2.762,0.504-3.916-0.162l-0.557-0.322
			c-1.154-0.666-1.281-1.684-0.281-2.261l4.009-2.315c1-0.577,2.762-0.504,3.916,0.162l0.557,0.322
			C488.394,295.308,488.52,296.326,487.521,296.903z"/>
		<path style="fill:#0E0E0E;" d="M499.496,289.989l-4.009,2.315c-1,0.577-2.762,0.504-3.916-0.162l-0.557-0.322
			c-1.154-0.666-1.281-1.684-0.281-2.261l4.009-2.315c1-0.577,2.762-0.504,3.916,0.162l0.557,0.322
			C500.369,288.394,500.495,289.412,499.496,289.989z"/>
		<path style="fill:#0E0E0E;" d="M505.165,293.262l-4.009,2.315c-1,0.577-2.762,0.504-3.916-0.162l-0.557-0.322
			c-1.154-0.666-1.281-1.684-0.281-2.261l4.009-2.315c1-0.577,2.762-0.504,3.916,0.162l0.557,0.322
			C506.038,291.668,506.165,292.685,505.165,293.262z"/>
		<path style="fill:#0E0E0E;" d="M496.825,298.077l-4.009,2.315c-1,0.577-2.762,0.504-3.916-0.162l-0.557-0.322
			c-1.154-0.666-1.281-1.684-0.281-2.261l4.009-2.315c1-0.577,2.762-0.504,3.916,0.162l0.557,0.322
			C497.698,296.483,497.825,297.5,496.825,298.077z"/>
		<path style="fill:#0E0E0E;" d="M513.505,288.447l-4.009,2.315c-1,0.577-2.762,0.504-3.916-0.162l-0.557-0.322
			c-1.154-0.666-1.281-1.684-0.281-2.261l4.009-2.315c1-0.577,2.762-0.504,3.916,0.162l0.557,0.322
			C514.378,286.853,514.504,287.87,513.505,288.447z"/>
		<path style="fill:#0E0E0E;" d="M488.058,303.139l-4.009,2.315c-1,0.577-2.762,0.504-3.916-0.162l-0.557-0.322
			c-1.154-0.666-1.281-1.684-0.281-2.261l4.009-2.315c1-0.577,2.762-0.504,3.916,0.162l0.557,0.322
			C488.931,301.544,489.058,302.562,488.058,303.139z"/>
		<path style="fill:#0E0E0E;" d="M479.687,308.183l-4.009,2.315c-1,0.577-2.762,0.504-3.916-0.162l-0.557-0.322
			c-1.154-0.666-1.281-1.684-0.281-2.261l4.009-2.315c1-0.577,2.762-0.504,3.916,0.162l0.557,0.322
			C480.56,306.588,480.687,307.606,479.687,308.183z"/>
		<path style="fill:#0E0E0E;" d="M470.487,313.495l-40.415,23.334c-1,0.577-2.762,0.504-3.916-0.162l-0.557-0.322
			c-1.154-0.666-1.281-1.684-0.281-2.261l40.415-23.334c1-0.577,2.762-0.504,3.916,0.162l0.557,0.322
			C471.36,311.9,471.487,312.918,470.487,313.495z"/>
		<path style="fill:#0E0E0E;" d="M400.508,353.897l-4.009,2.315c-1,0.577-2.762,0.504-3.916-0.162l-0.557-0.322
			c-1.154-0.666-1.281-1.684-0.281-2.261l4.009-2.315c1-0.577,2.762-0.504,3.916,0.162l0.557,0.322
			C401.381,352.302,401.508,353.32,400.508,353.897z"/>
		<path style="fill:#0E0E0E;" d="M408.917,349.042l-4.009,2.315c-1,0.577-2.762,0.504-3.916-0.162l-0.557-0.322
			c-1.154-0.666-1.281-1.684-0.281-2.261l4.009-2.315c1-0.577,2.762-0.504,3.916,0.162l0.557,0.322
			C409.791,347.447,409.917,348.465,408.917,349.042z"/>
		<path style="fill:#0E0E0E;" d="M417.327,344.187l-4.009,2.315c-1,0.577-2.762,0.504-3.916-0.162l-0.557-0.322
			c-1.154-0.666-1.281-1.684-0.281-2.261l4.009-2.315c1-0.577,2.762-0.504,3.916,0.162l0.557,0.322
			C418.2,342.592,418.326,343.61,417.327,344.187z"/>
		<path style="fill:#0E0E0E;" d="M425.736,339.332l-4.009,2.315c-1,0.577-2.762,0.504-3.916-0.162l-0.557-0.322
			c-1.154-0.666-1.281-1.684-0.281-2.261l4.009-2.315c1-0.577,2.762-0.504,3.916,0.162l0.557,0.322
			C426.609,337.737,426.736,338.755,425.736,339.332z"/>
		<path style="fill:#0E0E0E;" d="M386.579,342.089l-7.518,4.34c-1,0.577-2.762,0.504-3.916-0.162l-0.557-0.322
			c-1.154-0.666-1.281-1.684-0.281-2.261l7.518-4.34c1-0.577,2.762-0.504,3.916,0.162l0.557,0.322
			C387.452,340.495,387.578,341.512,386.579,342.089z"/>
		<path style="fill:#0E0E0E;" d="M392.676,345.115l-7.518,4.34c-1,0.577-2.762,0.504-3.916-0.162l-0.557-0.322
			c-1.154-0.666-1.281-1.684-0.281-2.261l7.518-4.34c1-0.577,2.762-0.504,3.916,0.162l0.557,0.322
			C393.549,343.521,393.675,344.538,392.676,345.115z"/>
	</g>
	<g id="teclado_4_">
		<g>
			<path style="fill:#292929;" d="M372.218,336.552l-5.842,3.373c-0.74,0.427-2.046,0.373-2.901-0.12l0,0
				c-0.855-0.494-0.949-1.247-0.208-1.675l5.842-3.373c0.74-0.427,2.046-0.373,2.901,0.12l0,0
				C372.865,335.371,372.958,336.125,372.218,336.552z"/>
			<path style="fill:#292929;" d="M381.606,331.132l-5.842,3.373c-0.74,0.427-2.046,0.373-2.901-0.12l0,0
				c-0.855-0.494-0.949-1.247-0.208-1.675l5.842-3.373c0.74-0.428,2.046-0.373,2.901,0.12l0,0
				C382.253,329.951,382.346,330.705,381.606,331.132z"/>
			<path style="fill:#292929;" d="M390.994,325.712l-5.842,3.373c-0.74,0.427-2.046,0.373-2.901-0.12l0,0
				c-0.855-0.494-0.949-1.247-0.208-1.675l5.842-3.373c0.74-0.427,2.046-0.373,2.901,0.12l0,0
				C391.64,324.531,391.734,325.285,390.994,325.712z"/>
			<path style="fill:#292929;" d="M400.381,320.292l-5.842,3.373c-0.74,0.427-2.046,0.373-2.901-0.12l0,0
				c-0.855-0.494-0.949-1.247-0.208-1.675l5.842-3.373c0.74-0.427,2.046-0.373,2.901,0.12v0
				C401.028,319.111,401.122,319.865,400.381,320.292z"/>
			<path style="fill:#292929;" d="M409.769,314.872l-5.842,3.373c-0.74,0.427-2.046,0.373-2.901-0.12l0,0
				c-0.855-0.494-0.949-1.247-0.208-1.675l5.842-3.373c0.74-0.427,2.046-0.373,2.901,0.12l0,0
				C410.416,313.691,410.51,314.445,409.769,314.872z"/>
			<path style="fill:#292929;" d="M419.002,309.542l-5.842,3.373c-0.74,0.427-2.046,0.373-2.901-0.12h0
				c-0.855-0.494-0.949-1.247-0.208-1.675l5.842-3.373c0.74-0.427,2.046-0.373,2.901,0.12l0,0
				C419.648,308.36,419.742,309.114,419.002,309.542z"/>
			<path style="fill:#292929;" d="M428.39,304.122l-5.842,3.373c-0.74,0.427-2.046,0.373-2.901-0.12l0,0
				c-0.855-0.494-0.949-1.247-0.208-1.675l5.842-3.373c0.74-0.427,2.046-0.373,2.901,0.12l0,0
				C429.036,302.94,429.13,303.694,428.39,304.122z"/>
			<path style="fill:#292929;" d="M437.777,298.702l-5.842,3.373c-0.74,0.427-2.046,0.373-2.901-0.12l0,0
				c-0.855-0.494-0.949-1.247-0.208-1.675l5.842-3.373c0.74-0.427,2.046-0.373,2.901,0.12l0,0
				C438.424,297.52,438.518,298.274,437.777,298.702z"/>
			<path style="fill:#292929;" d="M447.165,293.281l-5.842,3.373c-0.74,0.427-2.046,0.373-2.901-0.12l0,0
				c-0.855-0.494-0.949-1.247-0.208-1.675l5.842-3.373c0.74-0.427,2.046-0.373,2.901,0.12l0,0
				C447.812,292.1,447.906,292.854,447.165,293.281z"/>
			<path style="fill:#292929;" d="M456.553,287.861l-5.842,3.373c-0.74,0.427-2.046,0.373-2.901-0.12l0,0
				c-0.855-0.494-0.949-1.247-0.208-1.675l5.842-3.373c0.74-0.427,2.046-0.373,2.901,0.12l0,0
				C457.2,286.68,457.293,287.434,456.553,287.861z"/>
			<path style="fill:#292929;" d="M465.941,282.441l-5.842,3.373c-0.74,0.427-2.046,0.373-2.901-0.12l0,0
				c-0.855-0.494-0.949-1.247-0.208-1.675l5.842-3.373c0.74-0.427,2.046-0.373,2.901,0.12l0,0
				C466.587,281.26,466.681,282.014,465.941,282.441z"/>
			<path style="fill:#292929;" d="M475.328,277.021l-5.842,3.373c-0.74,0.427-2.046,0.373-2.901-0.12l0,0
				c-0.855-0.494-0.949-1.247-0.208-1.675l5.842-3.373c0.74-0.427,2.046-0.373,2.901,0.12l0,0
				C475.975,275.84,476.069,276.594,475.328,277.021z"/>
			<path style="fill:#292929;" d="M484.716,271.601l-5.842,3.373c-0.74,0.427-2.046,0.373-2.901-0.12l0,0
				c-0.855-0.494-0.949-1.247-0.208-1.675l5.842-3.373c0.74-0.427,2.046-0.373,2.901,0.12l0,0
				C485.363,270.42,485.457,271.174,484.716,271.601z"/>
		</g>
		<g>
			<path style="fill:#292929;" d="M376.332,340.934l-3.633,2.097c-1,0.577-2.762,0.504-3.916-0.162l-0.557-0.322
				c-1.154-0.666-1.281-1.684-0.281-2.261l3.633-2.097c1-0.577,2.762-0.504,3.916,0.162l0.557,0.322
				C377.205,339.34,377.332,340.357,376.332,340.934z"/>
			<path style="fill:#292929;" d="M384.327,336.319l-3.633,2.097c-1,0.577-2.762,0.504-3.916-0.162l-0.557-0.322
				c-1.154-0.666-1.281-1.684-0.281-2.261l3.633-2.097c1-0.577,2.762-0.504,3.916,0.162l0.557,0.322
				C385.2,334.724,385.326,335.742,384.327,336.319z"/>
			<path style="fill:#292929;" d="M392.321,331.703l-3.633,2.097c-1,0.577-2.762,0.504-3.916-0.162l-0.557-0.322
				c-1.154-0.666-1.281-1.684-0.281-2.261l3.633-2.097c1-0.577,2.762-0.504,3.916,0.162l0.557,0.322
				C393.195,330.108,393.321,331.126,392.321,331.703z"/>
			<path style="fill:#292929;" d="M400.316,327.087l-3.633,2.097c-1,0.577-2.762,0.504-3.916-0.162l-0.557-0.322
				c-1.154-0.666-1.281-1.684-0.281-2.261l3.633-2.097c1-0.577,2.762-0.504,3.916,0.162l0.557,0.322
				C401.189,325.493,401.316,326.51,400.316,327.087z"/>
			<path style="fill:#292929;" d="M408.31,322.472l-3.633,2.097c-1,0.577-2.762,0.504-3.916-0.162l-0.557-0.322
				c-1.154-0.666-1.281-1.684-0.281-2.261l3.633-2.097c1-0.577,2.762-0.504,3.916,0.162l0.557,0.322
				C409.184,320.877,409.31,321.895,408.31,322.472z"/>
			<path style="fill:#292929;" d="M416.173,317.932l-3.633,2.097c-1,0.577-2.762,0.504-3.916-0.162l-0.557-0.322
				c-1.154-0.666-1.281-1.684-0.281-2.261l3.633-2.097c1-0.577,2.762-0.504,3.916,0.162l0.557,0.322
				C417.046,316.338,417.173,317.355,416.173,317.932z"/>
			<path style="fill:#292929;" d="M424.167,313.317l-3.633,2.097c-1,0.577-2.762,0.504-3.916-0.162l-0.557-0.322
				c-1.154-0.666-1.281-1.684-0.281-2.261l3.633-2.097c1-0.577,2.762-0.504,3.916,0.162l0.557,0.322
				C425.041,311.722,425.167,312.74,424.167,313.317z"/>
			<path style="fill:#292929;" d="M432.162,308.701l-3.633,2.097c-1,0.577-2.762,0.504-3.916-0.162l-0.557-0.322
				c-1.154-0.666-1.281-1.684-0.281-2.261l3.633-2.097c1-0.577,2.762-0.504,3.916,0.162l0.557,0.322
				C433.035,307.106,433.162,308.124,432.162,308.701z"/>
			<path style="fill:#292929;" d="M440.156,304.085l-3.633,2.097c-1,0.577-2.762,0.504-3.916-0.162l-0.557-0.322
				c-1.154-0.666-1.281-1.684-0.281-2.261l3.633-2.097c1-0.577,2.762-0.504,3.916,0.162l0.557,0.322
				C441.03,302.491,441.156,303.508,440.156,304.085z"/>
			<path style="fill:#292929;" d="M448.151,299.47l-3.633,2.097c-1,0.577-2.762,0.504-3.916-0.162l-0.557-0.322
				c-1.154-0.666-1.281-1.684-0.281-2.261l3.633-2.097c1-0.577,2.762-0.504,3.916,0.162l0.557,0.322
				C449.024,297.875,449.151,298.893,448.151,299.47z"/>
			<path style="fill:#292929;" d="M456.146,294.854l-3.633,2.097c-1,0.577-2.762,0.504-3.916-0.162l-0.557-0.322
				c-1.154-0.666-1.281-1.684-0.281-2.261l3.633-2.097c1-0.577,2.762-0.504,3.916,0.162l0.557,0.322
				C457.019,293.259,457.145,294.277,456.146,294.854z"/>
			<path style="fill:#292929;" d="M464.14,290.238l-3.633,2.097c-1,0.577-2.762,0.504-3.916-0.162l-0.557-0.322
				c-1.154-0.666-1.281-1.684-0.281-2.261l3.633-2.097c1-0.577,2.762-0.504,3.916,0.162l0.557,0.322
				C465.013,288.644,465.14,289.661,464.14,290.238z"/>
			<path style="fill:#292929;" d="M472.135,285.623l-3.633,2.097c-1,0.577-2.762,0.504-3.916-0.162l-0.557-0.322
				c-1.154-0.666-1.281-1.684-0.281-2.261l3.633-2.097c1-0.577,2.762-0.504,3.916,0.162l0.557,0.322
				C473.008,284.028,473.134,285.046,472.135,285.623z"/>
		</g>
		<path style="fill:#292929;" d="M490.097,275.252l-12.65,7.303c-1,0.577-2.762,0.504-3.916-0.162l-0.557-0.322
			c-1.154-0.666-1.281-1.684-0.281-2.261l12.65-7.303c1-0.577,2.762-0.504,3.916,0.162l0.557,0.322
			C490.97,273.658,491.097,274.675,490.097,275.252z"/>
		<g>
			<path style="fill:#292929;" d="M395.178,336.811l-4.009,2.315c-1,0.577-2.762,0.504-3.916-0.162l-0.557-0.322
				c-1.154-0.666-1.281-1.684-0.281-2.261l4.009-2.315c1-0.577,2.762-0.504,3.916,0.162l0.557,0.322
				C396.051,335.217,396.178,336.234,395.178,336.811z"/>
			<path style="fill:#292929;" d="M403.587,331.956l-4.009,2.315c-1,0.577-2.762,0.504-3.916-0.162l-0.557-0.322
				c-1.154-0.666-1.281-1.684-0.281-2.261l4.009-2.315c1-0.577,2.762-0.504,3.916,0.162l0.557,0.322
				C404.46,330.362,404.587,331.379,403.587,331.956z"/>
			<path style="fill:#292929;" d="M411.996,327.101l-4.009,2.315c-1,0.577-2.762,0.504-3.916-0.162l-0.557-0.322
				c-1.154-0.666-1.281-1.684-0.281-2.261l4.009-2.315c1-0.577,2.762-0.504,3.916,0.162l0.557,0.322
				C412.869,325.507,412.996,326.524,411.996,327.101z"/>
			<path style="fill:#292929;" d="M420.405,322.246l-4.009,2.315c-1,0.577-2.762,0.504-3.916-0.162l-0.557-0.322
				c-1.154-0.666-1.281-1.684-0.281-2.261l4.009-2.315c1-0.577,2.762-0.504,3.916,0.162l0.557,0.322
				C421.279,320.652,421.405,321.669,420.405,322.246z"/>
			<path style="fill:#292929;" d="M428.815,317.391l-4.009,2.315c-1,0.577-2.762,0.504-3.916-0.162l-0.557-0.322
				c-1.154-0.666-1.281-1.684-0.281-2.261l4.009-2.315c1-0.577,2.762-0.504,3.916,0.162l0.557,0.322
				C429.688,315.796,429.814,316.814,428.815,317.391z"/>
			<path style="fill:#292929;" d="M437.085,312.616l-4.009,2.315c-1,0.577-2.762,0.504-3.916-0.162l-0.557-0.322
				c-1.154-0.666-1.281-1.684-0.281-2.261l4.009-2.315c1-0.577,2.762-0.504,3.916,0.162l0.557,0.322
				C437.958,311.022,438.085,312.039,437.085,312.616z"/>
			<path style="fill:#292929;" d="M445.494,307.761l-4.009,2.315c-1,0.577-2.762,0.504-3.916-0.162l-0.557-0.322
				c-1.154-0.666-1.281-1.684-0.281-2.261l4.009-2.315c1-0.577,2.762-0.504,3.916,0.162l0.557,0.322
				C446.367,306.167,446.494,307.184,445.494,307.761z"/>
			<path style="fill:#292929;" d="M453.903,302.906l-4.009,2.315c-1,0.577-2.762,0.504-3.916-0.162l-0.557-0.322
				c-1.154-0.666-1.281-1.684-0.281-2.261l4.009-2.315c1-0.577,2.762-0.504,3.916,0.162l0.557,0.322
				C454.776,301.312,454.903,302.329,453.903,302.906z"/>
			<path style="fill:#292929;" d="M462.312,298.051l-4.009,2.315c-1,0.577-2.762,0.504-3.916-0.162l-0.557-0.322
				c-1.154-0.666-1.281-1.684-0.281-2.261l4.009-2.315c1-0.577,2.762-0.504,3.916,0.162l0.557,0.322
				C463.186,296.457,463.312,297.474,462.312,298.051z"/>
			<path style="fill:#292929;" d="M470.722,293.196l-4.009,2.315c-1,0.577-2.762,0.504-3.916-0.162l-0.557-0.322
				c-1.154-0.666-1.281-1.684-0.281-2.261l4.009-2.315c1-0.577,2.762-0.504,3.916,0.162l0.557,0.322
				C471.595,291.601,471.721,292.619,470.722,293.196z"/>
			<path style="fill:#292929;" d="M479.131,288.341l-4.009,2.315c-1,0.577-2.762,0.504-3.916-0.162l-0.557-0.322
				c-1.154-0.666-1.281-1.684-0.281-2.261l4.009-2.315c1-0.577,2.762-0.504,3.916,0.162l0.557,0.322
				C480.004,286.746,480.13,287.764,479.131,288.341z"/>
		</g>
		<g>
			<path style="fill:#292929;" d="M401.061,339.961l-4.009,2.315c-1,0.577-2.762,0.504-3.916-0.162l-0.557-0.322
				c-1.154-0.666-1.281-1.684-0.281-2.261l4.009-2.315c1-0.577,2.762-0.504,3.916,0.162l0.557,0.322
				C401.934,338.366,402.061,339.384,401.061,339.961z"/>
			<path style="fill:#292929;" d="M409.47,335.106l-4.009,2.315c-1,0.577-2.762,0.504-3.916-0.162l-0.557-0.322
				c-1.154-0.666-1.281-1.684-0.281-2.261l4.009-2.315c1-0.577,2.762-0.504,3.916,0.162l0.557,0.322
				C410.343,333.511,410.47,334.529,409.47,335.106z"/>
			<path style="fill:#292929;" d="M417.879,330.251l-4.009,2.315c-1,0.577-2.762,0.504-3.916-0.162l-0.557-0.322
				c-1.154-0.666-1.281-1.684-0.281-2.261l4.009-2.315c1-0.577,2.762-0.504,3.916,0.162l0.557,0.322
				C418.753,328.656,418.879,329.674,417.879,330.251z"/>
			<path style="fill:#292929;" d="M426.289,325.396l-4.009,2.315c-1,0.577-2.762,0.504-3.916-0.162l-0.557-0.322
				c-1.154-0.666-1.281-1.684-0.281-2.261l4.009-2.315c1-0.577,2.762-0.504,3.916,0.162l0.557,0.322
				C427.162,323.801,427.288,324.819,426.289,325.396z"/>
			<path style="fill:#292929;" d="M434.698,320.541l-4.009,2.315c-1,0.577-2.762,0.504-3.916-0.162l-0.557-0.322
				c-1.154-0.666-1.281-1.684-0.281-2.261l4.009-2.315c1-0.577,2.762-0.504,3.916,0.162l0.557,0.322
				C435.571,318.946,435.697,319.964,434.698,320.541z"/>
			<path style="fill:#292929;" d="M442.968,315.766l-4.009,2.315c-1,0.577-2.762,0.504-3.916-0.162l-0.557-0.322
				c-1.154-0.666-1.281-1.684-0.281-2.261l4.009-2.315c1-0.577,2.762-0.504,3.916,0.162l0.557,0.322
				C443.841,314.171,443.968,315.189,442.968,315.766z"/>
			<path style="fill:#292929;" d="M451.377,310.911l-4.009,2.315c-1,0.577-2.762,0.504-3.916-0.162l-0.557-0.322
				c-1.154-0.666-1.281-1.684-0.281-2.261l4.009-2.315c1-0.577,2.762-0.504,3.916,0.162l0.557,0.322
				C452.25,309.316,452.377,310.334,451.377,310.911z"/>
			<path style="fill:#292929;" d="M459.786,306.056l-4.009,2.315c-1,0.577-2.762,0.504-3.916-0.162l-0.557-0.322
				c-1.154-0.666-1.281-1.684-0.281-2.261l4.009-2.315c1-0.577,2.762-0.504,3.916,0.162l0.557,0.322
				C460.66,304.461,460.786,305.479,459.786,306.056z"/>
			<path style="fill:#292929;" d="M468.196,301.201l-4.009,2.315c-1,0.577-2.762,0.504-3.916-0.162l-0.557-0.322
				c-1.154-0.666-1.281-1.684-0.281-2.261l4.009-2.315c1-0.577,2.762-0.504,3.916,0.162l0.557,0.322
				C469.069,299.606,469.195,300.624,468.196,301.201z"/>
			<path style="fill:#292929;" d="M476.605,296.346l-4.009,2.315c-1,0.577-2.762,0.504-3.916-0.162l-0.557-0.322
				c-1.154-0.666-1.281-1.684-0.281-2.261l4.009-2.315c1-0.577,2.762-0.504,3.916,0.162l0.557,0.322
				C477.478,294.751,477.604,295.769,476.605,296.346z"/>
			<path style="fill:#292929;" d="M484.8,291.614l-4.009,2.315c-1,0.577-2.762,0.504-3.916-0.162l-0.557-0.322
				c-1.154-0.666-1.281-1.684-0.281-2.261l4.009-2.315c1-0.577,2.762-0.504,3.916,0.162l0.557,0.322
				C485.673,290.02,485.8,291.037,484.8,291.614z"/>
		</g>
		<path style="fill:#292929;" d="M487.401,283.566l-4.009,2.315c-1,0.577-2.762,0.504-3.916-0.162l-0.557-0.322
			c-1.154-0.666-1.281-1.684-0.281-2.261l4.009-2.315c1-0.577,2.762-0.504,3.916,0.162l0.557,0.322
			C488.274,281.972,488.401,282.989,487.401,283.566z"/>
		<path style="fill:#292929;" d="M495.81,278.711l-4.009,2.315c-1,0.577-2.762,0.504-3.916-0.162l-0.557-0.322
			c-1.154-0.666-1.281-1.684-0.281-2.261l4.009-2.315c1-0.577,2.762-0.504,3.916,0.162l0.557,0.322
			C496.683,277.117,496.81,278.134,495.81,278.711z"/>
		<path style="fill:#292929;" d="M502.046,281.657l-12.65,7.303c-1,0.577-2.762,0.504-3.916-0.162l-0.557-0.322
			c-1.154-0.666-1.281-1.684-0.281-2.261l12.65-7.303c1-0.577,2.762-0.504,3.916,0.162l0.557,0.322
			C502.919,280.063,503.046,281.08,502.046,281.657z"/>
		<path style="fill:#292929;" d="M402.935,345.426l-12.65,7.303c-1,0.577-2.762,0.504-3.916-0.162l-0.557-0.322
			c-1.154-0.666-1.281-1.684-0.281-2.261l12.65-7.303c1-0.577,2.762-0.504,3.916,0.162l0.557,0.322
			C403.808,343.831,403.934,344.848,402.935,345.426z"/>
		<path style="fill:#292929;" d="M411.862,340.271l-4.009,2.315c-1,0.577-2.762,0.504-3.916-0.162l-0.557-0.322
			c-1.154-0.666-1.281-1.684-0.281-2.261l4.009-2.315c1-0.577,2.762-0.504,3.916,0.162l0.557,0.322
			C412.736,338.677,412.862,339.694,411.862,340.271z"/>
		<path style="fill:#292929;" d="M420.272,335.416l-4.009,2.315c-1,0.577-2.762,0.504-3.916-0.162l-0.557-0.322
			c-1.154-0.666-1.281-1.684-0.281-2.261l4.009-2.315c1-0.577,2.762-0.504,3.916,0.162l0.557,0.322
			C421.145,333.821,421.271,334.839,420.272,335.416z"/>
		<path style="fill:#292929;" d="M428.681,330.561l-4.009,2.315c-1,0.577-2.762,0.504-3.916-0.162l-0.557-0.322
			c-1.154-0.666-1.281-1.684-0.281-2.261l4.009-2.315c1-0.577,2.762-0.504,3.916,0.162l0.557,0.322
			C429.554,328.966,429.68,329.984,428.681,330.561z"/>
		<path style="fill:#292929;" d="M437.09,325.706l-4.009,2.315c-1,0.577-2.762,0.504-3.916-0.162l-0.557-0.322
			c-1.154-0.666-1.281-1.684-0.281-2.261l4.009-2.315c1-0.577,2.762-0.504,3.916,0.162l0.557,0.322
			C437.963,324.111,438.09,325.129,437.09,325.706z"/>
		<path style="fill:#292929;" d="M445.499,320.851l-4.009,2.315c-1,0.577-2.762,0.504-3.916-0.162l-0.557-0.322
			c-1.154-0.666-1.281-1.684-0.281-2.261l4.009-2.315c1-0.577,2.762-0.504,3.916,0.162l0.557,0.322
			C446.372,319.256,446.499,320.274,445.499,320.851z"/>
		<path style="fill:#292929;" d="M453.769,316.076l-4.009,2.315c-1,0.577-2.762,0.504-3.916-0.162l-0.557-0.322
			c-1.154-0.666-1.281-1.684-0.281-2.261l4.009-2.315c1-0.577,2.762-0.504,3.916,0.162l0.557,0.322
			C454.643,314.482,454.769,315.499,453.769,316.076z"/>
		<path style="fill:#292929;" d="M462.179,311.221l-4.009,2.315c-1,0.577-2.762,0.504-3.916-0.162l-0.557-0.322
			c-1.154-0.666-1.281-1.684-0.281-2.261l4.009-2.315c1-0.577,2.762-0.504,3.916,0.162l0.557,0.322
			C463.052,309.626,463.178,310.644,462.179,311.221z"/>
		<path style="fill:#292929;" d="M470.588,306.366l-4.009,2.315c-1,0.577-2.762,0.504-3.916-0.162l-0.557-0.322
			c-1.154-0.666-1.281-1.684-0.281-2.261l4.009-2.315c1-0.577,2.762-0.504,3.916,0.162l0.557,0.322
			C471.461,304.771,471.587,305.789,470.588,306.366z"/>
		<path style="fill:#292929;" d="M478.997,301.511l-4.009,2.315c-1,0.577-2.762,0.504-3.916-0.162l-0.557-0.322
			c-1.154-0.666-1.281-1.684-0.281-2.261l4.009-2.315c1-0.577,2.762-0.504,3.916,0.162l0.557,0.322
			C479.87,299.916,479.997,300.934,478.997,301.511z"/>
		<path style="fill:#292929;" d="M487.406,296.656l-4.009,2.315c-1,0.577-2.762,0.504-3.916-0.162l-0.557-0.322
			c-1.154-0.666-1.281-1.684-0.281-2.261l4.009-2.315c1-0.577,2.762-0.504,3.916,0.162l0.557,0.322
			C488.279,295.061,488.406,296.079,487.406,296.656z"/>
		<path style="fill:#292929;" d="M499.381,289.742l-4.009,2.315c-1,0.577-2.762,0.504-3.916-0.162l-0.557-0.322
			c-1.154-0.666-1.281-1.684-0.281-2.261l4.009-2.315c1-0.577,2.762-0.504,3.916,0.162l0.557,0.322
			C500.254,288.148,500.381,289.165,499.381,289.742z"/>
		<path style="fill:#292929;" d="M505.05,293.015l-4.009,2.315c-1,0.577-2.762,0.504-3.916-0.162l-0.557-0.322
			c-1.154-0.666-1.281-1.684-0.281-2.261l4.009-2.315c1-0.577,2.762-0.504,3.916,0.162l0.557,0.322
			C505.924,291.421,506.05,292.438,505.05,293.015z"/>
		<path style="fill:#292929;" d="M496.711,297.83l-4.009,2.315c-1,0.577-2.762,0.504-3.916-0.162l-0.557-0.322
			c-1.154-0.666-1.281-1.684-0.281-2.261l4.009-2.315c1-0.577,2.762-0.504,3.916,0.162l0.557,0.322
			C497.584,296.236,497.71,297.253,496.711,297.83z"/>
		<path style="fill:#292929;" d="M513.39,288.201l-4.009,2.315c-1,0.577-2.762,0.504-3.916-0.162l-0.557-0.322
			c-1.154-0.666-1.281-1.684-0.281-2.261l4.009-2.315c1-0.577,2.762-0.504,3.916,0.162l0.557,0.322
			C514.263,286.606,514.39,287.623,513.39,288.201z"/>
		<path style="fill:#292929;" d="M487.943,302.892l-4.009,2.315c-1,0.577-2.762,0.504-3.916-0.162l-0.557-0.322
			c-1.154-0.666-1.281-1.684-0.281-2.261l4.009-2.315c1-0.577,2.762-0.504,3.916,0.162l0.557,0.322
			C488.817,301.298,488.943,302.315,487.943,302.892z"/>
		<path style="fill:#292929;" d="M479.573,307.936l-4.009,2.315c-1,0.577-2.762,0.504-3.916-0.162l-0.557-0.322
			c-1.154-0.666-1.281-1.684-0.281-2.261l4.009-2.315c1-0.577,2.762-0.504,3.916,0.162l0.557,0.322
			C480.446,306.341,480.572,307.359,479.573,307.936z"/>
		<path style="fill:#292929;" d="M470.372,313.248l-40.415,23.334c-1,0.577-2.762,0.504-3.916-0.162l-0.557-0.322
			c-1.154-0.666-1.281-1.684-0.281-2.261l40.415-23.334c1-0.577,2.762-0.504,3.916,0.162l0.557,0.322
			C471.245,311.653,471.372,312.671,470.372,313.248z"/>
		<path style="fill:#292929;" d="M400.394,353.65l-4.009,2.315c-1,0.577-2.762,0.504-3.916-0.162l-0.557-0.322
			c-1.154-0.666-1.281-1.684-0.281-2.261l4.009-2.315c1-0.577,2.762-0.504,3.916,0.162l0.557,0.322
			C401.267,352.056,401.393,353.073,400.394,353.65z"/>
		<path style="fill:#292929;" d="M408.803,348.795l-4.009,2.315c-1,0.577-2.762,0.504-3.916-0.162l-0.557-0.322
			c-1.154-0.666-1.281-1.684-0.281-2.261l4.009-2.315c1-0.577,2.762-0.504,3.916,0.162l0.557,0.322
			C409.676,347.2,409.803,348.218,408.803,348.795z"/>
		<path style="fill:#292929;" d="M417.212,343.94l-4.009,2.315c-1,0.577-2.762,0.504-3.916-0.162l-0.557-0.322
			c-1.154-0.666-1.281-1.684-0.281-2.261l4.009-2.315c1-0.577,2.762-0.504,3.916,0.162l0.557,0.322
			C418.085,342.345,418.212,343.363,417.212,343.94z"/>
		<path style="fill:#292929;" d="M425.621,339.085l-4.009,2.315c-1,0.577-2.762,0.504-3.916-0.162l-0.557-0.322
			c-1.154-0.666-1.281-1.684-0.281-2.261l4.009-2.315c1-0.577,2.762-0.504,3.916,0.162l0.557,0.322
			C426.494,337.49,426.621,338.508,425.621,339.085z"/>
		<path style="fill:#292929;" d="M386.464,341.842l-7.518,4.34c-1,0.577-2.762,0.504-3.916-0.162l-0.557-0.322
			c-1.154-0.666-1.281-1.684-0.281-2.261l7.518-4.34c1-0.577,2.762-0.504,3.916,0.162l0.557,0.322
			C387.337,340.248,387.464,341.265,386.464,341.842z"/>
		<path style="fill:#292929;" d="M392.561,344.869l-7.518,4.34c-1,0.577-2.762,0.504-3.916-0.162l-0.557-0.322
			c-1.154-0.666-1.281-1.684-0.281-2.261l7.518-4.34c1-0.577,2.762-0.504,3.916,0.162l0.557,0.322
			C393.434,343.274,393.561,344.291,392.561,344.869z"/>
	</g>
</g>
<g id="screen_2_">
	<path style="fill:#CCC1FF;" d="M474.254,263.272l-122.36,70.644c-2.692,1.554-4.895-0.111-4.895-3.7v-80.189
		c0-3.589,2.203-7.798,4.895-9.352l122.36-70.644c2.692-1.554,4.895,0.111,4.895,3.7v80.189
		C479.149,257.51,476.946,261.718,474.254,263.272z"/>
	<g>
		<path style="fill:#1A1A1A;" d="M351.445,334.375c-1.725,0-2.84-1.633-2.84-4.159v-80.189c0-3.559,2.168-7.707,4.833-9.245
			l122.359-70.645c0.65-0.375,1.28-0.566,1.87-0.566c1.726,0,2.841,1.633,2.841,4.159v80.189c0,3.559-2.169,7.707-4.834,9.246
			L353.314,333.81C352.664,334.185,352.035,334.375,351.445,334.375z"/>
		<path d="M477.667,169.695L477.667,169.695c1.65,0,2.716,1.584,2.716,4.036v80.189c0,3.52-2.14,7.619-4.771,9.138l-122.36,70.644
			c-0.631,0.365-1.24,0.549-1.808,0.549c-1.65,0-2.716-1.584-2.716-4.036v-80.189c0-3.52,2.14-7.619,4.771-9.138l122.36-70.644
			C476.491,169.88,477.099,169.695,477.667,169.695 M477.667,169.448c-0.593,0-1.247,0.187-1.931,0.582l-122.36,70.644
			c-2.692,1.554-4.895,5.763-4.895,9.352v80.189c0,2.676,1.224,4.283,2.963,4.283c0.593,0,1.247-0.187,1.931-0.582l122.36-70.644
			c2.692-1.554,4.895-5.763,4.895-9.352v-80.189C480.631,171.055,479.406,169.448,477.667,169.448L477.667,169.448z"/>
	</g>
	<g>
		<polygon style="fill:#282828;" points="477.316,257.943 351.796,330.412 351.796,246.986 477.316,174.517 		"/>
	</g>
	
		<ellipse transform="matrix(0.5047 -0.8633 0.8633 0.5047 25.449 461.023)" style="fill:#E7E4F0;" cx="414.494" cy="208.333" rx="1.809" ry="1.044"/>
</g>
<path style="fill:#F6F5F5;" d="M492.199,304.728c-3.26,1.494,0.697,5.495,1.326,10.656c1.012,8.307-4.487-3.04,13.884,14.558
	c22.308,21.37,25.805,22.11,28.915,21.95c9.317-0.479,12.885-8.913,25.366-8.65c3.793,0.08,9.425,0.198,13.234,4
	c8.721,8.703-3.216,25.625,3.419,37.364c6.996,12.377,32.973,16.047,46.294,5.271c19.68-15.919,10.87-62.659-9.432-87.733
	c-4.919-6.075-11.283-13.715-21.191-15.193c-16.702-2.491-27.791,15.318-48.447,41.179c-11.88-2.497-20.933-4.263-25.642-8.394
	c-9.256-8.12-9.158-7.884-9.157-7.885"/>
<path style="fill:#F6F5F5;" d="M429.164,331.644c-3.289,2.073-3.563,2.787-2.007,8.028c2.505,8.438,8.177,13.844,31.11,29.103
	c27.849,18.529,45.821,18.731,49.173,18.064c10.04-1.999,12.042-9.032,12.042-13.046c0-4.167,10.272-1.314,15.053,2.007
	c10.946,7.604,0.841,27.049,10.035,38.134c9.694,11.687,38.533,11.297,51.18-2.007c18.685-19.655,1.207-66.628-25.088-89.315
	c-6.371-5.497-14.577-12.381-25.59-12.313c-18.564,0.114-27.597,20.341-45.661,50.447c-13.328-0.67-22.286-4.511-28.099-8.028
	c-11.428-6.915-30.106-16.056-30.106-16.057"/>
<path style="fill:#BBDEF0;" d="M439.18,454.97l-18.28,10.62c0.06-0.37,0.12-0.74,0.19-1.11l18.45-10.73l12.91-7.5l24.16-14.04
	c0.4,0.1,0.8,0.2,1.19,0.3l-24.41,14.2L439.18,454.97z"/>
<path style="fill:#919191;" d="M467.65,562.1c-9.09-5.03-27.09-16.74-37.97-38.79c-7.63-15.45-9.85-36.15-8.59-52.75l15.92-9.25
	c-0.13,7.57,2.46,17.78,6.41,24.65c2.32,4.05,5.24,7.23,8.49,9.84C447.1,514.09,450.72,538.96,467.65,562.1z"/>
<g>
	<linearGradient id="SVGID_1_" gradientUnits="userSpaceOnUse" x1="437.0053" y1="353.3744" x2="606.4099" y2="353.3744">
		<stop  offset="0" style="stop-color:#FFFFFF"/>
		<stop  offset="1" style="stop-color:#E6E6E6"/>
	</linearGradient>
	<path style="fill:url(#SVGID_1_);" d="M606.41,395.48l-6.6,65.28l-8.56,6.39h-0.01l-18.22,13.59l-59.17-6.33
		c-1.36-0.63-6.49-2.95-13.26-4.68c1.35,7.53,3.09,16.43,5.3,26.99v0.01c0.15,0.67,0.29,1.34,0.43,2.02
		c-1.09-0.92-2.55-1.87-4.28-2.87c-9.35-5.43-26.52-12.43-34.16-23.69c-0.29,0.17-0.58,0.35-0.86,0.54
		c-2.89,1.89-5.48,4.36-7.71,7.32c-3.28,4.32-5.81,9.67-7.4,15.75c-3.25-2.61-6.17-5.79-8.49-9.84c-3.95-6.87-6.54-17.08-6.41-24.65
		l2.04-1.19l19.61-9.98l0.39-0.28c0.48,0.65,0.95,1.27,1.2,1.46c8.34,6.26,19.05,15.03,34.6,14.59c3.08-0.09,14.23-0.4,20.97-7.98
		c7.04-7.91,5.93-19.95,4.74-27.3v-0.01c-0.23-1.37-0.45-2.56-0.63-3.55c-0.62-3.44-1.21-7.32-1.72-11.55
		c-0.24-1.96-0.47-4-0.67-6.11c-0.02-0.16-0.03-0.33-0.05-0.49c0.07-0.2,0.14-0.4,0.2-0.6c1.27-3.8,2.09-6.43,2.13-6.5
		c2.8,1.32,5.05,1.57,6.89,1.25c0.16-0.02,0.32-0.05,0.47-0.09c0-0.06,0-0.12,0.01-0.18c0.01-0.58,0.04-1.22,0.1-1.92
		c0.91,0.36,1.56,0.54,2.07,0.65c0.55,0.13,0.92,0.17,1.23,0.29c0.19,0.07,0.37,0.18,0.55,0.34v-1.66l0.16-90.75l0.01-7.69
		c-14.06-21.23-42.94-28.62-26.42-69.16c4.25-10.45,13.77-15,16.91-16.95c24.95-15.57,52.63-3.58,53.96-2.97
		c0.39,0.18,0.85,0.38,1.37,0.63c2.53,1.18,6.51,3.16,10.66,6.11c6.52,4.65,13.46,11.69,15.81,21.7c2.22,9.47-0.36,18.68-3.13,25.72
		c-0.87,2.2-1.75,4.19-2.52,5.91c-3.03,6.81-6.63,11.97-9.41,15.45l11.97,71.67l0.15,0.91l0.99,5.92L606.41,395.48z"/>
</g>
<path d="M433.179,348.705"/>
<path style="fill:#F6F5F5;" d="M454.114,359.743c-12.947-5.257-21.111-7.829-26.3-9.205c-1.2-0.318-4.132-1.074-7.89-2.63
	c-5.286-2.188-9.278-4.746-11.835-6.575v-2.63l11.835,1.315l-9.205-3.945v-5.26l11.835,6.575l-10.52-10.52l5.26-2.63l9.205,9.205
	l-3.945-10.52l3.945-1.315l7.89,10.52l6.575-6.575l3.945,3.945l-2.63,5.26l21.04,14.465L454.114,359.743z"/>
<path style="fill:#F6F5F5;" d="M518.799,318.875c-9.982-9.778-21.367-20.067-24.698-24.277c-0.771-0.974-2.632-3.361-5.557-6.188
	c-4.114-3.976-8.051-6.617-10.748-8.233l-2.412,1.048l5.924,10.33l-7.287-6.869l-4.824,2.097l10.748,8.233l-13.841-5.454
	l-0.315,5.872l12.111,4.773l-11.22,0.576l0.367,4.142l12.793,3.042l-3.409,8.651l5.191,2.045l3.776-4.509l21.673,15.407
	L518.799,318.875z"/>
<path style="fill:#BBDEF0;" d="M453.39,446.71l-14.21,8.26c0.11-0.42,0.23-0.82,0.36-1.22l12.91-7.5
	C452.76,446.39,453.07,446.54,453.39,446.71z"/>
<path style="fill:#30058B;" d="M623.06,504.99c-2.31,3.29-9.37,5.22-16.98,8.38c-58.64,24.35-113.38,1.55-138.3-8.83
	c-5.41-2.25-11.01-4.84-15.87-8.74c-3.25-2.61-6.17-5.79-8.49-9.84c-3.95-6.87-6.54-17.08-6.41-24.65c0-0.41,0.02-0.8,0.04-1.19
	l20.61-11.98c0.28,0.2,0.84,0.98,1.39,1.72c0.48,0.65,0.95,1.27,1.2,1.46c8.34,6.26,19.05,15.03,34.6,14.59
	c3.08-0.09,14.23-0.4,20.97-7.98c7.04-7.91,5.93-19.95,4.74-27.3v-0.01c-0.23-1.37-0.45-2.56-0.63-3.55
	c-0.62-3.44-1.21-7.32-1.72-11.55c-0.24-1.96-0.47-4-0.67-6.11c-0.02-0.16-0.03-0.33-0.05-0.49c-0.01-0.15-0.03-0.31-0.04-0.46
	c-2.74-29.38-1.62-70.87,13.85-98.71c0.15-0.29,0.31-0.59,0.48-0.88c1.66-2.89,19.93-33.71,55.5-40.45
	c4.59-0.87,9.01-1.25,13.19-1.28c13.04-0.11,23.71,3.19,30.03,5.61c0.7,6.07,1.34,12.18,1.9,18.35c1.43,15.58,3.5,31.45,5.55,47.3
	c0.04,0.31,0.08,0.62,0.12,0.93c0.26,2.01,0.52,4.03,0.78,6.05C646.45,404.56,652.5,462.94,623.06,504.99z"/>
</svg>
