<svg id="figura" xmlns="http://www.w3.org/2000/svg" xmlns:xlink="http://www.w3.org/1999/xlink" viewBox="0 0 403 690.69"><defs><linearGradient id="Degradado_sin_nombre_23" x1="351.82" y1="316.96" x2="-100.64" y2="578.18" gradientUnits="userSpaceOnUse"><stop offset="0" stop-color="#9ea9f0"/><stop offset="0.11" stop-color="#afa1e4" stop-opacity="0.9"/><stop offset="0.36" stop-color="#d190cc" stop-opacity="0.68"/><stop offset="0.47" stop-color="#df8ac2" stop-opacity="0.6"/><stop offset="0.53" stop-color="#e687bd" stop-opacity="0.47"/><stop offset="0.65" stop-color="#f182b6" stop-opacity="0.27"/><stop offset="0.74" stop-color="#f97eb0" stop-opacity="0.12"/><stop offset="0.83" stop-color="#fd7cad" stop-opacity="0.03"/><stop offset="0.88" stop-color="#ff7bac" stop-opacity="0"/></linearGradient><linearGradient id="Degradado_sin_nombre_70" x1="307.7" y1="142.33" x2="99.05" y2="142.33" gradientUnits="userSpaceOnUse"><stop offset="0.04" stop-color="#9ea9f0"/><stop offset="0.43" stop-color="#9ea9f0" stop-opacity="0.58"/><stop offset="1" stop-color="#9ea9f0" stop-opacity="0"/></linearGradient><linearGradient id="Degradado_sin_nombre_65" x1="309.15" y1="236.28" x2="-64.78" y2="610.22" gradientUnits="userSpaceOnUse"><stop offset="0.04" stop-color="#553c8b"/><stop offset="1" stop-color="#553c8b" stop-opacity="0"/></linearGradient><linearGradient id="Degradado_sin_nombre_70-2" x1="265.88" y1="567.68" x2="403" y2="567.68" xlink:href="#Degradado_sin_nombre_70"/><linearGradient id="Degradado_sin_nombre_19" x1="183.95" y1="680.48" x2="312.17" y2="458.39" gradientUnits="userSpaceOnUse"><stop offset="0" stop-color="#adaabb"/><stop offset="0.72" stop-color="#cbc0fd"/><stop offset="1" stop-color="#ccc1ff"/></linearGradient></defs><path d="M333,656.5c-4.25,16.37-14,31.55-27.42,44.82C261.34,745.18,177.86,768.08,126,743.5c-23.4-11.09-35.41-29.49-62-29C40,715,20,730.54,5.74,746c-2,2.19-3.94,4.37-5.74,6.51v-596a265.85,265.85,0,0,1,41.35-14.82c24.74-6.41,43.44-6.19,57.7-3.05a77.85,77.85,0,0,1,15,4.87c7.09,3.15,14.05,7.55,33,16,27.33,12.19,45.72,17.69,61,23,47.19,16.4,72.63,25.23,86.66,39.29A46.21,46.21,0,0,1,298,225.5c35.1,43.39,10.2,117.71,8,124-9.77,28-18.61,27.41-29,60-2.18,6.84-4.83,15.17-7,24.54-4.24,18.29-6.62,40.56,0,63.46,10.3,35.65,31.72,35.8,50,76C325.27,585.09,342,621.85,333,656.5Z" transform="translate(0 -62.87)" style="fill:url(#Degradado_sin_nombre_23)"/><path d="M306,176a383.88,383.88,0,0,1-11.34,45.79c-14-14.06-39.47-22.89-86.66-39.29-15.28-5.31-33.67-10.81-61-23-18.95-8.45-25.91-12.85-33-16a77.85,77.85,0,0,0-15-4.87A122.27,122.27,0,0,1,125,98c7.49-7.72,28.59-28.83,63-34,38-5.71,71.86,11,92,31,5.5,5.45,17.8,17.92,24,38C309.86,152,307.34,168.33,306,176Z" transform="translate(0 -62.87)" style="fill:url(#Degradado_sin_nombre_70)"/><path d="M265,304c-7.1,19.56-31.91,87.92-22,167,6.06,48.33,20,60.06,13,95-10.39,51.93-52.57,83-62,90C116,713.54,10.79,678.92,0,675V344.67L53,313c15.12-8,34.67-21.55,43-44,12.25-33-11.76-52.68-5-100a135.44,135.44,0,0,1,8-30.37,77.85,77.85,0,0,1,15,4.87c7.09,3.15,14.05,7.55,33,16,27.33,12.19,45.72,17.69,61,23,47.19,16.4,72.63,25.23,86.66,39.29C284.52,254.91,271.65,285.68,265,304Z" transform="translate(0 -62.87)" style="fill:url(#Degradado_sin_nombre_65)"/><path d="M403,570.5a136.55,136.55,0,0,1-97.42,130.82C319,688.05,328.75,672.87,333,656.5c9-34.65-7.73-71.41-13-83-18.28-40.2-39.7-40.35-50-76-6.62-22.9-4.24-45.17,0-63.46A136.5,136.5,0,0,1,403,570.5Z" transform="translate(0 -62.87)" style="fill:url(#Degradado_sin_nombre_70-2)"/><path d="M333,656.5c-4.25,16.37-14,31.55-27.42,44.82A136.51,136.51,0,1,1,266.5,434c1.17,0,2.34,0,3.5,0-4.24,18.29-6.62,40.56,0,63.46,10.3,35.65,31.72,35.8,50,76C325.27,585.09,342,621.85,333,656.5Z" transform="translate(0 -62.87)" style="fill:url(#Degradado_sin_nombre_19)"/></svg>